<?xml version="1.0" encoding="us-ascii" standalone="no"?><svg xmlns="http://www.w3.org/2000/svg" xmlns:xlink="http://www.w3.org/1999/xlink" contentStyleType="text/css" height="627px" preserveAspectRatio="none" style="width:1099px;height:627px;background:#FFFFFF;" version="1.1" viewBox="0 0 1099 627" width="1099px" zoomAndPan="magnify"><defs/><g><text fill="#000000" font-family="Noto Sans CJK JP" font-size="14" font-weight="bold" lengthAdjust="spacing" textLength="213" x="436.25" y="26.2399">&#12458;&#12475;&#12525;&#12450;&#12503;&#12522;&#12504;&#12483;&#12480;&#12540; &#30011;&#38754;&#36983;&#31227;&#22259;</text><!--cluster ?????--><g id="cluster_&#12507;&#12540;&#12512;&#30011;&#38754;"><path d="M635.5,231.9619 L781.5,231.9619 A12.5,12.5 0 0 1 794,244.4619 L794,257.2338 L623,257.2338 L623,244.4619 A12.5,12.5 0 0 1 635.5,231.9619 " fill="#F1F1F1" style="stroke:#F1F1F1;stroke-width:1.0;"/><rect fill="none" height="260" rx="12.5" ry="12.5" style="stroke:#181818;stroke-width:0.5;" width="171" x="623" y="231.9619"/><line style="stroke:#181818;stroke-width:0.5;" x1="623" x2="794" y1="257.2338" y2="257.2338"/><text fill="#000000" font-family="Noto Sans CJK JP" font-size="14" lengthAdjust="spacing" textLength="70" x="673.5" y="252.2018">&#12507;&#12540;&#12512;&#30011;&#38754;</text></g><!--cluster ???????--><g id="cluster_&#12450;&#12459;&#12454;&#12531;&#12488;&#27231;&#33021;"><path d="M306.5,388.9619 L578.5,388.9619 A12.5,12.5 0 0 1 591,401.4619 L591,414.2338 L294,414.2338 L294,401.4619 A12.5,12.5 0 0 1 306.5,388.9619 " fill="#F1F1F1" style="stroke:#F1F1F1;stroke-width:1.0;"/><rect fill="none" height="233" rx="12.5" ry="12.5" style="stroke:#181818;stroke-width:0.5;" width="297" x="294" y="388.9619"/><line style="stroke:#181818;stroke-width:0.5;" x1="294" x2="591" y1="414.2338" y2="414.2338"/><text fill="#000000" font-family="Noto Sans CJK JP" font-size="14" lengthAdjust="spacing" textLength="98" x="393.5" y="409.2018">&#12450;&#12459;&#12454;&#12531;&#12488;&#27231;&#33021;</text></g><rect fill="#F1F1F1" height="40" rx="12.5" ry="12.5" style="stroke:#181818;stroke-width:0.5;" width="80" x="647" y="427.9619"/><text fill="#000000" font-family="Noto Sans CJK JP" font-size="14" lengthAdjust="spacing" textLength="70" x="652" y="454.0659">&#12525;&#12464;&#12452;&#12531;&#21069;</text><rect fill="#F1F1F1" height="40" rx="12.5" ry="12.5" style="stroke:#181818;stroke-width:0.5;" width="80" x="671" y="278.9619"/><text fill="#000000" font-family="Noto Sans CJK JP" font-size="14" lengthAdjust="spacing" textLength="70" x="676" y="305.0659">&#12525;&#12464;&#12452;&#12531;&#24460;</text><rect fill="#F1F1F1" height="40" rx="12.5" ry="12.5" style="stroke:#181818;stroke-width:0.5;" width="94" x="481" y="565.9619"/><text fill="#000000" font-family="Noto Sans CJK JP" font-size="14" lengthAdjust="spacing" textLength="84" x="486" y="592.0659">&#12525;&#12464;&#12452;&#12531;&#30011;&#38754;</text><rect fill="#F1F1F1" height="40" rx="12.5" ry="12.5" style="stroke:#181818;stroke-width:0.5;" width="108" x="314" y="427.9619"/><text fill="#000000" font-family="Noto Sans CJK JP" font-size="14" lengthAdjust="spacing" textLength="98" x="319" y="454.0659">&#12497;&#12473;&#12527;&#12540;&#12489;&#22793;&#26356;</text><rect fill="#F1F1F1" height="40" rx="12.5" ry="12.5" style="stroke:#181818;stroke-width:0.5;" width="94" x="464" y="427.9619"/><text fill="#000000" font-family="Noto Sans CJK JP" font-size="14" lengthAdjust="spacing" textLength="84" x="469" y="454.0659">&#12518;&#12540;&#12470;&#12540;&#30331;&#37682;</text><rect fill="#F1F1F1" height="40" rx="12.5" ry="12.5" style="stroke:#181818;stroke-width:0.5;" width="136" x="310" y="565.9619"/><text fill="#000000" font-family="Noto Sans CJK JP" font-size="14" lengthAdjust="spacing" textLength="126" x="315" y="592.0659">&#12497;&#12473;&#12527;&#12540;&#12489;&#22793;&#26356;&#30906;&#35469;</text><rect fill="#F1F1F1" height="40" rx="12.5" ry="12.5" style="stroke:#181818;stroke-width:0.5;" width="80" x="644" y="95.4619"/><text fill="#000000" font-family="Noto Sans CJK JP" font-size="14" lengthAdjust="spacing" textLength="70" x="649" y="121.5659">&#20219;&#24847;&#12398;&#30011;&#38754;</text><rect fill="#F1F1F1" height="40" rx="12.5" ry="12.5" style="stroke:#181818;stroke-width:0.5;" width="164" x="7" y="278.9619"/><text fill="#000000" font-family="Noto Sans CJK JP" font-size="14" lengthAdjust="spacing" textLength="154" x="12" y="305.0659">&#12525;&#12464;&#12452;&#12531;&#20013;&#12398;&#20219;&#24847;&#12398;&#30011;&#38754;</text><ellipse cx="786" cy="115.4619" fill="#222222" rx="10" ry="10" style="stroke:#222222;stroke-width:1.0;"/><g id="elem_GMN24"><path d="M831.5,72.9619 L831.5,158.258 L1092.5,158.258 L1092.5,82.9619 L1082.5,72.9619 L831.5,72.9619 " fill="#FEFFDD" style="stroke:#181818;stroke-width:0.5;"/><path d="M1082.5,72.9619 L1082.5,82.9619 L1092.5,82.9619 L1082.5,72.9619 " fill="#FEFFDD" style="stroke:#181818;stroke-width:1.0;"/><text fill="#000000" font-family="Noto Sans CJK JP" font-size="13" lengthAdjust="spacing" textLength="221" x="837.5" y="93.0419">&#12504;&#12483;&#12480;&#12540;&#12398;&#24038;&#19978;&#12398;&#12450;&#12503;&#12522;&#21517;&#12434;&#12463;&#12522;&#12483;&#12463;</text><text fill="#000000" font-family="Noto Sans CJK JP" font-size="13" lengthAdjust="spacing" textLength="221" x="837.5" y="111.8659">&#12393;&#12398;&#30011;&#38754;&#12363;&#12425;&#12391;&#12418;&#12507;&#12540;&#12512;&#30011;&#38754;&#12395;&#25147;&#12428;&#12427;</text><text fill="#000000" font-family="Noto Sans CJK JP" font-size="13" lengthAdjust="spacing" textLength="240" x="837.5" y="130.69">&#12539;&#26410;&#12525;&#12464;&#12452;&#12531;&#26178; &#8594; &#12507;&#12540;&#12512;&#65288;&#12525;&#12464;&#12452;&#12531;&#21069;&#65289;</text><text fill="#000000" font-family="Noto Sans CJK JP" font-size="13" lengthAdjust="spacing" textLength="227" x="837.5" y="149.514">&#12539;&#12525;&#12464;&#12452;&#12531;&#26178; &#8594; &#12507;&#12540;&#12512;&#65288;&#12525;&#12464;&#12452;&#12531;&#24460;&#65289;</text></g><g id="elem_GMN27"><path d="M206,274.9619 L206,294.9619 L171.36,298.9619 L206,302.9619 L206,322.6099 A0,0 0 0 0 206,322.6099 L474,322.6099 A0,0 0 0 0 474,322.6099 L474,284.9619 L464,274.9619 L206,274.9619 A0,0 0 0 0 206,274.9619 " fill="#FEFFDD" style="stroke:#181818;stroke-width:0.5;"/><path d="M464,274.9619 L464,284.9619 L474,284.9619 L464,274.9619 " fill="#FEFFDD" style="stroke:#181818;stroke-width:0.5;"/><text fill="#000000" font-family="Noto Sans CJK JP" font-size="13" lengthAdjust="spacing" textLength="247" x="212" y="295.0419">&#12504;&#12483;&#12480;&#12540;&#12398;&#21491;&#19978;&#12398;&#12450;&#12459;&#12454;&#12531;&#12488;&#21517;&#12434;&#12463;&#12522;&#12483;&#12463;</text><text fill="#000000" font-family="Noto Sans CJK JP" font-size="13" lengthAdjust="spacing" textLength="247" x="212" y="313.8659">&#12525;&#12464;&#12450;&#12454;&#12488;&#12539;&#12497;&#12473;&#12527;&#12540;&#12489;&#22793;&#26356;&#12434;&#36984;&#25246;&#12391;&#12365;&#12427;</text></g><!--link *start* to ?????--><g id="link_*start*_&#12507;&#12540;&#12512;&#30011;&#38754;"><path d="M786,125.7119 C786,143.9169 786,185.9294 786,223.9032 C786,226.2765 786,228.6341 786,230.9691 C786,231.261 786,225.5525 786,225.8437 " fill="none" id="*start*-to-&#12507;&#12540;&#12512;&#30011;&#38754;" style="stroke:#181818;stroke-width:1.0;"/><polygon fill="#181818" points="786,231.8437,790,222.8437,786,226.8437,782,222.8437,786,231.8437" style="stroke:#181818;stroke-width:1.0;"/></g><!--link ????? to ?????--><g id="link_&#12525;&#12464;&#12452;&#12531;&#24460;_&#12525;&#12464;&#12452;&#12531;&#21069;"><path d="M695.76,319.4019 C689.23,328.9419 682.34,340.9519 679,352.9619 C671.97,378.2019 675.4419,402.7795 680.0919,422.0395 " fill="none" id="&#12525;&#12464;&#12452;&#12531;&#24460;-to-&#12525;&#12464;&#12452;&#12531;&#21069;" style="stroke:#181818;stroke-width:1.0;"/><polygon fill="#181818" points="681.5,427.8719,683.2761,418.1845,680.3266,423.0116,675.4995,420.062,681.5,427.8719" style="stroke:#181818;stroke-width:1.0;"/><text fill="#000000" font-family="Noto Sans CJK JP" font-size="13" lengthAdjust="spacing" textLength="78" x="680" y="369.0419">&#12525;&#12464;&#12450;&#12454;&#12488;&#24460;</text></g><!--link ??????? to ?????????--><g id="link_&#12497;&#12473;&#12527;&#12540;&#12489;&#22793;&#26356;_&#12497;&#12473;&#12527;&#12540;&#12489;&#22793;&#26356;&#30906;&#35469;"><path d="M369.41,468.1619 C371.32,494.0819 374.2482,534.0082 376.1582,559.8782 " fill="none" id="&#12497;&#12473;&#12527;&#12540;&#12489;&#22793;&#26356;-to-&#12497;&#12473;&#12527;&#12540;&#12489;&#22793;&#26356;&#30906;&#35469;" style="stroke:#181818;stroke-width:1.0;"/><polygon fill="#181818" points="376.6,565.8619,379.9265,556.5918,376.2318,560.8755,371.9482,557.1809,376.6,565.8619" style="stroke:#181818;stroke-width:1.0;"/></g><!--link ?????? to ??????--><g id="link_&#12518;&#12540;&#12470;&#12540;&#30331;&#37682;_&#12525;&#12464;&#12452;&#12531;&#30011;&#38754;"><path d="M513.4,468.1619 C516.64,494.0819 521.6366,534.0381 524.8666,559.9081 " fill="none" id="&#12518;&#12540;&#12470;&#12540;&#30331;&#37682;-to-&#12525;&#12464;&#12452;&#12531;&#30011;&#38754;" style="stroke:#181818;stroke-width:1.0;"/><polygon fill="#181818" points="525.61,565.8619,528.4641,556.4357,524.9905,560.9004,520.5258,557.4268,525.61,565.8619" style="stroke:#181818;stroke-width:1.0;"/><text fill="#000000" font-family="Noto Sans CJK JP" font-size="13" lengthAdjust="spacing" textLength="91" x="522" y="532.0419">&#12518;&#12540;&#12470;&#12540;&#30331;&#37682;&#24460;</text></g><!--link ????? to ??????--><g id="link_&#12525;&#12464;&#12452;&#12531;&#21069;_&#12525;&#12464;&#12452;&#12531;&#30011;&#38754;"><path d="M675.88,468.2119 C664.13,487.2619 644.13,516.3419 621,535.9619 C606.94,547.8819 594.8766,555.3588 578.9066,563.2688 " fill="none" id="&#12525;&#12464;&#12452;&#12531;&#21069;-to-&#12525;&#12464;&#12452;&#12531;&#30011;&#38754;" style="stroke:#181818;stroke-width:1.0;"/><polygon fill="#181818" points="573.53,565.9319,583.3703,565.5217,578.0105,563.7127,579.8196,558.3529,573.53,565.9319" style="stroke:#181818;stroke-width:1.0;"/></g><!--link ?????? to ?????--><g id="link_&#12525;&#12464;&#12452;&#12531;&#30011;&#38754;_&#12525;&#12464;&#12452;&#12531;&#24460;"><path d="M575.02,582.1119 C625.32,576.3719 703.46,559.2019 745,507.9619 C838.29,392.8819 780.4,395.5319 763,352.9619 C757.59,339.7119 751.5727,331.98 741.4227,322.95 " fill="none" id="&#12525;&#12464;&#12452;&#12531;&#30011;&#38754;-to-&#12525;&#12464;&#12452;&#12531;&#24460;" style="stroke:#181818;stroke-width:1.0;"/><polygon fill="#181818" points="736.94,318.9619,741.0054,327.9326,740.6756,322.2853,746.3229,321.9556,736.94,318.9619" style="stroke:#181818;stroke-width:1.0;"/></g><!--link ????? to ??????--><g id="link_&#12525;&#12464;&#12452;&#12531;&#21069;_&#12518;&#12540;&#12470;&#12540;&#30331;&#37682;"><path d="M646.97,447.9619 C617.34,447.9619 593.72,447.9619 564.09,447.9619 " fill="none" id="&#12525;&#12464;&#12452;&#12531;&#21069;-to-&#12518;&#12540;&#12470;&#12540;&#30331;&#37682;" style="stroke:#181818;stroke-width:1.0;"/><polygon fill="#181818" points="558.09,447.9619,567.09,451.9619,563.09,447.9619,567.09,443.9619,558.09,447.9619" style="stroke:#181818;stroke-width:1.0;"/></g><!--link ????? to ?????--><g id="link_&#20219;&#24847;&#12398;&#30011;&#38754;_&#12525;&#12464;&#12452;&#12531;&#21069;"><path d="M645.86,135.4819 C616.9,152.2519 579.23,179.6719 562,215.9619 C541.6,258.9219 543.71,279.0619 562,322.9619 C581.1,368.8119 621.4057,402.9796 651.8857,424.3296 " fill="none" id="&#20219;&#24847;&#12398;&#30011;&#38754;-to-&#12525;&#12464;&#12452;&#12531;&#21069;" style="stroke:#181818;stroke-width:1.0;"/><polygon fill="#181818" points="656.8,427.7719,651.7234,419.3323,652.7047,424.9033,647.1336,425.8847,656.8,427.7719" style="stroke:#181818;stroke-width:1.0;"/><ellipse cx="568" cy="299.8739" fill="none" rx="3" ry="3" style="stroke:#000000;stroke-width:1.0;"/><text fill="#000000" font-family="Noto Sans CJK JP" font-size="13" lengthAdjust="spacing" textLength="78" x="575" y="305.0419">&#26410;&#12525;&#12464;&#12452;&#12531;&#26178;</text></g><!--link ????? to ?????--><g id="link_&#20219;&#24847;&#12398;&#30011;&#38754;_&#12525;&#12464;&#12452;&#12531;&#24460;"><path d="M686.84,135.5419 C692.02,170.4019 702.0867,238.0573 707.2767,272.9273 " fill="none" id="&#20219;&#24847;&#12398;&#30011;&#38754;-to-&#12525;&#12464;&#12452;&#12531;&#24460;" style="stroke:#181818;stroke-width:1.0;"/><polygon fill="#181818" points="708.16,278.8619,710.7915,269.3711,707.4239,273.9164,702.8786,270.5488,708.16,278.8619" style="stroke:#181818;stroke-width:1.0;"/><ellipse cx="703" cy="198.8739" fill="none" rx="3" ry="3" style="stroke:#000000;stroke-width:1.0;"/><text fill="#000000" font-family="Noto Sans CJK JP" font-size="13" lengthAdjust="spacing" textLength="65" x="710" y="204.0419">&#12525;&#12464;&#12452;&#12531;&#26178;</text></g><!--link ??????????? to ?????--><g id="link_&#12525;&#12464;&#12452;&#12531;&#20013;&#12398;&#20219;&#24847;&#12398;&#30011;&#38754;_&#12525;&#12464;&#12452;&#12531;&#21069;"><path d="M170.82,318.9719 C176.97,320.3419 183.08,321.6819 189,322.9619 C299.35,346.7219 326.01,358.8619 438,372.9619 C471.78,377.2119 558.76,370.0219 591,380.9619 C619.92,390.7819 643.5731,408.0671 661.8431,423.7971 " fill="none" id="&#12525;&#12464;&#12452;&#12531;&#20013;&#12398;&#20219;&#24847;&#12398;&#30011;&#38754;-to-&#12525;&#12464;&#12452;&#12531;&#21069;" style="stroke:#181818;stroke-width:1.0;"/><polygon fill="#181818" points="666.39,427.7119,662.1795,418.8085,662.6009,424.4496,656.9598,424.871,666.39,427.7119" style="stroke:#181818;stroke-width:1.0;"/><text fill="#000000" font-family="Noto Sans CJK JP" font-size="13" lengthAdjust="spacing" textLength="78" x="439" y="369.0419">&#12525;&#12464;&#12450;&#12454;&#12488;&#24460;</text></g><!--link ??????????? to ???????--><g id="link_&#12525;&#12464;&#12452;&#12531;&#20013;&#12398;&#20219;&#24847;&#12398;&#30011;&#38754;_&#12497;&#12473;&#12527;&#12540;&#12489;&#22793;&#26356;"><path d="M125.19,319.0319 C178.71,347.2319 273.0816,396.9553 326.5716,425.1353 " fill="none" id="&#12525;&#12464;&#12452;&#12531;&#20013;&#12398;&#20219;&#24847;&#12398;&#30011;&#38754;-to-&#12497;&#12473;&#12527;&#12540;&#12489;&#22793;&#26356;" style="stroke:#181818;stroke-width:1.0;"/><polygon fill="#181818" points="331.88,427.9319,325.7818,420.1981,327.4563,425.6014,322.053,427.2759,331.88,427.9319" style="stroke:#181818;stroke-width:1.0;"/></g><!--link ????? to GMN24--><g id="link_&#20219;&#24847;&#12398;&#30011;&#38754;_GMN24"><path d="M708.09,95.2219 C725.77,81.7419 751.04,65.2319 776.5,57.9619 C813.95,47.2719 855.36,57.9319 889.54,72.8519 " fill="none" id="&#20219;&#24847;&#12398;&#30011;&#38754;-GMN24" style="stroke:#181818;stroke-width:1.0;stroke-dasharray:7.0,7.0;"/></g><!--SRC=[bLJBQjj05DtFLrooAGJo0rbqK-WYXL3eidGXQgKHZILZJnUb5AoPjbX-a3OKqjHzOO9JEoGfTKYSolN7z5fIlCelT2HF_1X9AD523FVCkVVEkMUczDmm2rfHoqDEtz1URD7xbadNjRmEI-iMjU2HPfRWtje3M7kuH3QDd0vwla1VYjsbfqMZG0tB98HGWsxfWAoBp4L-XAo5V1Tv5_adv1nv6Va0We_k-6jhR9y71wxNx15o1uBgcV-sXlQnT_mv67P8YMfKXv7h-c-sHNJ2aD4exoza-yXxe_wHWDLzvF7o4rXPkIksDaL1v3-K10jHU4L0VF7adjD8GuRr255YikP21bYTHbh8siWh8VarkUubZ1v6G4zWVkVx9V-Rsf4ynZpu0Ta5yfFeG8wtx_ZDqmMy7IBiJFo3FNTS_vr53bf_BhiDURe4N9unYwcMZKaZjLzDs2i54hx0SbaP5je_4oKJmvyOYgZw9nSc2Rt4fYSccf8kfchOBSoxd2YcJF76il-bEn_rzrWsK_Gbc2ejyrxSt9utJPLaFc9Qmbj5uzac1Mj3lSCW_J4JAhpqv-rHloeMq_V2Uzz0jeFi97exk5XCU7PdcWdj6Z87xGDaB6QIGx_Y8giZgybwRbnd-FTkP_OMN0qgYZHN0-UQV2lci1uoTJCN2Q78aVru9UcptPlfCsVzD9KM1nhrdp0fGHtRVR_wBTJGReHQJPic_m40]--></g></svg>