<?xml version="1.0" encoding="us-ascii" standalone="no"?><svg xmlns="http://www.w3.org/2000/svg" xmlns:xlink="http://www.w3.org/1999/xlink" contentStyleType="text/css" height="907px" preserveAspectRatio="none" style="width:561px;height:907px;background:#FFFFFF;" version="1.1" viewBox="0 0 561 907" width="561px" zoomAndPan="magnify"><defs/><g><text fill="#000000" font-family="Noto Sans CJK JP" font-size="14" font-weight="bold" lengthAdjust="spacing" textLength="157" x="191.75" y="26.2399">&#12458;&#12475;&#12525;&#12450;&#12503;&#12522; &#30011;&#38754;&#36983;&#31227;&#22259;</text><!--cluster ?????--><g id="cluster_&#12507;&#12540;&#12512;&#30011;&#38754;"><path d="M180,122.2719 L459,122.2719 A12.5,12.5 0 0 1 471.5,134.7719 L471.5,147.5438 L167.5,147.5438 L167.5,134.7719 A12.5,12.5 0 0 1 180,122.2719 " fill="#F1F1F1" style="stroke:#F1F1F1;stroke-width:1.0;"/><rect fill="none" height="231" rx="12.5" ry="12.5" style="stroke:#181818;stroke-width:0.5;" width="304" x="167.5" y="122.2719"/><line style="stroke:#181818;stroke-width:0.5;" x1="167.5" x2="471.5" y1="147.5438" y2="147.5438"/><text fill="#000000" font-family="Noto Sans CJK JP" font-size="14" lengthAdjust="spacing" textLength="70" x="284.5" y="142.5118">&#12507;&#12540;&#12512;&#30011;&#38754;</text></g><!--cluster ?????--><g id="cluster_&#12466;&#12540;&#12512;&#31649;&#29702;"><path d="M53,394.2719 L535,394.2719 A12.5,12.5 0 0 1 547.5,406.7719 L547.5,419.5438 L40.5,419.5438 L40.5,406.7719 A12.5,12.5 0 0 1 53,394.2719 " fill="#F1F1F1" style="stroke:#F1F1F1;stroke-width:1.0;"/><rect fill="none" height="215" rx="12.5" ry="12.5" style="stroke:#181818;stroke-width:0.5;" width="507" x="40.5" y="394.2719"/><line style="stroke:#181818;stroke-width:0.5;" x1="40.5" x2="547.5" y1="419.5438" y2="419.5438"/><text fill="#000000" font-family="Noto Sans CJK JP" font-size="14" lengthAdjust="spacing" textLength="70" x="259" y="414.5118">&#12466;&#12540;&#12512;&#31649;&#29702;</text></g><rect fill="#F1F1F1" height="40" rx="12.5" ry="12.5" style="stroke:#181818;stroke-width:0.5;" width="80" x="262.5" y="169.2719"/><text fill="#000000" font-family="Noto Sans CJK JP" font-size="14" lengthAdjust="spacing" textLength="70" x="267.5" y="195.3759">&#12525;&#12464;&#12452;&#12531;&#21069;</text><rect fill="#F1F1F1" height="40" rx="12.5" ry="12.5" style="stroke:#181818;stroke-width:0.5;" width="80" x="214.5" y="289.2719"/><text fill="#000000" font-family="Noto Sans CJK JP" font-size="14" lengthAdjust="spacing" textLength="70" x="219.5" y="315.3759">&#12525;&#12464;&#12452;&#12531;&#24460;</text><rect fill="#F1F1F1" height="40" rx="12.5" ry="12.5" style="stroke:#181818;stroke-width:0.5;" width="108" x="105.5" y="433.2719"/><text fill="#000000" font-family="Noto Sans CJK JP" font-size="14" lengthAdjust="spacing" textLength="98" x="110.5" y="459.3759">&#26032;&#35215;&#12466;&#12540;&#12512;&#20316;&#25104;</text><rect fill="#F1F1F1" height="40" rx="12.5" ry="12.5" style="stroke:#181818;stroke-width:0.5;" width="94" x="104.5" y="553.2719"/><text fill="#000000" font-family="Noto Sans CJK JP" font-size="14" lengthAdjust="spacing" textLength="84" x="109.5" y="579.3759">&#12525;&#12540;&#12459;&#12523;&#23550;&#25126;</text><rect fill="#F1F1F1" height="40" rx="12.5" ry="12.5" style="stroke:#181818;stroke-width:0.5;" width="94" x="272.5" y="433.2719"/><text fill="#000000" font-family="Noto Sans CJK JP" font-size="14" lengthAdjust="spacing" textLength="84" x="277.5" y="459.3759">&#23550;&#23616;&#23653;&#27508;&#30906;&#35469;</text><rect fill="#F1F1F1" height="40" rx="12.5" ry="12.5" style="stroke:#181818;stroke-width:0.5;" width="80" x="351.5" y="553.2719"/><text fill="#000000" font-family="Noto Sans CJK JP" font-size="14" lengthAdjust="spacing" textLength="70" x="356.5" y="579.3759">&#12466;&#12540;&#12512;&#21066;&#38500;</text><ellipse cx="175.5" cy="57.2719" fill="#222222" rx="10" ry="10" style="stroke:#222222;stroke-width:1.0;"/><path d="M19.5,675.2719 L283.5,675.2719 A12.5,12.5 0 0 1 296,687.7719 L296,705.5438 L7,705.5438 L7,687.7719 A12.5,12.5 0 0 1 19.5,675.2719 " fill="#F1F1F1" style="stroke:#F1F1F1;stroke-width:1.0;"/><rect fill="none" height="226.2719" rx="12.5" ry="12.5" style="stroke:#181818;stroke-width:0.5;" width="289" x="7" y="675.2719"/><line style="stroke:#181818;stroke-width:0.5;" x1="7" x2="296" y1="705.5438" y2="705.5438"/><text fill="#000000" font-family="Noto Sans CJK JP" font-size="14" lengthAdjust="spacing" textLength="84" x="109.5" y="696.5118">&#12466;&#12540;&#12512;&#12503;&#12524;&#12452;</text><ellipse cx="136" cy="726.5438" fill="#222222" rx="10" ry="10" style="stroke:#222222;stroke-width:1.0;"/><rect fill="#F1F1F1" height="40" rx="12.5" ry="12.5" style="stroke:#181818;stroke-width:0.5;" width="66" x="19" y="773.5438"/><text fill="#000000" font-family="Noto Sans CJK JP" font-size="14" lengthAdjust="spacing" textLength="56" x="24" y="799.6478">&#39378;&#12434;&#25171;&#12388;</text><rect fill="#F1F1F1" height="40" rx="12.5" ry="12.5" style="stroke:#181818;stroke-width:0.5;" width="66" x="103" y="773.5438"/><text fill="#000000" font-family="Noto Sans CJK JP" font-size="14" lengthAdjust="spacing" textLength="56" x="108" y="799.6478">&#12497;&#12473;&#12377;&#12427;</text><rect fill="#F1F1F1" height="40" rx="12.5" ry="12.5" style="stroke:#181818;stroke-width:0.5;" width="66" x="187" y="773.5438"/><text fill="#000000" font-family="Noto Sans CJK JP" font-size="14" lengthAdjust="spacing" textLength="56" x="192" y="799.6478">&#32066;&#23616;&#20966;&#29702;</text><ellipse cx="220" cy="880.5438" fill="none" rx="11" ry="11" style="stroke:#222222;stroke-width:1.0;"/><ellipse cx="220" cy="880.5438" fill="#222222" rx="6" ry="6" style="stroke:#222222;stroke-width:1.0;"/><!--link *start*?????? to ????--><g id="link_*start*&#12466;&#12540;&#12512;&#12503;&#12524;&#12452;_&#39378;&#12434;&#25171;&#12388;"><path d="M128.55,733.3138 C117.06,742.1938 99.2646,755.9612 81.6046,769.6312 " fill="none" id="*start*&#12466;&#12540;&#12512;&#12503;&#12524;&#12452;-to-&#39378;&#12434;&#25171;&#12388;" style="stroke:#181818;stroke-width:1.0;"/><polygon fill="#181818" points="76.86,773.3038,86.4254,770.9579,80.8139,770.2433,81.5285,764.6317,76.86,773.3038" style="stroke:#181818;stroke-width:1.0;"/></g><!--link *start*?????? to ????--><g id="link_*start*&#12466;&#12540;&#12512;&#12503;&#12524;&#12452;_&#12497;&#12473;&#12377;&#12427;"><path d="M136,736.5838 C136,746.0738 136,755.2738 136,767.4338 " fill="none" id="*start*&#12466;&#12540;&#12512;&#12503;&#12524;&#12452;-to-&#12497;&#12473;&#12377;&#12427;" style="stroke:#181818;stroke-width:1.0;"/><polygon fill="#181818" points="136,773.4338,140,764.4338,136,768.4338,132,764.4338,136,773.4338" style="stroke:#181818;stroke-width:1.0;"/></g><!--link *start*?????? to ????--><g id="link_*start*&#12466;&#12540;&#12512;&#12503;&#12524;&#12452;_&#32066;&#23616;&#20966;&#29702;"><path d="M143.45,733.3138 C154.94,742.1938 172.7354,755.9612 190.3954,769.6312 " fill="none" id="*start*&#12466;&#12540;&#12512;&#12503;&#12524;&#12452;-to-&#32066;&#23616;&#20966;&#29702;" style="stroke:#181818;stroke-width:1.0;"/><polygon fill="#181818" points="195.14,773.3038,190.4715,764.6317,191.1861,770.2433,185.5746,770.9579,195.14,773.3038" style="stroke:#181818;stroke-width:1.0;"/></g><!--link ???? to *end*??????--><g id="link_&#32066;&#23616;&#20966;&#29702;_*end*&#12466;&#12540;&#12512;&#12503;&#12524;&#12452;"><path d="M220,813.8338 C220,831.0738 220,849.6638 220,863.3538 " fill="none" id="&#32066;&#23616;&#20966;&#29702;-to-*end*&#12466;&#12540;&#12512;&#12503;&#12524;&#12452;" style="stroke:#181818;stroke-width:1.0;"/><polygon fill="#181818" points="220,869.3538,224,860.3538,220,864.3538,216,860.3538,220,869.3538" style="stroke:#181818;stroke-width:1.0;"/><text fill="#000000" font-family="Noto Sans CJK JP" font-size="13" lengthAdjust="spacing" textLength="65" x="221" y="847.6238">&#12466;&#12540;&#12512;&#32066;&#20102;</text></g><!--link *start* to ?????--><g id="link_*start*_&#12507;&#12540;&#12512;&#30011;&#38754;"><path d="M175.5,67.6219 C175.5,74.9569 175.5,85.9888 175.5,98.4536 C175.5,104.6861 175.5,111.2767 175.5,117.9426 C175.5,118.7759 175.5,119.6103 175.5,120.4453 C175.5,120.8628 175.5,115.2805 175.5,115.6983 " fill="none" id="*start*-to-&#12507;&#12540;&#12512;&#30011;&#38754;" style="stroke:#181818;stroke-width:1.0;"/><polygon fill="#181818" points="175.5,121.6983,179.5,112.6983,175.5,116.6983,171.5,112.6983,175.5,121.6983" style="stroke:#181818;stroke-width:1.0;"/></g><!--link ????? to ?????--><g id="link_&#12525;&#12464;&#12452;&#12531;&#21069;_&#12525;&#12464;&#12452;&#12531;&#24460;"><path d="M262.17,208.6119 C250.08,216.2619 238.25,226.4119 231.5,239.2719 C223.11,255.2619 228.1055,269.8143 236.9455,284.0543 " fill="none" id="&#12525;&#12464;&#12452;&#12531;&#21069;-to-&#12525;&#12464;&#12452;&#12531;&#24460;" style="stroke:#181818;stroke-width:1.0;"/><polygon fill="#181818" points="240.11,289.1519,238.7616,279.3958,237.4729,284.9039,231.9648,283.6152,240.11,289.1519" style="stroke:#181818;stroke-width:1.0;"/><text fill="#000000" font-family="Noto Sans CJK JP" font-size="13" lengthAdjust="spacing" textLength="78" x="232.5" y="255.3519">&#12525;&#12464;&#12452;&#12531;&#12377;&#12427;</text></g><!--link ????? to ?????--><g id="link_&#12525;&#12464;&#12452;&#12531;&#24460;_&#12525;&#12464;&#12452;&#12531;&#21069;"><path d="M288.63,289.2719 C299.25,281.4719 309.69,271.4019 315.5,259.2719 C323.04,243.5519 320.3638,229.4185 314.5338,215.1085 " fill="none" id="&#12525;&#12464;&#12452;&#12531;&#24460;-to-&#12525;&#12464;&#12452;&#12531;&#21069;" style="stroke:#181818;stroke-width:1.0;"/><polygon fill="#181818" points="312.27,209.5519,311.9613,219.3959,314.1565,214.1824,319.37,216.3776,312.27,209.5519" style="stroke:#181818;stroke-width:1.0;"/><text fill="#000000" font-family="Noto Sans CJK JP" font-size="13" lengthAdjust="spacing" textLength="91" x="319.5" y="255.3519">&#12525;&#12464;&#12450;&#12454;&#12488;&#12377;&#12427;</text></g><!--link ?????? to ??????--><g id="link_&#23550;&#23616;&#23653;&#27508;&#30906;&#35469;_&#12525;&#12540;&#12459;&#12523;&#23550;&#25126;"><path d="M272.33,472.6619 C254.35,480.7319 234.2,491.1619 217.5,503.2719 C197.78,517.5819 182.7784,533.6003 170.3184,548.5703 " fill="none" id="&#23550;&#23616;&#23653;&#27508;&#30906;&#35469;-to-&#12525;&#12540;&#12459;&#12523;&#23550;&#25126;" style="stroke:#181818;stroke-width:1.0;"/><polygon fill="#181818" points="166.48,553.1819,175.312,548.8234,169.6786,549.3389,169.1632,543.7056,166.48,553.1819" style="stroke:#181818;stroke-width:1.0;"/><text fill="#000000" font-family="Noto Sans CJK JP" font-size="13" lengthAdjust="spacing" textLength="104" x="218.5" y="519.3519">&#36942;&#21435;&#12398;&#23550;&#23616;&#12434;&#36984;&#25246;</text></g><!--link ??????? to ??????--><g id="link_&#26032;&#35215;&#12466;&#12540;&#12512;&#20316;&#25104;_&#12525;&#12540;&#12459;&#12523;&#23550;&#25126;"><path d="M118.05,473.3319 C106.35,480.8919 95.04,490.8019 88.5,503.2719 C78.47,522.3719 90.8878,536.9086 109.9178,549.6786 " fill="none" id="&#26032;&#35215;&#12466;&#12540;&#12512;&#20316;&#25104;-to-&#12525;&#12540;&#12459;&#12523;&#23550;&#25126;" style="stroke:#181818;stroke-width:1.0;"/><polygon fill="#181818" points="114.9,553.0219,109.6555,544.6855,110.7482,550.2358,105.1978,551.3284,114.9,553.0219" style="stroke:#181818;stroke-width:1.0;"/><text fill="#000000" font-family="Noto Sans CJK JP" font-size="13" lengthAdjust="spacing" textLength="65" x="89.5" y="519.3519">&#12466;&#12540;&#12512;&#38283;&#22987;</text></g><!--link ?????? to ?????--><g id="link_&#23550;&#23616;&#23653;&#27508;&#30906;&#35469;_&#12466;&#12540;&#12512;&#21066;&#38500;"><path d="M323,473.4819 C326.23,487.9519 332,507.8519 341.5,523.2719 C348.32,534.3419 353.731,540.6852 362.891,549.0152 " fill="none" id="&#23550;&#23616;&#23653;&#27508;&#30906;&#35469;-to-&#12466;&#12540;&#12512;&#21066;&#38500;" style="stroke:#181818;stroke-width:1.0;"/><polygon fill="#181818" points="367.33,553.0519,363.3627,544.0374,363.6308,549.6879,357.9804,549.9561,367.33,553.0519" style="stroke:#181818;stroke-width:1.0;"/><text fill="#000000" font-family="Noto Sans CJK JP" font-size="13" lengthAdjust="spacing" textLength="52" x="342.5" y="519.3519">&#23550;&#23616;&#21066;&#38500;</text></g><!--link ????? to ??????--><g id="link_&#12466;&#12540;&#12512;&#21066;&#38500;_&#23550;&#23616;&#23653;&#27508;&#30906;&#35469;"><path d="M399.53,553.2119 C404.34,538.6419 408.05,518.5319 399.5,503.2719 C392.18,490.2019 384.9838,483.1961 372.1038,475.7461 " fill="none" id="&#12466;&#12540;&#12512;&#21066;&#38500;-to-&#23550;&#23616;&#23653;&#27508;&#30906;&#35469;" style="stroke:#181818;stroke-width:1.0;"/><polygon fill="#181818" points="366.91,472.7419,372.6979,480.7106,371.2381,475.2454,376.7034,473.7856,366.91,472.7419" style="stroke:#181818;stroke-width:1.0;"/><text fill="#000000" font-family="Noto Sans CJK JP" font-size="13" lengthAdjust="spacing" textLength="91" x="405.5" y="519.3519">&#12288;&#12466;&#12540;&#12512;&#21066;&#38500;&#24460;</text></g><!--link ????? to ???????--><g id="link_&#12525;&#12464;&#12452;&#12531;&#24460;_&#26032;&#35215;&#12466;&#12540;&#12512;&#20316;&#25104;"><path d="M241.69,329.4219 C223.56,356.5219 193.9371,400.8055 175.7471,427.9855 " fill="none" id="&#12525;&#12464;&#12452;&#12531;&#24460;-to-&#26032;&#35215;&#12466;&#12540;&#12512;&#20316;&#25104;" style="stroke:#181818;stroke-width:1.0;"/><polygon fill="#181818" points="172.41,432.9719,180.7399,427.7171,175.1909,428.8166,174.0914,423.2676,172.41,432.9719" style="stroke:#181818;stroke-width:1.0;"/></g><!--link ????? to ??????--><g id="link_&#12525;&#12464;&#12452;&#12531;&#24460;_&#23550;&#23616;&#23653;&#27508;&#30906;&#35469;"><path d="M263.27,329.4219 C275.67,356.5219 295.7213,400.337 308.1713,427.517 " fill="none" id="&#12525;&#12464;&#12452;&#12531;&#24460;-to-&#23550;&#23616;&#23653;&#27508;&#30906;&#35469;" style="stroke:#181818;stroke-width:1.0;"/><polygon fill="#181818" points="310.67,432.9719,310.5586,423.1237,308.5878,428.4261,303.2853,426.4553,310.67,432.9719" style="stroke:#181818;stroke-width:1.0;"/></g><!--link ?????? to ??????--><g id="link_&#12525;&#12540;&#12459;&#12523;&#23550;&#25126;_&#12466;&#12540;&#12512;&#12503;&#12524;&#12452;"><path d="M151.5,593.5519 C151.5,612.6519 151.5,637.5419 151.5,669.0919 " fill="none" id="&#12525;&#12540;&#12459;&#12523;&#23550;&#25126;-to-&#12466;&#12540;&#12512;&#12503;&#12524;&#12452;" style="stroke:#181818;stroke-width:1.0;"/><polygon fill="#181818" points="151.5,675.0919,155.5,666.0919,151.5,670.0919,147.5,666.0919,151.5,675.0919" style="stroke:#181818;stroke-width:1.0;"/><text fill="#000000" font-family="Noto Sans CJK JP" font-size="13" lengthAdjust="spacing" textLength="52" x="152.5" y="641.3519">&#23550;&#23616;&#38283;&#22987;</text></g><!--SRC=[VLFBIiD05DtFLmnk1A4_uCADuAA222x5HT28mRwmuq94Q6P0M-jRKSG7McehLMjh5HzLV-QQfFaB9sdIPYRHMTvpxkFSUoQxgAKoofAIn7FglBAS86Ff59bGaYeUc4YJD9vIKbay6X_7ySa1jA3DgLXDPiWAPsTdbxGCqT8fX13HI4B5G6j0sy0UW9Q0dG2hOUkeRL-KRFtLghQDinP2qqCpE1ORmS3EW7q2k-eoK9OeH9MZU1LX_doCrsq0BGDh6ONjlv3lBHUHs5vFWOU7XGZefq2BuMHE32NpWlta4j0AiBoNlyRNuQkXJvwQ-hMrjoweCOyRdSfkZ_7pTMxczoHD7A5tmEwCnsypNmc0F60qSqRpndnujaeVdPgm3R-cKTYqJyik4axeQHARS5cslcFij46lTvE07jZwcxbvwTHnYqME_dUz7j4-BXhLuh_pYAFpP8_OLo9JdBI8QiEGoqbKnnbheTEuFhtdP_Mku_lJhXvmvMRX4FIo003R1_eUC8iFM2_KcMAZma_j0i60ot2OWNrm_ETZFN2vK4_V2bB7RbZenuKDohy7z5l9WVoetQ-8eXmURSaePeJ_a3k0tEusl6Tn1iajWWdwf_5zu3d8VRy0]--></g></svg>