<?xml version="1.0" encoding="us-ascii" standalone="no"?><svg xmlns="http://www.w3.org/2000/svg" xmlns:xlink="http://www.w3.org/1999/xlink" contentStyleType="text/css" height="802px" preserveAspectRatio="none" style="width:644px;height:802px;background:#FFFFFF;" version="1.1" viewBox="0 0 644 802" width="644px" zoomAndPan="magnify"><defs/><g><text fill="#000000" font-family="Noto Sans CJK JP" font-size="14" font-weight="bold" lengthAdjust="spacing" textLength="157" x="233.5" y="26.2399">&#12458;&#12475;&#12525;&#12450;&#12503;&#12522; &#30011;&#38754;&#36983;&#31227;&#22259;</text><!--cluster GameUse--><g id="cluster_GameUse"><path d="M19.5,335.2719 L618.5,335.2719 A12.5,12.5 0 0 1 631,347.7719 L631,380.8157 L7,380.8157 L7,347.7719 A12.5,12.5 0 0 1 19.5,335.2719 " fill="#ADD8E6" style="stroke:#ADD8E6;stroke-width:1.0;"/><rect fill="none" height="359" rx="12.5" ry="12.5" style="stroke:#181818;stroke-width:0.5;" width="624" x="7" y="335.2719"/><line style="stroke:#181818;stroke-width:0.5;" x1="7" x2="631" y1="380.8157" y2="380.8157"/><text fill="#000000" font-family="Noto Sans CJK JP" font-size="14" lengthAdjust="spacing" textLength="140" x="249" y="355.5118">&#12518;&#12540;&#12470;&#12540;&#21033;&#29992;&#12513;&#12491;&#12517;&#12540;</text><text fill="#000000" font-family="Noto Sans CJK JP" font-size="14" lengthAdjust="spacing" textLength="350" x="144" y="375.7838">&#26032;&#35215;&#12466;&#12540;&#12512;&#38283;&#22987;&#12289;&#36942;&#21435;&#12398;&#23550;&#23616;&#23653;&#27508;&#30906;&#35469;&#12289;&#23550;&#25126;&#12289;&#23550;&#23616;&#21066;&#38500;</text></g><rect fill="#FFE4E1" height="50.5438" rx="12.5" ry="12.5" style="stroke:#181818;stroke-width:0.5;" width="220" x="23" y="394.2719"/><text fill="#000000" font-family="Noto Sans CJK JP" font-size="14" lengthAdjust="spacing" textLength="182" x="42" y="415.5118">&#26032;&#12375;&#12356;&#12466;&#12540;&#12512;&#12434;&#38283;&#22987;&#12377;&#12427;&#30011;&#38754;</text><text fill="#000000" font-family="Noto Sans CJK JP" font-size="14" lengthAdjust="spacing" textLength="210" x="28" y="435.7838">&#40658;&#12289;&#30333;&#12398;&#12503;&#12524;&#12452;&#12516;&#12540;&#21517;&#12434;&#20837;&#21147;&#12377;&#12427;</text><rect fill="#FFE4E1" height="50.5438" rx="12.5" ry="12.5" style="stroke:#181818;stroke-width:0.5;" width="248" x="45" y="544.2719"/><text fill="#000000" font-family="Noto Sans CJK JP" font-size="14" lengthAdjust="spacing" textLength="84" x="127" y="565.5118">&#23550;&#25126;&#12377;&#12427;&#30011;&#38754;</text><text fill="#000000" font-family="Noto Sans CJK JP" font-size="14" lengthAdjust="spacing" textLength="238" x="50" y="585.7838">&#39378;&#12434;&#25171;&#12388;&#12289;&#12497;&#12473;&#12377;&#12427;&#12289;&#21213;&#25943;&#21028;&#23450;&#12434;&#34892;&#12358;</text><rect fill="#FFFFE0" height="50.5438" rx="12.5" ry="12.5" style="stroke:#181818;stroke-width:0.5;" width="234" x="278" y="394.2719"/><text fill="#000000" font-family="Noto Sans CJK JP" font-size="14" lengthAdjust="spacing" textLength="154" x="318" y="415.5118">&#23550;&#23616;&#23653;&#27508;&#12434;&#30906;&#35469;&#12377;&#12427;&#30011;&#38754;</text><text fill="#000000" font-family="Noto Sans CJK JP" font-size="14" lengthAdjust="spacing" textLength="224" x="283" y="435.7838">&#36942;&#21435;&#12398;&#12466;&#12540;&#12512;&#12398;&#12522;&#12473;&#12488;&#12364;&#34920;&#31034;&#12373;&#12428;&#12427;</text><rect fill="#FFE4E1" height="50.5438" rx="12.5" ry="12.5" style="stroke:#181818;stroke-width:0.5;" width="206" x="368" y="544.2719"/><text fill="#000000" font-family="Noto Sans CJK JP" font-size="14" lengthAdjust="spacing" textLength="140" x="401" y="565.5118">&#12466;&#12540;&#12512;&#12434;&#21066;&#38500;&#12377;&#12427;&#30011;&#38754;</text><text fill="#000000" font-family="Noto Sans CJK JP" font-size="14" lengthAdjust="spacing" textLength="196" x="373" y="585.7838">&#21066;&#38500;&#12377;&#12427;&#12508;&#12479;&#12531;&#12434;&#12463;&#12522;&#12483;&#12463;&#12377;&#12427;</text><ellipse cx="169" cy="667.2719" fill="none" rx="11" ry="11" style="stroke:#222222;stroke-width:1.0;"/><ellipse cx="169" cy="667.2719" fill="#222222" rx="6" ry="6" style="stroke:#222222;stroke-width:1.0;"/><ellipse cx="263" cy="57.2719" fill="#222222" rx="10" ry="10" style="stroke:#222222;stroke-width:1.0;"/><rect fill="#F1F1F1" height="40" rx="12.5" ry="12.5" style="stroke:#181818;stroke-width:0.5;" width="150" x="188" y="128.2719"/><text fill="#000000" font-family="Noto Sans CJK JP" font-size="14" lengthAdjust="spacing" textLength="140" x="193" y="154.3759">&#12525;&#12464;&#12452;&#12531;&#29992;&#12488;&#12483;&#12503;&#30011;&#38754;</text><rect fill="#ADD8E6" height="40" rx="12.5" ry="12.5" style="stroke:#181818;stroke-width:0.5;" width="150" x="188" y="248.2719"/><text fill="#000000" font-family="Noto Sans CJK JP" font-size="14" lengthAdjust="spacing" textLength="140" x="193" y="274.3759">&#12518;&#12540;&#12470;&#12540;&#29992;&#12488;&#12483;&#12503;&#30011;&#38754;</text><!--link *start* to notLogin--><g id="link_*start*_notLogin"><path d="M263,67.4619 C263,81.6719 263,103.2919 263,122.0119 " fill="none" id="*start*-to-notLogin" style="stroke:#181818;stroke-width:1.0;"/><polygon fill="#181818" points="263,128.0119,267,119.0119,263,123.0119,259,119.0119,263,128.0119" style="stroke:#181818;stroke-width:1.0;"/></g><!--link notLogin to user--><g id="link_notLogin_user"><path d="M263,168.4919 C263,190.4319 263,220.1219 263,242.0619 " fill="none" id="notLogin-to-user" style="stroke:#181818;stroke-width:1.0;"/><polygon fill="#181818" points="263,248.0619,267,239.0619,263,243.0619,259,239.0619,263,248.0619" style="stroke:#181818;stroke-width:1.0;"/><text fill="#000000" font-family="Noto Sans CJK JP" font-size="13" lengthAdjust="spacing" textLength="143" x="264" y="214.3519">&#12518;&#12540;&#12470;&#12540;&#12364;&#12525;&#12464;&#12452;&#12531;&#12377;&#12427;</text></g><!--link GameHistory to playGame--><g id="link_GameHistory_playGame"><path d="M277.87,440.0919 C254.5,448.0719 231.49,459.3419 213,475.2719 C192.2,493.1819 182.1893,517.3102 176.1793,538.4702 " fill="none" id="GameHistory-to-playGame" style="stroke:#181818;stroke-width:1.0;"/><polygon fill="#181818" points="174.54,544.2419,180.8468,536.6772,175.9061,539.4322,173.1512,534.4915,174.54,544.2419" style="stroke:#181818;stroke-width:1.0;"/><text fill="#000000" font-family="Noto Sans CJK JP" font-size="13" lengthAdjust="spacing" textLength="143" x="214" y="491.3519">&#12466;&#12540;&#12512;&#12398;&#12300;&#23550;&#23616;&#30011;&#38754;&#12408;&#12301;</text><text fill="#000000" font-family="Noto Sans CJK JP" font-size="13" lengthAdjust="spacing" textLength="104" x="233.5" y="510.1759">&#12522;&#12531;&#12463;&#12434;&#12463;&#12522;&#12483;&#12463;</text></g><!--link newGame to playGame--><g id="link_newGame_playGame"><path d="M82.56,445.4319 C71.51,453.3519 61.26,463.2619 55,475.2719 C46.99,490.6419 45.76,499.6119 55,514.2719 C62.95,526.8919 69.5381,533.6446 82.5381,541.1746 " fill="none" id="newGame-to-playGame" style="stroke:#181818;stroke-width:1.0;"/><polygon fill="#181818" points="87.73,544.1819,81.947,536.2097,83.4034,541.6758,77.9372,543.1322,87.73,544.1819" style="stroke:#181818;stroke-width:1.0;"/><text fill="#000000" font-family="Noto Sans CJK JP" font-size="13" lengthAdjust="spacing" textLength="91" x="56" y="500.8519">&#23550;&#23616;&#30011;&#38754;&#12395;&#31227;&#21205;</text></g><!--link GameHistory to deleteGame--><g id="link_GameHistory_deleteGame"><path d="M379.88,445.2919 C369.8,465.0719 360.49,493.0019 373,514.2719 C380.3,526.6919 386.4704,533.3205 398.8104,540.9705 " fill="none" id="GameHistory-to-deleteGame" style="stroke:#181818;stroke-width:1.0;"/><polygon fill="#181818" points="403.91,544.1319,398.3683,535.9901,399.6604,541.4974,394.1531,542.7895,403.91,544.1319" style="stroke:#181818;stroke-width:1.0;"/><text fill="#000000" font-family="Noto Sans CJK JP" font-size="13" lengthAdjust="spacing" textLength="104" x="374" y="491.3519">&#12466;&#12540;&#12512;&#12398;&#12300;&#21066;&#38500;&#12301;</text><text fill="#000000" font-family="Noto Sans CJK JP" font-size="13" lengthAdjust="spacing" textLength="104" x="374" y="510.1759">&#12522;&#12531;&#12463;&#12434;&#12463;&#12522;&#12483;&#12463;</text></g><!--link deleteGame to GameHistory--><g id="link_deleteGame_GameHistory"><path d="M481.9,544.1919 C488.93,524.3719 494.79,496.4319 483,475.2719 C476.18,463.0219 470.3573,456.4875 458.5873,448.7175 " fill="none" id="deleteGame-to-GameHistory" style="stroke:#181818;stroke-width:1.0;"/><polygon fill="#181818" points="453.58,445.4119,458.8872,453.7085,457.7528,448.1666,463.2947,447.0321,453.58,445.4119" style="stroke:#181818;stroke-width:1.0;"/><text fill="#000000" font-family="Noto Sans CJK JP" font-size="13" lengthAdjust="spacing" textLength="91" x="490" y="500.8519">&#12288;&#12466;&#12540;&#12512;&#21066;&#38500;&#24460;</text></g><!--link playGame to *end*GameUse--><g id="link_playGame_*end*GameUse"><path d="M169,595.3619 C169,615.0419 169,635.6319 169,650.0119 " fill="none" id="playGame-to-*end*GameUse" style="stroke:#181818;stroke-width:1.0;"/><polygon fill="#181818" points="169,656.0119,173,647.0119,169,651.0119,165,647.0119,169,656.0119" style="stroke:#181818;stroke-width:1.0;"/></g><!--link user to newGame--><g id="link_user_newGame"><path d="M246.27,288.5119 C222.82,315.4819 184.098,360.0151 158.348,389.6151 " fill="none" id="user-to-newGame" style="stroke:#181818;stroke-width:1.0;"/><polygon fill="#181818" points="154.41,394.1419,163.3349,389.977,157.6917,390.3696,157.2992,384.7264,154.41,394.1419" style="stroke:#181818;stroke-width:1.0;"/></g><!--link user to GameHistory--><g id="link_user_GameHistory"><path d="M279.99,288.5119 C303.8,315.4819 343.1484,360.0446 369.2884,389.6446 " fill="none" id="user-to-GameHistory" style="stroke:#181818;stroke-width:1.0;"/><polygon fill="#181818" points="373.26,394.1419,370.3008,384.7481,369.9503,390.3941,364.3043,390.0437,373.26,394.1419" style="stroke:#181818;stroke-width:1.0;"/></g><rect fill="#DDDDDD" height="70.8157" id="_legend" rx="7.5" ry="7.5" style="stroke:#000000;stroke-width:1.0;" width="323" x="12" y="711.2719"/><text fill="#000000" font-family="Noto Sans CJK JP" font-size="14" lengthAdjust="spacing" textLength="12" x="17" y="732.5118">1.</text><text fill="#000000" font-family="Noto Sans CJK JP" font-size="14" lengthAdjust="spacing" textLength="211" x="33" y="732.5118">LightBlue&#65288;&#38738;&#65289;: &#12518;&#12540;&#12470;&#12540;&#29992;&#30011;&#38754;</text><text fill="#000000" font-family="Noto Sans CJK JP" font-size="14" lengthAdjust="spacing" textLength="12" x="17" y="752.7838">2.</text><text fill="#000000" font-family="Noto Sans CJK JP" font-size="14" lengthAdjust="spacing" textLength="297" x="33" y="752.7838">MistyRose&#65288;&#12500;&#12531;&#12463;&#65289;: &#12518;&#12540;&#12470;&#12540;&#12395;&#12424;&#12427;&#25805;&#20316;&#30011;&#38754;</text><text fill="#000000" font-family="Noto Sans CJK JP" font-size="14" lengthAdjust="spacing" textLength="12" x="17" y="773.0557">3.</text><text fill="#000000" font-family="Noto Sans CJK JP" font-size="14" lengthAdjust="spacing" textLength="223" x="33" y="773.0557">LightYellow&#65288;&#40644;&#33394;&#65289;: &#34920;&#31034;&#31995;&#12398;&#30011;&#38754;</text><!--SRC=[VLJRJjj047tVhrZ1GwLA_G64U02fhIX5LQi-LAKF5bc2XR6Zs16AgagnJL524ah3JHIG6XGk3ULUzKA0VipKSVB4BtHsDtOSYCX3PEtEd7FcxCoOKwgUK9BAD8sn2IMbMOyDtHfLfXdj6JKiWxvIT9CE3J-ZmozwoAGQOvHD9wmqHflZIJLXgOPE2B5KIsCKd2euDN0FmTa6TmtSAlMNQysjxQRzoz-hUHldX6WiplGOrTY4HNf7rFYaDQYbsCrbjhbLkhdCzL5mTy6z1ESd_llB-nA0z3vNJIlzqZ1vABZBu9w3Stmd0Um3SBBWvEjBnNzNcq6ou7d3DCsOuKorsKRkJEGsolj-vS8_hu5zr0gMwhX8Gju-V4SVFHgWkc6D674LApKjnK9hH8qdu5HG1ue45pMvMBB4wA6AsSu9KphgwfQICbcIjaqX9C0G8iJjxN8BKILWhsFff1kZb_qcIClWvi7TmPCnlRvwqjZz1CuPZtA_DbVptbuUCdRJNl0Mk2FUyRLtcl5ET-g7F_pjYqQrYBTuMC_koWz-cvjlhbU4_2VODQzD5gc0lYSKVoqzo0Vs6jYp8IKufHQhK2wj6DERjHBY- -jNg47qqNTHNuNNiLZ49E_ZZZU_8PEasMo6izF-Vldm0mDHufRaJewz4WBLSqjWLv0CtC_W_94XlBRyLdrbpSjMlACl6DOe5y2U4qm9JKdVJnLQXeajrpgP0tlRDl0ogvmVcy8koAO4UmMSGb0WftoA8s0aqyWi8pgPewRAH-caZPw1kmdENp53wC8n9yTUn8-sep6cCOjrgpGgXVTbw0ZsPhIYJ46Q8GM0_HionJ5TSF7PlKNDaGLyy9Ite3kn3lWwoQzqrHDHVbUHDE4-8G8pWi4XenHzaCc4g1BFkow8h50kp-6xWtmWv05Ex8QC3jJlX_d-KTbVd4DjSaCICUDYuqWNsWSH2JZWuTAMZy_7R50PduedZPGU6p8q8zb-D1gkpcvHGIlHo8v4sVy1]--></g></svg>