<?xml version="1.0" encoding="us-ascii" standalone="no"?><svg xmlns="http://www.w3.org/2000/svg" xmlns:xlink="http://www.w3.org/1999/xlink" contentStyleType="text/css" height="926px" preserveAspectRatio="none" style="width:719px;height:926px;background:#FFFFFF;" version="1.1" viewBox="0 0 719 926" width="719px" zoomAndPan="magnify"><defs/><g><text fill="#000000" font-family="Noto Sans CJK JP" font-size="14" font-weight="bold" lengthAdjust="spacing" textLength="157" x="274" y="26.2399">&#12458;&#12475;&#12525;&#12450;&#12503;&#12522; &#30011;&#38754;&#36983;&#31227;&#22259;</text><!--cluster loginGameMenu--><g id="cluster_loginGameMenu"><path d="M19.5,439.2719 L618.5,439.2719 A12.5,12.5 0 0 1 631,451.7719 L631,484.8157 L7,484.8157 L7,451.7719 A12.5,12.5 0 0 1 19.5,439.2719 " fill="#ADD8E6" style="stroke:#ADD8E6;stroke-width:1.0;"/><rect fill="none" height="359" rx="12.5" ry="12.5" style="stroke:#181818;stroke-width:0.5;" width="624" x="7" y="439.2719"/><line style="stroke:#181818;stroke-width:0.5;" x1="7" x2="631" y1="484.8157" y2="484.8157"/><text fill="#000000" font-family="Noto Sans CJK JP" font-size="14" lengthAdjust="spacing" textLength="224" x="207" y="459.5118">&#12525;&#12464;&#12452;&#12531;&#12518;&#12540;&#12470;&#12540;&#29992;&#12466;&#12540;&#12512;&#12513;&#12491;&#12517;&#12540;</text><text fill="#000000" font-family="Noto Sans CJK JP" font-size="14" lengthAdjust="spacing" textLength="350" x="144" y="479.7838">&#26032;&#35215;&#12466;&#12540;&#12512;&#38283;&#22987;&#12289;&#36942;&#21435;&#12398;&#23550;&#23616;&#23653;&#27508;&#30906;&#35469;&#12289;&#23550;&#25126;&#12289;&#23550;&#23616;&#21066;&#38500;</text></g><!--cluster guestGameMenu--><g id="cluster_guestGameMenu"><path d="M358.5,48.2719 L613.5,48.2719 A12.5,12.5 0 0 1 626,60.7719 L626,93.8157 L346,93.8157 L346,60.7719 A12.5,12.5 0 0 1 358.5,48.2719 " fill="#90EE90" style="stroke:#90EE90;stroke-width:1.0;"/><rect fill="none" height="238" rx="12.5" ry="12.5" style="stroke:#181818;stroke-width:0.5;" width="280" x="346" y="48.2719"/><line style="stroke:#181818;stroke-width:0.5;" x1="346" x2="626" y1="93.8157" y2="93.8157"/><text fill="#000000" font-family="Noto Sans CJK JP" font-size="14" lengthAdjust="spacing" textLength="210" x="381" y="68.5118">&#12466;&#12473;&#12488;&#12518;&#12540;&#12470;&#12540;&#29992;&#12466;&#12540;&#12512;&#12513;&#12491;&#12517;&#12540;</text><text fill="#000000" font-family="Noto Sans CJK JP" font-size="14" lengthAdjust="spacing" textLength="140" x="416" y="88.7838">&#26032;&#35215;&#12466;&#12540;&#12512;&#38283;&#22987;&#12289;&#23550;&#25126;</text></g><rect fill="#FFE4E1" height="50.5438" rx="12.5" ry="12.5" style="stroke:#181818;stroke-width:0.5;" width="220" x="23" y="498.2719"/><text fill="#000000" font-family="Noto Sans CJK JP" font-size="14" lengthAdjust="spacing" textLength="182" x="42" y="519.5118">&#26032;&#12375;&#12356;&#12466;&#12540;&#12512;&#12434;&#38283;&#22987;&#12377;&#12427;&#30011;&#38754;</text><text fill="#000000" font-family="Noto Sans CJK JP" font-size="14" lengthAdjust="spacing" textLength="210" x="28" y="539.7838">&#40658;&#12289;&#30333;&#12398;&#12503;&#12524;&#12452;&#12516;&#12540;&#21517;&#12434;&#20837;&#21147;&#12377;&#12427;</text><rect fill="#FFE4E1" height="50.5438" rx="12.5" ry="12.5" style="stroke:#181818;stroke-width:0.5;" width="248" x="45" y="648.2719"/><text fill="#000000" font-family="Noto Sans CJK JP" font-size="14" lengthAdjust="spacing" textLength="84" x="127" y="669.5118">&#23550;&#25126;&#12377;&#12427;&#30011;&#38754;</text><text fill="#000000" font-family="Noto Sans CJK JP" font-size="14" lengthAdjust="spacing" textLength="238" x="50" y="689.7838">&#39378;&#12434;&#25171;&#12388;&#12289;&#12497;&#12473;&#12377;&#12427;&#12289;&#21213;&#25943;&#21028;&#23450;&#12434;&#34892;&#12358;</text><rect fill="#FFFFE0" height="50.5438" rx="12.5" ry="12.5" style="stroke:#181818;stroke-width:0.5;" width="234" x="278" y="498.2719"/><text fill="#000000" font-family="Noto Sans CJK JP" font-size="14" lengthAdjust="spacing" textLength="154" x="318" y="519.5118">&#23550;&#23616;&#23653;&#27508;&#12434;&#30906;&#35469;&#12377;&#12427;&#30011;&#38754;</text><text fill="#000000" font-family="Noto Sans CJK JP" font-size="14" lengthAdjust="spacing" textLength="224" x="283" y="539.7838">&#36942;&#21435;&#12398;&#12466;&#12540;&#12512;&#12398;&#12522;&#12473;&#12488;&#12364;&#34920;&#31034;&#12373;&#12428;&#12427;</text><rect fill="#FFE4E1" height="50.5438" rx="12.5" ry="12.5" style="stroke:#181818;stroke-width:0.5;" width="206" x="368" y="648.2719"/><text fill="#000000" font-family="Noto Sans CJK JP" font-size="14" lengthAdjust="spacing" textLength="140" x="401" y="669.5118">&#12466;&#12540;&#12512;&#12434;&#21066;&#38500;&#12377;&#12427;&#30011;&#38754;</text><text fill="#000000" font-family="Noto Sans CJK JP" font-size="14" lengthAdjust="spacing" textLength="196" x="373" y="689.7838">&#21066;&#38500;&#12377;&#12427;&#12508;&#12479;&#12531;&#12434;&#12463;&#12522;&#12483;&#12463;&#12377;&#12427;</text><ellipse cx="169" cy="771.2719" fill="none" rx="11" ry="11" style="stroke:#222222;stroke-width:1.0;"/><ellipse cx="169" cy="771.2719" fill="#222222" rx="6" ry="6" style="stroke:#222222;stroke-width:1.0;"/><rect fill="#FFE4E1" height="50.5438" rx="12.5" ry="12.5" style="stroke:#181818;stroke-width:0.5;" width="220" x="383" y="107.2719"/><text fill="#000000" font-family="Noto Sans CJK JP" font-size="14" lengthAdjust="spacing" textLength="182" x="402" y="128.5118">&#26032;&#12375;&#12356;&#12466;&#12540;&#12512;&#12434;&#38283;&#22987;&#12377;&#12427;&#30011;&#38754;</text><text fill="#000000" font-family="Noto Sans CJK JP" font-size="14" lengthAdjust="spacing" textLength="210" x="388" y="148.7838">&#40658;&#12289;&#30333;&#12398;&#12503;&#12524;&#12452;&#12516;&#12540;&#21517;&#12434;&#20837;&#21147;&#12377;&#12427;</text><rect fill="#FFE4E1" height="50.5438" rx="12.5" ry="12.5" style="stroke:#181818;stroke-width:0.5;" width="248" x="362" y="219.2719"/><text fill="#000000" font-family="Noto Sans CJK JP" font-size="14" lengthAdjust="spacing" textLength="84" x="444" y="240.5118">&#23550;&#25126;&#12377;&#12427;&#30011;&#38754;</text><text fill="#000000" font-family="Noto Sans CJK JP" font-size="14" lengthAdjust="spacing" textLength="238" x="367" y="260.7838">&#39378;&#12434;&#25171;&#12388;&#12289;&#12497;&#12473;&#12377;&#12427;&#12289;&#21213;&#25943;&#21028;&#23450;&#12434;&#34892;&#12358;</text><ellipse cx="193" cy="132.7719" fill="#222222" rx="10" ry="10" style="stroke:#222222;stroke-width:1.0;"/><rect fill="#F1F1F1" height="50.5438" rx="12.5" ry="12.5" style="stroke:#181818;stroke-width:0.5;" width="191" x="97.5" y="219.2719"/><text fill="#000000" font-family="Noto Sans CJK JP" font-size="14" lengthAdjust="spacing" textLength="112" x="137" y="240.5118">&#12518;&#12540;&#12470;&#12540;&#36984;&#25246;&#30011;&#38754;</text><text fill="#000000" font-family="Noto Sans CJK JP" font-size="14" lengthAdjust="spacing" textLength="181" x="102.5" y="260.7838">&#12525;&#12464;&#12452;&#12531;or&#12466;&#12473;&#12488;&#12434;&#36984;&#25246;&#12377;&#12427;</text><rect fill="#ADD8E6" height="40" rx="12.5" ry="12.5" style="stroke:#181818;stroke-width:0.5;" width="150" x="85" y="352.2719"/><text fill="#000000" font-family="Noto Sans CJK JP" font-size="14" lengthAdjust="spacing" textLength="140" x="90" y="378.3759">&#12518;&#12540;&#12470;&#12540;&#29992;&#12488;&#12483;&#12503;&#30011;&#38754;</text><rect fill="#90EE90" height="40" rx="12.5" ry="12.5" style="stroke:#181818;stroke-width:0.5;" width="192" x="521" y="352.2719"/><text fill="#000000" font-family="Noto Sans CJK JP" font-size="14" lengthAdjust="spacing" textLength="182" x="526" y="378.3759">&#12466;&#12473;&#12488;&#12518;&#12540;&#12470;&#12540;&#29992;&#12488;&#12483;&#12503;&#30011;&#38754;</text><!--link *start* to notLogin--><g id="link_*start*_notLogin"><path d="M193,142.7719 C193,159.2919 193,188.9819 193,213.1919 " fill="none" id="*start*-to-notLogin" style="stroke:#181818;stroke-width:1.0;"/><polygon fill="#181818" points="193,219.1919,197,210.1919,193,214.1919,189,210.1919,193,219.1919" style="stroke:#181818;stroke-width:1.0;"/></g><!--link notLogin to user--><g id="link_notLogin_user"><path d="M173,270.4219 C166.58,279.8219 160.29,290.9919 157,302.2719 C152.23,318.6219 152.7408,332.1359 154.9708,346.2059 " fill="none" id="notLogin-to-user" style="stroke:#181818;stroke-width:1.0;"/><polygon fill="#181818" points="155.91,352.1319,158.4518,342.6167,155.1273,347.1936,150.5505,343.869,155.91,352.1319" style="stroke:#181818;stroke-width:1.0;"/><text fill="#000000" font-family="Noto Sans CJK JP" font-size="13" lengthAdjust="spacing" textLength="143" x="158" y="318.3519">&#12518;&#12540;&#12470;&#12540;&#12364;&#12525;&#12464;&#12452;&#12531;&#12377;&#12427;</text></g><!--link GameHistory to playGame--><g id="link_GameHistory_playGame"><path d="M277.87,544.0919 C254.5,552.0719 231.49,563.3419 213,579.2719 C192.2,597.1819 182.1893,621.3102 176.1793,642.4702 " fill="none" id="GameHistory-to-playGame" style="stroke:#181818;stroke-width:1.0;"/><polygon fill="#181818" points="174.54,648.2419,180.8468,640.6772,175.9061,643.4322,173.1512,638.4915,174.54,648.2419" style="stroke:#181818;stroke-width:1.0;"/><text fill="#000000" font-family="Noto Sans CJK JP" font-size="13" lengthAdjust="spacing" textLength="143" x="214" y="595.3519">&#12466;&#12540;&#12512;&#12398;&#12300;&#23550;&#23616;&#30011;&#38754;&#12408;&#12301;</text><text fill="#000000" font-family="Noto Sans CJK JP" font-size="13" lengthAdjust="spacing" textLength="104" x="233.5" y="614.1759">&#12522;&#12531;&#12463;&#12434;&#12463;&#12522;&#12483;&#12463;</text></g><!--link newGame to playGame--><g id="link_newGame_playGame"><path d="M82.56,549.4319 C71.51,557.3519 61.26,567.2619 55,579.2719 C46.99,594.6419 45.76,603.6119 55,618.2719 C62.95,630.8919 69.5381,637.6446 82.5381,645.1746 " fill="none" id="newGame-to-playGame" style="stroke:#181818;stroke-width:1.0;"/><polygon fill="#181818" points="87.73,648.1819,81.947,640.2097,83.4034,645.6758,77.9372,647.1322,87.73,648.1819" style="stroke:#181818;stroke-width:1.0;"/><text fill="#000000" font-family="Noto Sans CJK JP" font-size="13" lengthAdjust="spacing" textLength="91" x="56" y="604.8519">&#23550;&#23616;&#30011;&#38754;&#12395;&#31227;&#21205;</text></g><!--link GameHistory to deleteGame--><g id="link_GameHistory_deleteGame"><path d="M379.88,549.2919 C369.8,569.0719 360.49,597.0019 373,618.2719 C380.3,630.6919 386.4704,637.3205 398.8104,644.9705 " fill="none" id="GameHistory-to-deleteGame" style="stroke:#181818;stroke-width:1.0;"/><polygon fill="#181818" points="403.91,648.1319,398.3683,639.9901,399.6604,645.4974,394.1531,646.7895,403.91,648.1319" style="stroke:#181818;stroke-width:1.0;"/><text fill="#000000" font-family="Noto Sans CJK JP" font-size="13" lengthAdjust="spacing" textLength="104" x="374" y="595.3519">&#12466;&#12540;&#12512;&#12398;&#12300;&#21066;&#38500;&#12301;</text><text fill="#000000" font-family="Noto Sans CJK JP" font-size="13" lengthAdjust="spacing" textLength="104" x="374" y="614.1759">&#12522;&#12531;&#12463;&#12434;&#12463;&#12522;&#12483;&#12463;</text></g><!--link deleteGame to GameHistory--><g id="link_deleteGame_GameHistory"><path d="M481.9,648.1919 C488.93,628.3719 494.79,600.4319 483,579.2719 C476.18,567.0219 470.3573,560.4875 458.5873,552.7175 " fill="none" id="deleteGame-to-GameHistory" style="stroke:#181818;stroke-width:1.0;"/><polygon fill="#181818" points="453.58,549.4119,458.8872,557.7085,457.7528,552.1666,463.2947,551.0321,453.58,549.4119" style="stroke:#181818;stroke-width:1.0;"/><text fill="#000000" font-family="Noto Sans CJK JP" font-size="13" lengthAdjust="spacing" textLength="91" x="490" y="604.8519">&#12288;&#12466;&#12540;&#12512;&#21066;&#38500;&#24460;</text></g><!--link playGame to *end*loginGameMenu--><g id="link_playGame_*end*loginGameMenu"><path d="M169,699.3619 C169,719.0419 169,739.6319 169,754.0119 " fill="none" id="playGame-to-*end*loginGameMenu" style="stroke:#181818;stroke-width:1.0;"/><polygon fill="#181818" points="169,760.0119,173,751.0119,169,755.0119,165,751.0119,169,760.0119" style="stroke:#181818;stroke-width:1.0;"/></g><!--link user to newGame--><g id="link_user_newGame"><path d="M156.53,392.5119 C151.65,419.4819 143.8552,462.6372 138.5152,492.2372 " fill="none" id="user-to-newGame" style="stroke:#181818;stroke-width:1.0;"/><polygon fill="#181818" points="137.45,498.1419,142.9843,489.995,138.3377,493.2213,135.1114,488.5747,137.45,498.1419" style="stroke:#181818;stroke-width:1.0;"/></g><!--link user to GameHistory--><g id="link_user_GameHistory"><path d="M194.99,392.4819 C214.61,403.4719 239.42,417.7319 261,431.2719 C295.48,452.9019 328.8253,475.8059 355.6053,494.6759 " fill="none" id="user-to-GameHistory" style="stroke:#181818;stroke-width:1.0;"/><polygon fill="#181818" points="360.51,498.1319,355.457,489.6781,356.4228,495.2519,350.849,496.2177,360.51,498.1319" style="stroke:#181818;stroke-width:1.0;"/></g><!--link notLogin to guestUserTop--><g id="link_notLogin_guestUserTop"><path d="M244.73,270.3519 C264.15,279.9119 286.3,291.2219 306,302.2719 C320.63,310.4719 322.34,316.2619 338,322.2719 C396.54,344.7219 460.0232,356.2532 514.9732,362.8832 " fill="none" id="notLogin-to-guestUserTop" style="stroke:#181818;stroke-width:1.0;"/><polygon fill="#181818" points="520.93,363.6019,512.4739,358.5526,515.966,363.003,511.5157,366.495,520.93,363.6019" style="stroke:#181818;stroke-width:1.0;"/><text fill="#000000" font-family="Noto Sans CJK JP" font-size="13" lengthAdjust="spacing" textLength="247" x="339" y="318.3519">&#12466;&#12473;&#12488;&#12518;&#12540;&#12470;&#12540;&#12392;&#12375;&#12390;&#12458;&#12475;&#12525;&#12434;&#12503;&#12524;&#12452;&#12377;&#12427;</text></g><!--link newGuestGame to playGuestGame--><g id="link_newGuestGame_playGuestGame"><path d="M491.43,158.4619 C490.28,176.5719 489.1004,195.084 487.9504,213.184 " fill="none" id="newGuestGame-to-playGuestGame" style="stroke:#181818;stroke-width:1.0;"/><polygon fill="#181818" points="487.57,219.1719,492.1326,210.4437,487.887,214.182,484.1487,209.9364,487.57,219.1719" style="stroke:#181818;stroke-width:1.0;"/></g><!--link guestUserTop to newGuestGame--><g id="link_guestUserTop_newGuestGame"><path d="M624.69,352.0819 C635.52,321.7819 651.47,261.9219 628,219.2719 C612.88,191.8119 590.1511,174.6656 563.5011,161.0256 " fill="none" id="guestUserTop-to-newGuestGame" style="stroke:#181818;stroke-width:1.0;"/><polygon fill="#181818" points="558.16,158.2919,564.3492,165.9531,562.6109,160.57,567.9941,158.8317,558.16,158.2919" style="stroke:#181818;stroke-width:1.0;"/></g><!--link playGuestGame to guestUserTop--><g id="link_playGuestGame_guestUserTop"><path d="M553.56,270.3819 C568.87,278.5719 583.87,289.0719 595,302.2719 C606.92,316.4019 611.4117,331.1339 613.9217,346.1639 " fill="none" id="playGuestGame-to-guestUserTop" style="stroke:#181818;stroke-width:1.0;"/><polygon fill="#181818" points="614.91,352.0819,617.3729,342.546,614.0864,347.1502,609.4822,343.8637,614.91,352.0819" style="stroke:#181818;stroke-width:1.0;"/></g><rect fill="#DDDDDD" height="91.0876" id="_legend" rx="7.5" ry="7.5" style="stroke:#000000;stroke-width:1.0;" width="323" x="12" y="815.2719"/><text fill="#000000" font-family="Noto Sans CJK JP" font-size="14" lengthAdjust="spacing" textLength="12" x="17" y="836.5118">1.</text><text fill="#000000" font-family="Noto Sans CJK JP" font-size="14" lengthAdjust="spacing" textLength="211" x="33" y="836.5118">LightBlue&#65288;&#38738;&#65289;: &#12518;&#12540;&#12470;&#12540;&#29992;&#30011;&#38754;</text><text fill="#000000" font-family="Noto Sans CJK JP" font-size="14" lengthAdjust="spacing" textLength="12" x="17" y="856.7838">2.</text><text fill="#000000" font-family="Noto Sans CJK JP" font-size="14" lengthAdjust="spacing" textLength="277" x="33" y="856.7838">LightGreen&#65288;&#40644;&#32209;&#65289;: &#12466;&#12473;&#12488;&#12518;&#12540;&#12470;&#12540;&#29992;&#30011;&#38754;</text><text fill="#000000" font-family="Noto Sans CJK JP" font-size="14" lengthAdjust="spacing" textLength="12" x="17" y="877.0557">3.</text><text fill="#000000" font-family="Noto Sans CJK JP" font-size="14" lengthAdjust="spacing" textLength="297" x="33" y="877.0557">MistyRose&#65288;&#12500;&#12531;&#12463;&#65289;: &#12518;&#12540;&#12470;&#12540;&#12395;&#12424;&#12427;&#25805;&#20316;&#30011;&#38754;</text><text fill="#000000" font-family="Noto Sans CJK JP" font-size="14" lengthAdjust="spacing" textLength="12" x="17" y="897.3276">4.</text><text fill="#000000" font-family="Noto Sans CJK JP" font-size="14" lengthAdjust="spacing" textLength="223" x="33" y="897.3276">LightYellow&#65288;&#40644;&#33394;&#65289;: &#34920;&#31034;&#31995;&#12398;&#30011;&#38754;</text><!--SRC=[lLRRJzDG67_lNt623oOc_WE4yA296aHYl3mOzQ5nXx5GscNjGeWnMLirWss8unP4LCYuEEKcnWi3_MC-ksvF_Wj-vvorFHs5n0TTbcLhl_FzBjzbDKSpUbRDgMCaHOVLl6PTCNHhI1sZf6V8i0noMzLDSddWEXcusQECP5AKqB6iDO7HvgDS9cjb35rH52jZQPI0KmUd0UusE6lWBe9R9_vSexsorhQ_-fiDR_b0KJIQfdgAQ7JOKiuDPj8ZrYKjJtyV5TihrTz7axq4t0rmZy3vWf_-t9P8q0czcgDKPx6Df_xNboBS-GJETt2BfvoxaJ6jYLk6oI30dGFt09pT4q1WVm2d24wfELlvTVmw1dgFQfenBb1Rav_usTRgbbyxz0yQOEzqWeKg9avHxbzuI2vUx2UwOGqQwGmwP5ggXPRAc6txMtFgZJZzGEUkxO5JGuP6BbBbL4KSs4j8huUePfGr8IagvrwuwBz8pO_aJPeZaTrOiVD4HenxiTDy_xRb7Yi14DV2KtIxLeubuHGbhSdv6KMKXp_TT-2kWbi2Tnr_Fj2R2tkjZHVXpVP2oTiiGS5kszFUDBFQs_tXxHUy_VNczcT_xR1Lh-1TlDWiReWlxExaL7kfnbLhZFnLxEKRLCzByibZXU2hmnDHmLu4-sd42aqNs5nHKA9seuee_j8nCk7j_P6Bm_UHDrF1GzwpTMzgMQuK7MVmfAzFz5L_lmpS8Hx7sAnYekRaBDWr10Ft9Ui37i8KbbQQyujUiURjlCAmrcePxESSAQkf4sT3XSRXmOvtSUJ0vCW69hFUwKExB7eUx7bmoe501daD9yp8JI2oY8WZowQAqiHXvMlWlWRd9nzHT66NWMCZuvV8qHJLg4MJbCfKMB-6ZeWT4Iegb8KPWW3Otw1GOUDN5wkX2vfbvkc3KdQbZkVwmBPSQJwHZyJy92DXmbb4U4uf1qifG_H2eH1c5Vcy7sL-AgJBph3Lf3mHyxyieWFsqLZwEwl-p7Fa9XQtmcUVBpJXGdH1ei1p9ctZQA58FP6qivCsLpfFJUikmjqniaJw5o3nxHGBwpsDnnOVz0tfVweQ3NBNzZgDuz-jBZ7ZaPAkRIIai7NqVvPHG24-FFzg7oMZnNXWxMAXs9gnKWPD5zwF9pvHUgnV-40ZP35pBwcFHjCv8w-dBXkQaOleaF3n82ags6T4UWv0Wdy0]--></g></svg>