<?xml version="1.0" encoding="us-ascii" standalone="no"?><svg xmlns="http://www.w3.org/2000/svg" xmlns:xlink="http://www.w3.org/1999/xlink" contentStyleType="text/css" height="1027px" preserveAspectRatio="none" style="width:692px;height:1027px;background:#FFFFFF;" version="1.1" viewBox="0 0 692 1027" width="692px" zoomAndPan="magnify"><defs/><g><text fill="#000000" font-family="Noto Sans CJK JP" font-size="14" font-weight="bold" lengthAdjust="spacing" textLength="157" x="260.525" y="26.2399">&#12458;&#12475;&#12525;&#12450;&#12503;&#12522; &#30011;&#38754;&#36983;&#31227;&#22259;</text><!--cluster loginGameMenu--><g id="cluster_loginGameMenu"><path d="M59.5,540.2719 L658.5,540.2719 A12.5,12.5 0 0 1 671,552.7719 L671,585.8157 L47,585.8157 L47,552.7719 A12.5,12.5 0 0 1 59.5,540.2719 " fill="#ADD8E6" style="stroke:#ADD8E6;stroke-width:1.0;"/><rect fill="none" height="359" rx="12.5" ry="12.5" style="stroke:#181818;stroke-width:0.5;" width="624" x="47" y="540.2719"/><line style="stroke:#181818;stroke-width:0.5;" x1="47" x2="671" y1="585.8157" y2="585.8157"/><text fill="#000000" font-family="Noto Sans CJK JP" font-size="14" lengthAdjust="spacing" textLength="224" x="247" y="560.5118">&#12525;&#12464;&#12452;&#12531;&#12518;&#12540;&#12470;&#12540;&#29992;&#12466;&#12540;&#12512;&#12513;&#12491;&#12517;&#12540;</text><text fill="#000000" font-family="Noto Sans CJK JP" font-size="14" lengthAdjust="spacing" textLength="350" x="184" y="580.7838">&#26032;&#35215;&#12466;&#12540;&#12512;&#38283;&#22987;&#12289;&#36942;&#21435;&#12398;&#23550;&#23616;&#23653;&#27508;&#30906;&#35469;&#12289;&#23550;&#25126;&#12289;&#23550;&#23616;&#21066;&#38500;</text></g><!--cluster guestGameMenu--><g id="cluster_guestGameMenu"><path d="M398.5,48.2719 L653.5,48.2719 A12.5,12.5 0 0 1 666,60.7719 L666,93.8157 L386,93.8157 L386,60.7719 A12.5,12.5 0 0 1 398.5,48.2719 " fill="#90EE90" style="stroke:#90EE90;stroke-width:1.0;"/><rect fill="none" height="238" rx="12.5" ry="12.5" style="stroke:#181818;stroke-width:0.5;" width="280" x="386" y="48.2719"/><line style="stroke:#181818;stroke-width:0.5;" x1="386" x2="666" y1="93.8157" y2="93.8157"/><text fill="#000000" font-family="Noto Sans CJK JP" font-size="14" lengthAdjust="spacing" textLength="210" x="421" y="68.5118">&#12466;&#12473;&#12488;&#12518;&#12540;&#12470;&#12540;&#29992;&#12466;&#12540;&#12512;&#12513;&#12491;&#12517;&#12540;</text><text fill="#000000" font-family="Noto Sans CJK JP" font-size="14" lengthAdjust="spacing" textLength="140" x="456" y="88.7838">&#26032;&#35215;&#12466;&#12540;&#12512;&#38283;&#22987;&#12289;&#23550;&#25126;</text></g><rect fill="#FFE4E1" height="50.5438" rx="12.5" ry="12.5" style="stroke:#181818;stroke-width:0.5;" width="220" x="63" y="599.2719"/><text fill="#000000" font-family="Noto Sans CJK JP" font-size="14" lengthAdjust="spacing" textLength="182" x="82" y="620.5118">&#26032;&#12375;&#12356;&#12466;&#12540;&#12512;&#12434;&#38283;&#22987;&#12377;&#12427;&#30011;&#38754;</text><text fill="#000000" font-family="Noto Sans CJK JP" font-size="14" lengthAdjust="spacing" textLength="210" x="68" y="640.7838">&#40658;&#12289;&#30333;&#12398;&#12503;&#12524;&#12452;&#12516;&#12540;&#21517;&#12434;&#20837;&#21147;&#12377;&#12427;</text><rect fill="#FFE4E1" height="50.5438" rx="12.5" ry="12.5" style="stroke:#181818;stroke-width:0.5;" width="248" x="85" y="749.2719"/><text fill="#000000" font-family="Noto Sans CJK JP" font-size="14" lengthAdjust="spacing" textLength="84" x="167" y="770.5118">&#23550;&#25126;&#12377;&#12427;&#30011;&#38754;</text><text fill="#000000" font-family="Noto Sans CJK JP" font-size="14" lengthAdjust="spacing" textLength="238" x="90" y="790.7838">&#39378;&#12434;&#25171;&#12388;&#12289;&#12497;&#12473;&#12377;&#12427;&#12289;&#21213;&#25943;&#21028;&#23450;&#12434;&#34892;&#12358;</text><rect fill="#FFFFE0" height="50.5438" rx="12.5" ry="12.5" style="stroke:#181818;stroke-width:0.5;" width="234" x="318" y="599.2719"/><text fill="#000000" font-family="Noto Sans CJK JP" font-size="14" lengthAdjust="spacing" textLength="154" x="358" y="620.5118">&#23550;&#23616;&#23653;&#27508;&#12434;&#30906;&#35469;&#12377;&#12427;&#30011;&#38754;</text><text fill="#000000" font-family="Noto Sans CJK JP" font-size="14" lengthAdjust="spacing" textLength="224" x="323" y="640.7838">&#36942;&#21435;&#12398;&#12466;&#12540;&#12512;&#12398;&#12522;&#12473;&#12488;&#12364;&#34920;&#31034;&#12373;&#12428;&#12427;</text><rect fill="#FFE4E1" height="50.5438" rx="12.5" ry="12.5" style="stroke:#181818;stroke-width:0.5;" width="206" x="408" y="749.2719"/><text fill="#000000" font-family="Noto Sans CJK JP" font-size="14" lengthAdjust="spacing" textLength="140" x="441" y="770.5118">&#12466;&#12540;&#12512;&#12434;&#21066;&#38500;&#12377;&#12427;&#30011;&#38754;</text><text fill="#000000" font-family="Noto Sans CJK JP" font-size="14" lengthAdjust="spacing" textLength="196" x="413" y="790.7838">&#21066;&#38500;&#12377;&#12427;&#12508;&#12479;&#12531;&#12434;&#12463;&#12522;&#12483;&#12463;&#12377;&#12427;</text><ellipse cx="209" cy="872.2719" fill="none" rx="11" ry="11" style="stroke:#222222;stroke-width:1.0;"/><ellipse cx="209" cy="872.2719" fill="#222222" rx="6" ry="6" style="stroke:#222222;stroke-width:1.0;"/><rect fill="#FFE4E1" height="50.5438" rx="12.5" ry="12.5" style="stroke:#181818;stroke-width:0.5;" width="220" x="423" y="107.2719"/><text fill="#000000" font-family="Noto Sans CJK JP" font-size="14" lengthAdjust="spacing" textLength="182" x="442" y="128.5118">&#26032;&#12375;&#12356;&#12466;&#12540;&#12512;&#12434;&#38283;&#22987;&#12377;&#12427;&#30011;&#38754;</text><text fill="#000000" font-family="Noto Sans CJK JP" font-size="14" lengthAdjust="spacing" textLength="210" x="428" y="148.7838">&#40658;&#12289;&#30333;&#12398;&#12503;&#12524;&#12452;&#12516;&#12540;&#21517;&#12434;&#20837;&#21147;&#12377;&#12427;</text><rect fill="#FFE4E1" height="50.5438" rx="12.5" ry="12.5" style="stroke:#181818;stroke-width:0.5;" width="248" x="402" y="219.2719"/><text fill="#000000" font-family="Noto Sans CJK JP" font-size="14" lengthAdjust="spacing" textLength="84" x="484" y="240.5118">&#23550;&#25126;&#12377;&#12427;&#30011;&#38754;</text><text fill="#000000" font-family="Noto Sans CJK JP" font-size="14" lengthAdjust="spacing" textLength="238" x="407" y="260.7838">&#39378;&#12434;&#25171;&#12388;&#12289;&#12497;&#12473;&#12377;&#12427;&#12289;&#21213;&#25943;&#21028;&#23450;&#12434;&#34892;&#12358;</text><ellipse cx="187" cy="132.7719" fill="#222222" rx="10" ry="10" style="stroke:#222222;stroke-width:1.0;"/><rect fill="#F1F1F1" height="50.5438" rx="12.5" ry="12.5" style="stroke:#181818;stroke-width:0.5;" width="360" x="7" y="219.2719"/><text fill="#000000" font-family="Noto Sans CJK JP" font-size="14" lengthAdjust="spacing" textLength="112" x="131" y="240.5118">&#12518;&#12540;&#12470;&#12540;&#36984;&#25246;&#30011;&#38754;</text><text fill="#000000" font-family="Noto Sans CJK JP" font-size="14" lengthAdjust="spacing" textLength="350" x="12" y="260.7838">&#12525;&#12464;&#12452;&#12531;&#12289;&#12469;&#12452;&#12531;&#12450;&#12483;&#12503;&#12289;&#12466;&#12473;&#12488;&#12398;&#12356;&#12378;&#12428;&#12363;&#12434;&#36984;&#25246;&#12377;&#12427;</text><rect fill="#F1F1F1" height="40" rx="12.5" ry="12.5" style="stroke:#181818;stroke-width:0.5;" width="94" x="140" y="352.2719"/><text fill="#000000" font-family="Noto Sans CJK JP" font-size="14" lengthAdjust="spacing" textLength="84" x="145" y="378.3759">&#12525;&#12464;&#12452;&#12531;&#30011;&#38754;</text><rect fill="#ADD8E6" height="40" rx="12.5" ry="12.5" style="stroke:#181818;stroke-width:0.5;" width="206" x="84" y="453.2719"/><text fill="#000000" font-family="Noto Sans CJK JP" font-size="14" lengthAdjust="spacing" textLength="196" x="89" y="479.3759">&#12525;&#12464;&#12452;&#12531;&#12518;&#12540;&#12470;&#12540;&#29992;&#12488;&#12483;&#12503;&#30011;&#38754;</text><rect fill="#90EE90" height="40" rx="12.5" ry="12.5" style="stroke:#181818;stroke-width:0.5;" width="192" x="430" y="352.2719"/><text fill="#000000" font-family="Noto Sans CJK JP" font-size="14" lengthAdjust="spacing" textLength="182" x="435" y="378.3759">&#12466;&#12473;&#12488;&#12518;&#12540;&#12470;&#12540;&#29992;&#12488;&#12483;&#12503;&#30011;&#38754;</text><!--link *start* to notLogin--><g id="link_*start*_notLogin"><path d="M187,142.7719 C187,159.2919 187,188.9819 187,213.1919 " fill="none" id="*start*-to-notLogin" style="stroke:#181818;stroke-width:1.0;"/><polygon fill="#181818" points="187,219.1919,191,210.1919,187,214.1919,183,210.1919,187,219.1919" style="stroke:#181818;stroke-width:1.0;"/></g><!--link notLogin to login--><g id="link_notLogin_login"><path d="M187,270.5619 C187,294.5719 187,324.4419 187,346.2619 " fill="none" id="notLogin-to-login" style="stroke:#181818;stroke-width:1.0;"/><polygon fill="#181818" points="187,352.2619,191,343.2619,187,347.2619,183,343.2619,187,352.2619" style="stroke:#181818;stroke-width:1.0;"/><text fill="#000000" font-family="Noto Sans CJK JP" font-size="13" lengthAdjust="spacing" textLength="91" x="188" y="318.3519">&#12525;&#12464;&#12452;&#12531;&#12434;&#36984;&#25246;</text></g><!--link login to user--><g id="link_login_user"><path d="M187,392.3619 C187,409.8919 187,429.7319 187,447.2419 " fill="none" id="login-to-user" style="stroke:#181818;stroke-width:1.0;"/><polygon fill="#181818" points="187,453.2419,191,444.2419,187,448.2419,183,444.2419,187,453.2419" style="stroke:#181818;stroke-width:1.0;"/></g><!--link GameHistory to playGame--><g id="link_GameHistory_playGame"><path d="M317.87,645.0919 C294.5,653.0719 271.49,664.3419 253,680.2719 C232.2,698.1819 222.1893,722.3102 216.1793,743.4702 " fill="none" id="GameHistory-to-playGame" style="stroke:#181818;stroke-width:1.0;"/><polygon fill="#181818" points="214.54,749.2419,220.8468,741.6772,215.9061,744.4322,213.1512,739.4915,214.54,749.2419" style="stroke:#181818;stroke-width:1.0;"/><text fill="#000000" font-family="Noto Sans CJK JP" font-size="13" lengthAdjust="spacing" textLength="143" x="254" y="696.3519">&#12466;&#12540;&#12512;&#12398;&#12300;&#23550;&#23616;&#30011;&#38754;&#12408;&#12301;</text><text fill="#000000" font-family="Noto Sans CJK JP" font-size="13" lengthAdjust="spacing" textLength="104" x="273.5" y="715.1759">&#12522;&#12531;&#12463;&#12434;&#12463;&#12522;&#12483;&#12463;</text></g><!--link newGame to playGame--><g id="link_newGame_playGame"><path d="M122.56,650.4319 C111.51,658.3519 101.26,668.2619 95,680.2719 C86.99,695.6419 85.76,704.6119 95,719.2719 C102.95,731.8919 109.5381,738.6446 122.5381,746.1746 " fill="none" id="newGame-to-playGame" style="stroke:#181818;stroke-width:1.0;"/><polygon fill="#181818" points="127.73,749.1819,121.947,741.2097,123.4034,746.6758,117.9372,748.1322,127.73,749.1819" style="stroke:#181818;stroke-width:1.0;"/><text fill="#000000" font-family="Noto Sans CJK JP" font-size="13" lengthAdjust="spacing" textLength="91" x="96" y="705.8519">&#23550;&#23616;&#30011;&#38754;&#12395;&#31227;&#21205;</text></g><!--link GameHistory to deleteGame--><g id="link_GameHistory_deleteGame"><path d="M419.88,650.2919 C409.8,670.0719 400.49,698.0019 413,719.2719 C420.3,731.6919 426.4704,738.3205 438.8104,745.9705 " fill="none" id="GameHistory-to-deleteGame" style="stroke:#181818;stroke-width:1.0;"/><polygon fill="#181818" points="443.91,749.1319,438.3683,740.9901,439.6604,746.4974,434.1531,747.7895,443.91,749.1319" style="stroke:#181818;stroke-width:1.0;"/><text fill="#000000" font-family="Noto Sans CJK JP" font-size="13" lengthAdjust="spacing" textLength="104" x="414" y="696.3519">&#12466;&#12540;&#12512;&#12398;&#12300;&#21066;&#38500;&#12301;</text><text fill="#000000" font-family="Noto Sans CJK JP" font-size="13" lengthAdjust="spacing" textLength="104" x="414" y="715.1759">&#12522;&#12531;&#12463;&#12434;&#12463;&#12522;&#12483;&#12463;</text></g><!--link deleteGame to GameHistory--><g id="link_deleteGame_GameHistory"><path d="M521.9,749.1919 C528.93,729.3719 534.79,701.4319 523,680.2719 C516.18,668.0219 510.3573,661.4875 498.5873,653.7175 " fill="none" id="deleteGame-to-GameHistory" style="stroke:#181818;stroke-width:1.0;"/><polygon fill="#181818" points="493.58,650.4119,498.8872,658.7085,497.7528,653.1666,503.2947,652.0321,493.58,650.4119" style="stroke:#181818;stroke-width:1.0;"/><text fill="#000000" font-family="Noto Sans CJK JP" font-size="13" lengthAdjust="spacing" textLength="91" x="530" y="705.8519">&#12288;&#12466;&#12540;&#12512;&#21066;&#38500;&#24460;</text></g><!--link playGame to *end*loginGameMenu--><g id="link_playGame_*end*loginGameMenu"><path d="M209,800.3619 C209,820.0419 209,840.6319 209,855.0119 " fill="none" id="playGame-to-*end*loginGameMenu" style="stroke:#181818;stroke-width:1.0;"/><polygon fill="#181818" points="209,861.0119,213,852.0119,209,856.0119,205,852.0119,209,861.0119" style="stroke:#181818;stroke-width:1.0;"/></g><!--link user to newGame--><g id="link_user_newGame"><path d="M185.2,493.5119 C182.67,520.4819 178.639,563.568 175.869,593.168 " fill="none" id="user-to-newGame" style="stroke:#181818;stroke-width:1.0;"/><polygon fill="#181818" points="175.31,599.1419,180.1312,590.5538,175.7759,594.1637,172.166,589.8084,175.31,599.1419" style="stroke:#181818;stroke-width:1.0;"/></g><!--link user to GameHistory--><g id="link_user_GameHistory"><path d="M227.51,493.3019 C249.6,504.0719 277.21,518.1819 301,532.2719 C336.38,553.2319 370.1192,576.5483 396.7692,595.7183 " fill="none" id="user-to-GameHistory" style="stroke:#181818;stroke-width:1.0;"/><polygon fill="#181818" points="401.64,599.2219,396.6696,590.7192,397.581,596.3022,391.9981,597.2136,401.64,599.2219" style="stroke:#181818;stroke-width:1.0;"/></g><!--link notLogin to guestUserTop--><g id="link_notLogin_guestUserTop"><path d="M253.57,270.4219 C318.36,294.4019 409.8132,328.259 468.8932,350.129 " fill="none" id="notLogin-to-guestUserTop" style="stroke:#181818;stroke-width:1.0;"/><polygon fill="#181818" points="474.52,352.2119,467.4683,345.3363,469.831,350.4761,464.6911,352.8388,474.52,352.2119" style="stroke:#181818;stroke-width:1.0;"/><text fill="#000000" font-family="Noto Sans CJK JP" font-size="13" lengthAdjust="spacing" textLength="78" x="387" y="318.3519">&#12466;&#12473;&#12488;&#12434;&#36984;&#25246;</text></g><!--link newGuestGame to playGuestGame--><g id="link_newGuestGame_playGuestGame"><path d="M531.43,158.4619 C530.28,176.5719 529.1004,195.084 527.9504,213.184 " fill="none" id="newGuestGame-to-playGuestGame" style="stroke:#181818;stroke-width:1.0;"/><polygon fill="#181818" points="527.57,219.1719,532.1326,210.4437,527.887,214.182,524.1487,209.9364,527.57,219.1719" style="stroke:#181818;stroke-width:1.0;"/></g><!--link guestUserTop to newGuestGame--><g id="link_guestUserTop_newGuestGame"><path d="M592.77,352.1419 C621.17,340.3319 651.5,321.9819 668,294.2719 C685.05,265.6319 684.07,248.4719 668,219.2719 C652.88,191.8119 630.1511,174.6656 603.5011,161.0256 " fill="none" id="guestUserTop-to-newGuestGame" style="stroke:#181818;stroke-width:1.0;"/><polygon fill="#181818" points="598.16,158.2919,604.3492,165.9531,602.6109,160.57,607.9941,158.8317,598.16,158.2919" style="stroke:#181818;stroke-width:1.0;"/></g><!--link playGuestGame to guestUserTop--><g id="link_playGuestGame_guestUserTop"><path d="M526,270.5619 C526,294.5719 526,324.4419 526,346.2619 " fill="none" id="playGuestGame-to-guestUserTop" style="stroke:#181818;stroke-width:1.0;"/><polygon fill="#181818" points="526,352.2619,530,343.2619,526,347.2619,522,343.2619,526,352.2619" style="stroke:#181818;stroke-width:1.0;"/></g><rect fill="#DDDDDD" height="91.0876" id="_legend" rx="7.5" ry="7.5" style="stroke:#000000;stroke-width:1.0;" width="323" x="12" y="916.2719"/><text fill="#000000" font-family="Noto Sans CJK JP" font-size="14" lengthAdjust="spacing" textLength="12" x="17" y="937.5118">1.</text><text fill="#000000" font-family="Noto Sans CJK JP" font-size="14" lengthAdjust="spacing" textLength="211" x="33" y="937.5118">LightBlue&#65288;&#38738;&#65289;: &#12518;&#12540;&#12470;&#12540;&#29992;&#30011;&#38754;</text><text fill="#000000" font-family="Noto Sans CJK JP" font-size="14" lengthAdjust="spacing" textLength="12" x="17" y="957.7838">2.</text><text fill="#000000" font-family="Noto Sans CJK JP" font-size="14" lengthAdjust="spacing" textLength="277" x="33" y="957.7838">LightGreen&#65288;&#40644;&#32209;&#65289;: &#12466;&#12473;&#12488;&#12518;&#12540;&#12470;&#12540;&#29992;&#30011;&#38754;</text><text fill="#000000" font-family="Noto Sans CJK JP" font-size="14" lengthAdjust="spacing" textLength="12" x="17" y="978.0557">3.</text><text fill="#000000" font-family="Noto Sans CJK JP" font-size="14" lengthAdjust="spacing" textLength="297" x="33" y="978.0557">MistyRose&#65288;&#12500;&#12531;&#12463;&#65289;: &#12518;&#12540;&#12470;&#12540;&#12395;&#12424;&#12427;&#25805;&#20316;&#30011;&#38754;</text><text fill="#000000" font-family="Noto Sans CJK JP" font-size="14" lengthAdjust="spacing" textLength="12" x="17" y="998.3276">4.</text><text fill="#000000" font-family="Noto Sans CJK JP" font-size="14" lengthAdjust="spacing" textLength="223" x="33" y="998.3276">LightYellow&#65288;&#40644;&#33394;&#65289;: &#34920;&#31034;&#31995;&#12398;&#30011;&#38754;</text><!--SRC=[lLRRJXDH57sVhpZ11nCJVe0O7Y0HWsYCbmSZFapeeJGCCqrd6aACIMS6IQ4KeTo2Y5fIGAlSlLB0ZzbEfttY5zpddCwj5DG7RPfcEhFtNcklVJcZ3oVKf9oIHqYC3iffnRYXgSOTUOIIjZkQeP7xiggJxjvRfFTkcpIKY552HvB665hh0wb4qaXegYH9Hi9GA06h35O5x6smri5U1hjCt8LAVMszRdvrjohEwg4aAJHErHXHwA0XNUbBn8UCBYLDpuwpzRN2sV5a1m5x4-nZiBxWhxlmJWHecFQaA5MPRMNS_JedpAq3iBw3dRt0xtP2DyRkQJg307i1x4EmTiy1WVa1h2nOkUfy_kV9gmZe8weesgX0hKqUSDzQyPrREd8FAs3kD8n5LYmvINfyxGbfR-yagcRqQV44AgGRie6IXZ7hvhVgr6lXtQzorVR0AZ666HEipurh9gNDr6GtlLpD7J37mNm9rZIOER0A8XYOAvX36v7r0Df73k8BJ6wcN6JJ92SNcD48-QPrcY913R4DhfABGY3ZwlitDVj4yeXnWJWywOYwUTb8Yc_7eQG_uOaIuL_xBTX5i7DWR-3VVhMwj5VRVE4_h2_bdAqSAbetPvmPLaHdzzJPppZx6zNjJ-xwKQsSnwTuivhT51ViwUHKVQKKoDQ3KtARgkcG1kIfHF3Ju8ceO2wpIlciC3U1pIlb5RzUAI2AktB22ii6voDF3h_7pcmUdPpd6yxKQhYyT9J1a-lNHSTsTeQ16yIZ65i535ITd0Upn7h9dcEzn4rOXhcrwkAoaoqvEzXKXLeH-sg28oKLUUnoA5yuT6ne5qNsH0vaO6cMlLwU5jC4vY9hvqQ23F8cpgwM6aDaOH553eigIXE53Ty3-nLOFqHpuVmpSEncl0WKZL656hHLfc4gh1bzHSJsyJFAJ0in104mlq4cpmQxB9PE4pIBpCDxfMmA7OtrWUtFt69BFY7cvna94IuZmcE6Oh2GOOWEo6Jyg2AUSphDlNowp8SjFUcPM0AhmjfZ7uobkrDqPoUGcpWI93xOV5KA5O8R8GeyPgiz7soLK4-qEWrQhQzuckh6GuHxe2L9w7mXqHKLCGkVD_wQ-Ytut-qaCRm1nQOr8pYoFVD_jen78JeL_shHj4QByC2YH4onvo8ryhh9VnuDVAwcM3__7KYanSJjaWU6uoajhSQwDKLB1NI8_qRHoifRL2Jqwe04Vm40]--></g></svg>