<?xml version="1.0" encoding="us-ascii" standalone="no"?><svg xmlns="http://www.w3.org/2000/svg" xmlns:xlink="http://www.w3.org/1999/xlink" contentStyleType="text/css" height="527px" preserveAspectRatio="none" style="width:741px;height:527px;background:#FFFFFF;" version="1.1" viewBox="0 0 741 527" width="741px" zoomAndPan="magnify"><defs/><g><text fill="#000000" font-family="Noto Sans CJK JP" font-size="14" font-weight="bold" lengthAdjust="spacing" textLength="157" x="282" y="26.2399">&#12458;&#12475;&#12525;&#12450;&#12503;&#12522; &#30011;&#38754;&#36983;&#31227;&#22259;</text><!--cluster ???--><g id="cluster_&#12507;&#12540;&#12512;"><path d="M19.5,48.2719 L339.5,48.2719 A12.5,12.5 0 0 1 352,60.7719 L352,73.5438 L7,73.5438 L7,60.7719 A12.5,12.5 0 0 1 19.5,48.2719 " fill="#F1F1F1" style="stroke:#F1F1F1;stroke-width:1.0;"/><rect fill="none" height="341" rx="12.5" ry="12.5" style="stroke:#181818;stroke-width:0.5;" width="345" x="7" y="48.2719"/><line style="stroke:#181818;stroke-width:0.5;" x1="7" x2="352" y1="73.5438" y2="73.5438"/><text fill="#000000" font-family="Noto Sans CJK JP" font-size="14" lengthAdjust="spacing" textLength="42" x="158.5" y="68.5118">&#12507;&#12540;&#12512;</text></g><!--cluster ??????--><g id="cluster_&#12525;&#12540;&#12459;&#12523;&#23550;&#25126;"><path d="M388.5,284.2719 L527.5,284.2719 A12.5,12.5 0 0 1 540,296.7719 L540,309.5438 L376,309.5438 L376,296.7719 A12.5,12.5 0 0 1 388.5,284.2719 " fill="#F1F1F1" style="stroke:#F1F1F1;stroke-width:1.0;"/><rect fill="none" height="105" rx="12.5" ry="12.5" style="stroke:#181818;stroke-width:0.5;" width="164" x="376" y="284.2719"/><line style="stroke:#181818;stroke-width:0.5;" x1="376" x2="540" y1="309.5438" y2="309.5438"/><text fill="#000000" font-family="Noto Sans CJK JP" font-size="14" lengthAdjust="spacing" textLength="84" x="416" y="304.5118">&#12525;&#12540;&#12459;&#12523;&#23550;&#25126;</text></g><!--cluster ??????--><g id="cluster_&#12522;&#12514;&#12540;&#12488;&#23550;&#25126;"><path d="M576.5,284.2719 L715.5,284.2719 A12.5,12.5 0 0 1 728,296.7719 L728,309.5438 L564,309.5438 L564,296.7719 A12.5,12.5 0 0 1 576.5,284.2719 " fill="#F1F1F1" style="stroke:#F1F1F1;stroke-width:1.0;"/><rect fill="none" height="237" rx="12.5" ry="12.5" style="stroke:#181818;stroke-width:0.5;" width="164" x="564" y="284.2719"/><line style="stroke:#181818;stroke-width:0.5;" x1="564" x2="728" y1="309.5438" y2="309.5438"/><text fill="#000000" font-family="Noto Sans CJK JP" font-size="14" lengthAdjust="spacing" textLength="84" x="604" y="304.5118">&#12522;&#12514;&#12540;&#12488;&#23550;&#25126;</text></g><ellipse cx="262" cy="97.2719" fill="#222222" rx="10" ry="10" style="stroke:#222222;stroke-width:1.0;"/><g id="&#12507;&#12540;&#12512;.&#12507;&#12540;&#12512;&#30011;&#38754;"><rect fill="#F1F1F1" height="50" rx="12.5" ry="12.5" style="stroke:#181818;stroke-width:0.5;" width="90" x="217" y="168.2719"/><line style="stroke:#181818;stroke-width:0.5;" x1="217" x2="307" y1="198.5438" y2="198.5438"/><text fill="#000000" font-family="Noto Sans CJK JP" font-size="14" lengthAdjust="spacing" textLength="70" x="227" y="189.5118">&#12507;&#12540;&#12512;&#30011;&#38754;</text></g><g id="&#12507;&#12540;&#12512;.&#12525;&#12464;&#12452;&#12531;&#30011;&#38754;"><rect fill="#F1F1F1" height="50" rx="12.5" ry="12.5" style="stroke:#181818;stroke-width:0.5;" width="104" x="23" y="323.2719"/><line style="stroke:#181818;stroke-width:0.5;" x1="23" x2="127" y1="353.5438" y2="353.5438"/><text fill="#000000" font-family="Noto Sans CJK JP" font-size="14" lengthAdjust="spacing" textLength="84" x="33" y="344.5118">&#12525;&#12464;&#12452;&#12531;&#30011;&#38754;</text></g><g id="&#12507;&#12540;&#12512;.&#12525;&#12464;&#12450;&#12454;&#12488;&#30011;&#38754;"><rect fill="#F1F1F1" height="50" rx="12.5" ry="12.5" style="stroke:#181818;stroke-width:0.5;" width="118" x="218" y="323.2719"/><line style="stroke:#181818;stroke-width:0.5;" x1="218" x2="336" y1="353.5438" y2="353.5438"/><text fill="#000000" font-family="Noto Sans CJK JP" font-size="14" lengthAdjust="spacing" textLength="98" x="228" y="344.5118">&#12525;&#12464;&#12450;&#12454;&#12488;&#30011;&#38754;</text></g><g id="&#12525;&#12540;&#12459;&#12523;&#23550;&#25126;.&#12525;&#12540;&#12459;&#12523;&#23550;&#25126;&#30011;&#38754;"><rect fill="#F1F1F1" height="50" rx="12.5" ry="12.5" style="stroke:#181818;stroke-width:0.5;" width="132" x="392" y="323.2719"/><line style="stroke:#181818;stroke-width:0.5;" x1="392" x2="524" y1="353.5438" y2="353.5438"/><text fill="#000000" font-family="Noto Sans CJK JP" font-size="14" lengthAdjust="spacing" textLength="112" x="402" y="344.5118">&#12525;&#12540;&#12459;&#12523;&#23550;&#25126;&#30011;&#38754;</text></g><g id="&#12522;&#12514;&#12540;&#12488;&#23550;&#25126;.&#12522;&#12514;&#12540;&#12488;&#23550;&#25126;&#24453;&#21512;"><rect fill="#F1F1F1" height="50" rx="12.5" ry="12.5" style="stroke:#181818;stroke-width:0.5;" width="132" x="580" y="323.2719"/><line style="stroke:#181818;stroke-width:0.5;" x1="580" x2="712" y1="353.5438" y2="353.5438"/><text fill="#000000" font-family="Noto Sans CJK JP" font-size="14" lengthAdjust="spacing" textLength="112" x="590" y="344.5118">&#12522;&#12514;&#12540;&#12488;&#23550;&#25126;&#24453;&#21512;</text></g><g id="&#12522;&#12514;&#12540;&#12488;&#23550;&#25126;.&#12522;&#12514;&#12540;&#12488;&#23550;&#25126;&#30011;&#38754;"><rect fill="#F1F1F1" height="50" rx="12.5" ry="12.5" style="stroke:#181818;stroke-width:0.5;" width="132" x="580" y="455.2719"/><line style="stroke:#181818;stroke-width:0.5;" x1="580" x2="712" y1="485.5438" y2="485.5438"/><text fill="#000000" font-family="Noto Sans CJK JP" font-size="14" lengthAdjust="spacing" textLength="112" x="590" y="476.5118">&#12522;&#12514;&#12540;&#12488;&#23550;&#25126;&#30011;&#38754;</text></g><!--link *start*??? to ?????--><g id="link_*start*&#12507;&#12540;&#12512;_&#12507;&#12540;&#12512;&#30011;&#38754;"><path d="M262,107.2819 C262,121.1619 262,142.2419 262,162.1119 " fill="none" id="*start*&#12507;&#12540;&#12512;-to-&#12507;&#12540;&#12512;&#30011;&#38754;" style="stroke:#181818;stroke-width:1.0;"/><polygon fill="#181818" points="262,168.1119,266,159.1119,262,163.1119,258,159.1119,262,168.1119" style="stroke:#181818;stroke-width:1.0;"/></g><!--link ????? to ??????--><g id="link_&#12507;&#12540;&#12512;&#30011;&#38754;_&#12525;&#12464;&#12452;&#12531;&#30011;&#38754;"><path d="M216.93,200.2219 C183.96,206.7719 140.25,220.3619 112,248.2719 C91.64,268.3919 83.4495,294.8535 79.3095,317.0635 " fill="none" id="&#12507;&#12540;&#12512;&#30011;&#38754;-to-&#12525;&#12464;&#12452;&#12531;&#30011;&#38754;" style="stroke:#181818;stroke-width:1.0;"/><polygon fill="#181818" points="78.21,322.9619,83.7915,314.8473,79.1262,318.0466,75.9269,313.3813,78.21,322.9619" style="stroke:#181818;stroke-width:1.0;"/></g><!--link ?????? to ?????--><g id="link_&#12525;&#12464;&#12452;&#12531;&#30011;&#38754;_&#12507;&#12540;&#12512;&#30011;&#38754;"><path d="M103.39,322.9919 C127.15,302.7819 162.04,273.3619 193,248.2719 C205.17,238.4119 213.988,231.4308 225.828,222.2008 " fill="none" id="&#12525;&#12464;&#12452;&#12531;&#30011;&#38754;-to-&#12507;&#12540;&#12512;&#30011;&#38754;" style="stroke:#181818;stroke-width:1.0;"/><polygon fill="#181818" points="230.56,218.5119,221.0027,220.8906,226.6166,221.586,225.9212,227.1999,230.56,218.5119" style="stroke:#181818;stroke-width:1.0;"/><text fill="#000000" font-family="Noto Sans CJK JP" font-size="13" lengthAdjust="spacing" textLength="26" x="194" y="264.3519">&#25104;&#21151;</text></g><!--link ?????? to ??????--><g id="link_&#12525;&#12464;&#12452;&#12531;&#30011;&#38754;_&#12525;&#12464;&#12452;&#12531;&#30011;&#38754;"><path d="M127.24,335.9119 C146.35,335.5819 162,339.7019 162,348.2719 C162,356.8419 152.3491,361.0655 133.2391,360.7355 " fill="none" id="&#12525;&#12464;&#12452;&#12531;&#30011;&#38754;-to-&#12525;&#12464;&#12452;&#12531;&#30011;&#38754;" style="stroke:#181818;stroke-width:1.0;"/><polygon fill="#181818" points="127.24,360.6319,136.1696,364.7867,132.2393,360.7182,136.3077,356.7879,127.24,360.6319" style="stroke:#181818;stroke-width:1.0;"/><text fill="#000000" font-family="Noto Sans CJK JP" font-size="13" lengthAdjust="spacing" textLength="26" x="168" y="354.3519">&#22833;&#25943;</text></g><!--link ????? to ???????--><g id="link_&#12507;&#12540;&#12512;&#30011;&#38754;_&#12525;&#12464;&#12450;&#12454;&#12488;&#30011;&#38754;"><path d="M242.44,218.3119 C233.25,232.5019 225.25,251.0019 230,268.2719 C235.5,288.2719 244.0694,303.4305 254.5894,318.3305 " fill="none" id="&#12507;&#12540;&#12512;&#30011;&#38754;-to-&#12525;&#12464;&#12450;&#12454;&#12488;&#30011;&#38754;" style="stroke:#181818;stroke-width:1.0;"/><polygon fill="#181818" points="258.05,323.2319,256.1267,313.5727,255.1662,319.1474,249.5914,318.1868,258.05,323.2319" style="stroke:#181818;stroke-width:1.0;"/><text fill="#000000" font-family="Noto Sans CJK JP" font-size="13" lengthAdjust="spacing" textLength="65" x="231" y="264.3519">&#12525;&#12464;&#12450;&#12454;&#12488;</text></g><!--link ??????? to ?????--><g id="link_&#12525;&#12464;&#12450;&#12454;&#12488;&#30011;&#38754;_&#12507;&#12540;&#12512;&#30011;&#38754;"><path d="M290.32,322.9819 C299.65,302.7719 309.11,273.3419 301,248.2719 C297.55,237.6019 294.7492,232.0322 288.0892,223.3022 " fill="none" id="&#12525;&#12464;&#12450;&#12454;&#12488;&#30011;&#38754;-to-&#12507;&#12540;&#12512;&#30011;&#38754;" style="stroke:#181818;stroke-width:1.0;"/><polygon fill="#181818" points="284.45,218.5319,286.7286,228.1136,287.4827,222.5072,293.0891,223.2613,284.45,218.5319" style="stroke:#181818;stroke-width:1.0;"/></g><!--link ????? to ????????--><g id="link_&#12507;&#12540;&#12512;&#30011;&#38754;_&#12525;&#12540;&#12459;&#12523;&#23550;&#25126;&#30011;&#38754;"><path d="M293.06,218.5119 C329.76,247.1619 385.7203,290.8501 422.3603,319.4501 " fill="none" id="&#12507;&#12540;&#12512;&#30011;&#38754;-to-&#12525;&#12540;&#12459;&#12523;&#23550;&#25126;&#30011;&#38754;" style="stroke:#181818;stroke-width:1.0;"/><polygon fill="#181818" points="427.09,323.1419,422.4567,314.451,423.1486,320.0654,417.5342,320.7573,427.09,323.1419" style="stroke:#181818;stroke-width:1.0;"/></g><!--link ????? to ????????--><g id="link_&#12507;&#12540;&#12512;&#30011;&#38754;_&#12522;&#12514;&#12540;&#12488;&#23550;&#25126;&#24453;&#21512;"><path d="M307.33,203.2019 C363.65,215.2819 461.87,239.6319 540,276.2719 C567.07,288.9719 590.2536,304.4438 610.6736,319.6138 " fill="none" id="&#12507;&#12540;&#12512;&#30011;&#38754;-to-&#12522;&#12514;&#12540;&#12488;&#23550;&#25126;&#24453;&#21512;" style="stroke:#181818;stroke-width:1.0;"/><polygon fill="#181818" points="615.49,323.1919,610.6508,314.6139,611.4764,320.2102,605.8801,321.0357,615.49,323.1919" style="stroke:#181818;stroke-width:1.0;"/><text fill="#000000" font-family="Noto Sans CJK JP" font-size="13" lengthAdjust="spacing" textLength="65" x="519" y="264.3519">&#35201;&#12525;&#12464;&#12452;&#12531;</text></g><!--link ???????? to ????????--><g id="link_&#12522;&#12514;&#12540;&#12488;&#23550;&#25126;&#24453;&#21512;_&#12522;&#12514;&#12540;&#12488;&#23550;&#25126;&#30011;&#38754;"><path d="M646,373.4219 C646,396.7719 646,425.9519 646,449.2519 " fill="none" id="&#12522;&#12514;&#12540;&#12488;&#23550;&#25126;&#24453;&#21512;-to-&#12522;&#12514;&#12540;&#12488;&#23550;&#25126;&#30011;&#38754;" style="stroke:#181818;stroke-width:1.0;"/><polygon fill="#181818" points="646,455.2519,650,446.2519,646,450.2519,642,446.2519,646,455.2519" style="stroke:#181818;stroke-width:1.0;"/><text fill="#000000" font-family="Noto Sans CJK JP" font-size="13" lengthAdjust="spacing" textLength="65" x="647" y="421.3519">&#35201;&#23550;&#25126;&#20966;&#29702;</text></g><!--SRC=[AyxEp2j8B4hCLKX9JKiipIbnoyyhyKlCJLLGyiiloLS8JimhLd3sybRm2b3YuYh9BCb9LNZSjEfnq-x7pMiVDorwt3pzSVCgXUTJTh-Sk-Xbu_RdotS_dRsPYwku9B44gB9vzkFcFO-R5oXKSoaeH6l5AkZgsY548Rg0CcWYK5L0ypSyRbhok7apL1Yi4aCKYv4ALWhFEYOyxPgFJmU6i9N2qoKRdqsTJi11YnutBNlSt07NX2QEP2MgIcnUhqM4r5gGHDFgnyshdwxVzwnZ6JZ8SBi4LJ6cSQiUDoy2Q-n0CWwxOUXAd-vhVJgXmqhXnR96v502wyUk5eT1y202cWHLthxi-OGse4b0fm80]--></g></svg>