<?xml version="1.0" encoding="us-ascii" standalone="no"?><svg xmlns="http://www.w3.org/2000/svg" xmlns:xlink="http://www.w3.org/1999/xlink" contentStyleType="text/css" height="497px" preserveAspectRatio="none" style="width:701px;height:497px;background:#FFFFFF;" version="1.1" viewBox="0 0 701 497" width="701px" zoomAndPan="magnify"><defs/><g><text fill="#000000" font-family="Noto Sans CJK JP" font-size="14" font-weight="bold" lengthAdjust="spacing" textLength="157" x="262" y="26.2399">&#12458;&#12475;&#12525;&#12450;&#12503;&#12522; &#30011;&#38754;&#36983;&#31227;&#22259;</text><!--cluster ???--><g id="cluster_&#12507;&#12540;&#12512;"><path d="M19.5,48.2719 L319.5,48.2719 A12.5,12.5 0 0 1 332,60.7719 L332,73.5438 L7,73.5438 L7,60.7719 A12.5,12.5 0 0 1 19.5,48.2719 " fill="#F1F1F1" style="stroke:#F1F1F1;stroke-width:1.0;"/><rect fill="none" height="321" rx="12.5" ry="12.5" style="stroke:#181818;stroke-width:0.5;" width="325" x="7" y="48.2719"/><line style="stroke:#181818;stroke-width:0.5;" x1="7" x2="332" y1="73.5438" y2="73.5438"/><text fill="#000000" font-family="Noto Sans CJK JP" font-size="14" lengthAdjust="spacing" textLength="42" x="148.5" y="68.5118">&#12507;&#12540;&#12512;</text></g><!--cluster ??????--><g id="cluster_&#12525;&#12540;&#12459;&#12523;&#23550;&#25126;"><path d="M368.5,274.2719 L497.5,274.2719 A12.5,12.5 0 0 1 510,286.7719 L510,299.5438 L356,299.5438 L356,286.7719 A12.5,12.5 0 0 1 368.5,274.2719 " fill="#F1F1F1" style="stroke:#F1F1F1;stroke-width:1.0;"/><rect fill="none" height="217" rx="12.5" ry="12.5" style="stroke:#181818;stroke-width:0.5;" width="154" x="356" y="274.2719"/><line style="stroke:#181818;stroke-width:0.5;" x1="356" x2="510" y1="299.5438" y2="299.5438"/><text fill="#000000" font-family="Noto Sans CJK JP" font-size="14" lengthAdjust="spacing" textLength="84" x="391" y="294.5118">&#12525;&#12540;&#12459;&#12523;&#23550;&#25126;</text></g><!--cluster ??????--><g id="cluster_&#12522;&#12514;&#12540;&#12488;&#23550;&#25126;"><path d="M546.5,274.2719 L675.5,274.2719 A12.5,12.5 0 0 1 688,286.7719 L688,299.5438 L534,299.5438 L534,286.7719 A12.5,12.5 0 0 1 546.5,274.2719 " fill="#F1F1F1" style="stroke:#F1F1F1;stroke-width:1.0;"/><rect fill="none" height="217" rx="12.5" ry="12.5" style="stroke:#181818;stroke-width:0.5;" width="154" x="534" y="274.2719"/><line style="stroke:#181818;stroke-width:0.5;" x1="534" x2="688" y1="299.5438" y2="299.5438"/><text fill="#000000" font-family="Noto Sans CJK JP" font-size="14" lengthAdjust="spacing" textLength="84" x="569" y="294.5118">&#12522;&#12514;&#12540;&#12488;&#23550;&#25126;</text></g><ellipse cx="276" cy="97.2719" fill="#222222" rx="10" ry="10" style="stroke:#222222;stroke-width:1.0;"/><rect fill="#F1F1F1" height="40" rx="12.5" ry="12.5" style="stroke:#181818;stroke-width:0.5;" width="80" x="236" y="168.2719"/><text fill="#000000" font-family="Noto Sans CJK JP" font-size="14" lengthAdjust="spacing" textLength="70" x="241" y="194.3759">&#12507;&#12540;&#12512;&#30011;&#38754;</text><rect fill="#F1F1F1" height="40" rx="12.5" ry="12.5" style="stroke:#181818;stroke-width:0.5;" width="94" x="23" y="313.2719"/><text fill="#000000" font-family="Noto Sans CJK JP" font-size="14" lengthAdjust="spacing" textLength="84" x="28" y="339.3759">&#12525;&#12464;&#12452;&#12531;&#30011;&#38754;</text><rect fill="#F1F1F1" height="40" rx="12.5" ry="12.5" style="stroke:#181818;stroke-width:0.5;" width="108" x="208" y="313.2719"/><text fill="#000000" font-family="Noto Sans CJK JP" font-size="14" lengthAdjust="spacing" textLength="98" x="213" y="339.3759">&#12525;&#12464;&#12450;&#12454;&#12488;&#30011;&#38754;</text><rect fill="#F1F1F1" height="40" rx="12.5" ry="12.5" style="stroke:#181818;stroke-width:0.5;" width="122" x="372" y="435.2719"/><text fill="#000000" font-family="Noto Sans CJK JP" font-size="14" lengthAdjust="spacing" textLength="112" x="377" y="461.3759">&#12525;&#12540;&#12459;&#12523;&#23550;&#25126;&#30011;&#38754;</text><rect fill="#F1F1F1" height="40" rx="12.5" ry="12.5" style="stroke:#181818;stroke-width:0.5;" width="66" x="372" y="313.2719"/><text fill="#000000" font-family="Noto Sans CJK JP" font-size="14" lengthAdjust="spacing" textLength="56" x="377" y="339.3759">&#23550;&#23616;&#23653;&#27508;</text><rect fill="#F1F1F1" height="40" rx="12.5" ry="12.5" style="stroke:#181818;stroke-width:0.5;" width="122" x="550" y="313.2719"/><text fill="#000000" font-family="Noto Sans CJK JP" font-size="14" lengthAdjust="spacing" textLength="112" x="555" y="339.3759">&#12522;&#12514;&#12540;&#12488;&#23550;&#25126;&#24453;&#21512;</text><rect fill="#F1F1F1" height="40" rx="12.5" ry="12.5" style="stroke:#181818;stroke-width:0.5;" width="122" x="550" y="435.2719"/><text fill="#000000" font-family="Noto Sans CJK JP" font-size="14" lengthAdjust="spacing" textLength="112" x="555" y="461.3759">&#12522;&#12514;&#12540;&#12488;&#23550;&#25126;&#30011;&#38754;</text><!--link *start*??? to ?????--><g id="link_*start*&#12507;&#12540;&#12512;_&#12507;&#12540;&#12512;&#30011;&#38754;"><path d="M276,107.4619 C276,121.6719 276,143.2919 276,162.0119 " fill="none" id="*start*&#12507;&#12540;&#12512;-to-&#12507;&#12540;&#12512;&#30011;&#38754;" style="stroke:#181818;stroke-width:1.0;"/><polygon fill="#181818" points="276,168.0119,280,159.0119,276,163.0119,272,159.0119,276,168.0119" style="stroke:#181818;stroke-width:1.0;"/></g><!--link ????? to ??????--><g id="link_&#12507;&#12540;&#12512;&#30011;&#38754;_&#12525;&#12464;&#12452;&#12531;&#30011;&#38754;"><path d="M235.7,194.2919 C185.55,201.4019 104.06,216.0619 84,238.2719 C65.65,258.6019 64.6532,286.1178 66.6132,307.1478 " fill="none" id="&#12507;&#12540;&#12512;&#30011;&#38754;-to-&#12525;&#12464;&#12452;&#12531;&#30011;&#38754;" style="stroke:#181818;stroke-width:1.0;"/><polygon fill="#181818" points="67.17,313.1219,70.3176,303.7896,66.706,308.1435,62.3521,304.5319,67.17,313.1219" style="stroke:#181818;stroke-width:1.0;"/></g><!--link ?????? to ?????--><g id="link_&#12525;&#12464;&#12452;&#12531;&#30011;&#38754;_&#12507;&#12540;&#12512;&#30011;&#38754;"><path d="M90.44,313.2719 C112.53,293.2719 149.24,261.5119 184,238.2719 C200.4,227.3019 214.1669,219.5216 230.7069,211.0716 " fill="none" id="&#12525;&#12464;&#12452;&#12531;&#30011;&#38754;-to-&#12507;&#12540;&#12512;&#30011;&#38754;" style="stroke:#181818;stroke-width:1.0;"/><polygon fill="#181818" points="236.05,208.3419,226.2155,208.8744,231.5974,210.6167,229.8551,215.9985,236.05,208.3419" style="stroke:#181818;stroke-width:1.0;"/><text fill="#000000" font-family="Noto Sans CJK JP" font-size="13" lengthAdjust="spacing" textLength="26" x="185" y="254.3519">&#25104;&#21151;</text></g><!--link ?????? to ??????--><g id="link_&#12525;&#12464;&#12452;&#12531;&#30011;&#38754;_&#12525;&#12464;&#12452;&#12531;&#30011;&#38754;"><path d="M117.19,321.7219 C136.11,321.0619 152,324.9119 152,333.2719 C152,341.6319 142.1064,345.6911 123.1864,345.0311 " fill="none" id="&#12525;&#12464;&#12452;&#12531;&#30011;&#38754;-to-&#12525;&#12464;&#12452;&#12531;&#30011;&#38754;" style="stroke:#181818;stroke-width:1.0;"/><polygon fill="#181818" points="117.19,344.8219,126.0451,349.1332,122.187,344.9962,126.324,341.1381,117.19,344.8219" style="stroke:#181818;stroke-width:1.0;"/><text fill="#000000" font-family="Noto Sans CJK JP" font-size="13" lengthAdjust="spacing" textLength="26" x="158" y="339.3519">&#22833;&#25943;</text></g><!--link ????? to ???????--><g id="link_&#12507;&#12540;&#12512;&#30011;&#38754;_&#12525;&#12464;&#12450;&#12454;&#12488;&#30011;&#38754;"><path d="M247.1,208.4219 C237.58,216.4019 228.12,226.5619 223,238.2719 C211.74,264.0119 225.7857,289.3377 240.8757,308.3977 " fill="none" id="&#12507;&#12540;&#12512;&#30011;&#38754;-to-&#12525;&#12464;&#12450;&#12454;&#12488;&#30011;&#38754;" style="stroke:#181818;stroke-width:1.0;"/><polygon fill="#181818" points="244.6,313.1019,242.1496,303.5628,241.4964,309.1818,235.8774,308.5285,244.6,313.1019" style="stroke:#181818;stroke-width:1.0;"/><text fill="#000000" font-family="Noto Sans CJK JP" font-size="13" lengthAdjust="spacing" textLength="65" x="224" y="254.3519">&#12525;&#12464;&#12450;&#12454;&#12488;</text></g><!--link ??????? to ?????--><g id="link_&#12525;&#12464;&#12450;&#12454;&#12488;&#30011;&#38754;_&#12507;&#12540;&#12512;&#30011;&#38754;"><path d="M272.83,313.2019 C280.43,298.6619 289.94,277.8719 294,258.2719 C297.51,241.3019 294.163,227.767 288.263,213.997 " fill="none" id="&#12525;&#12464;&#12450;&#12454;&#12488;&#30011;&#38754;-to-&#12507;&#12540;&#12512;&#30011;&#38754;" style="stroke:#181818;stroke-width:1.0;"/><polygon fill="#181818" points="285.9,208.4819,285.7678,218.3299,287.8692,213.0778,293.1213,215.1792,285.9,208.4819" style="stroke:#181818;stroke-width:1.0;"/></g><!--link ????? to ????????--><g id="link_&#12507;&#12540;&#12512;&#30011;&#38754;_&#12525;&#12540;&#12459;&#12523;&#23550;&#25126;&#30011;&#38754;"><path d="M316.35,193.8019 C359.26,201.0019 425.11,219.4619 456,266.2719 C490.86,319.1019 462.8737,393.3667 445.5637,429.6467 " fill="none" id="&#12507;&#12540;&#12512;&#30011;&#38754;-to-&#12525;&#12540;&#12459;&#12523;&#23550;&#25126;&#30011;&#38754;" style="stroke:#181818;stroke-width:1.0;"/><polygon fill="#181818" points="442.98,435.0619,450.4657,428.6616,445.1331,430.5492,443.2454,425.2166,442.98,435.0619" style="stroke:#181818;stroke-width:1.0;"/></g><!--link ????? to ????--><g id="link_&#12507;&#12540;&#12512;&#30011;&#38754;_&#23550;&#23616;&#23653;&#27508;"><path d="M293.4,208.5619 C318.02,235.8519 358.7502,281.0076 383.4502,308.3776 " fill="none" id="&#12507;&#12540;&#12512;&#30011;&#38754;-to-&#23550;&#23616;&#23653;&#27508;" style="stroke:#181818;stroke-width:1.0;"/><polygon fill="#181818" points="387.47,312.8319,384.4098,303.4705,384.1202,309.12,378.4707,308.8303,387.47,312.8319" style="stroke:#181818;stroke-width:1.0;"/></g><!--link ???? to ????????--><g id="link_&#23550;&#23616;&#23653;&#27508;_&#12525;&#12540;&#12459;&#12523;&#23550;&#25126;&#30011;&#38754;"><path d="M409.44,353.2819 C414.65,375.6219 421.8874,406.6387 427.1274,429.1087 " fill="none" id="&#23550;&#23616;&#23653;&#27508;-to-&#12525;&#12540;&#12459;&#12523;&#23550;&#25126;&#30011;&#38754;" style="stroke:#181818;stroke-width:1.0;"/><polygon fill="#181818" points="428.49,434.9519,430.3415,425.2787,427.3545,430.0826,422.5506,427.0955,428.49,434.9519" style="stroke:#181818;stroke-width:1.0;"/></g><!--link ????? to ????????--><g id="link_&#12507;&#12540;&#12512;&#30011;&#38754;_&#12522;&#12514;&#12540;&#12488;&#23550;&#25126;&#24453;&#21512;"><path d="M316.35,190.4319 C366.26,193.4019 452.5,203.6219 517,238.2719 C551.16,256.6219 577.3361,286.5899 593.7961,308.3099 " fill="none" id="&#12507;&#12540;&#12512;&#30011;&#38754;-to-&#12522;&#12514;&#12540;&#12488;&#23550;&#25126;&#24453;&#21512;" style="stroke:#181818;stroke-width:1.0;"/><polygon fill="#181818" points="597.42,313.0919,595.1721,303.503,594.4001,309.1069,588.7962,308.3349,597.42,313.0919" style="stroke:#181818;stroke-width:1.0;"/><text fill="#000000" font-family="Noto Sans CJK JP" font-size="13" lengthAdjust="spacing" textLength="65" x="544" y="254.3519">&#35201;&#12525;&#12464;&#12452;&#12531;</text></g><!--link ???????? to ????????--><g id="link_&#12522;&#12514;&#12540;&#12488;&#23550;&#25126;&#24453;&#21512;_&#12522;&#12514;&#12540;&#12488;&#23550;&#25126;&#30011;&#38754;"><path d="M611,353.2819 C611,375.6219 611,406.4819 611,428.9519 " fill="none" id="&#12522;&#12514;&#12540;&#12488;&#23550;&#25126;&#24453;&#21512;-to-&#12522;&#12514;&#12540;&#12488;&#23550;&#25126;&#30011;&#38754;" style="stroke:#181818;stroke-width:1.0;"/><polygon fill="#181818" points="611,434.9519,615,425.9519,611,429.9519,607,425.9519,611,434.9519" style="stroke:#181818;stroke-width:1.0;"/><text fill="#000000" font-family="Noto Sans CJK JP" font-size="13" lengthAdjust="spacing" textLength="65" x="612" y="401.3519">&#35201;&#23550;&#25126;&#20966;&#29702;</text></g><!--SRC=[XP3FIiD06CJl-nGVFGfzWHoy21ug5C6ZU0WsOh3vGxCUH0IRHGsUSb1wAAA46Y4bQ6Z1GwGlyx69VGlN6D8qJUjnPtypEplMcQgRSa_MeAESoETTkclej2rh2ZJQ1ZNWGDOjs6djGMk_GKxLZWAAPj8BGLl7FTMagg4J88IgjAi0sW7QCR8GRG_P05a0wKCyV_Bc_S_qBUR32I4MbQaWsH3P5x8Nk2G0Xrj7q6nkBzG_bxYfA3abyZ_G7Y6Rv796hgWraI11uhZy_dcJOqMMW8-Yv77mJo4FRH-PKvWgUkd9PRBkwrUBfSBV2tkCRCpVPudZPvEjRx8C5qlM6mJ4esiUlIRXD8FAWZXk32rr391vMRXJwbZVi8hosGrt7Gc-_Nvv-inVpwu9AdONIJb-vwVkhKWILNy0]--></g></svg>