<?xml version="1.0" encoding="us-ascii" standalone="no"?><svg xmlns="http://www.w3.org/2000/svg" xmlns:xlink="http://www.w3.org/1999/xlink" contentStyleType="text/css" height="676px" preserveAspectRatio="none" style="width:910px;height:676px;background:#FFFFFF;" version="1.1" viewBox="0 0 910 676" width="910px" zoomAndPan="magnify"><defs/><g><text fill="#000000" font-family="Noto Sans CJK JP" font-size="14" font-weight="bold" lengthAdjust="spacing" textLength="227" x="334.5" y="26.2399">&#12458;&#12475;&#12525;&#12450;&#12503;&#12522; &#12450;&#12459;&#12454;&#12531;&#12488;&#30011;&#38754;&#36983;&#31227;&#22259;</text><!--cluster account1--><g id="cluster_account1"><path d="M132.5,311.2719 L869.5,311.2719 A12.5,12.5 0 0 1 882,323.7719 L882,356.8157 L120,356.8157 L120,323.7719 A12.5,12.5 0 0 1 132.5,311.2719 " fill="#F1F1F1" style="stroke:#F1F1F1;stroke-width:1.0;"/><rect fill="none" height="257" rx="12.5" ry="12.5" style="stroke:#181818;stroke-width:0.5;" width="762" x="120" y="311.2719"/><line style="stroke:#181818;stroke-width:0.5;" x1="120" x2="882" y1="356.8157" y2="356.8157"/><text fill="#000000" font-family="Noto Sans CJK JP" font-size="14" lengthAdjust="spacing" textLength="154" x="424" y="331.5118">&#12450;&#12459;&#12454;&#12531;&#12488;&#21033;&#29992;&#12513;&#12491;&#12517;&#12540;</text><text fill="#000000" font-family="Noto Sans CJK JP" font-size="14" lengthAdjust="spacing" textLength="350" x="327.5" y="351.7838">&#12518;&#12540;&#12470;&#12540;&#30331;&#37682;&#12539;&#12525;&#12464;&#12452;&#12531;&#12539;&#12525;&#12464;&#12450;&#12454;&#12488;&#12539;&#12497;&#12473;&#12527;&#12540;&#12489;&#22793;&#26356;</text></g><rect fill="#FFE4E1" height="50.5438" rx="12.5" ry="12.5" style="stroke:#181818;stroke-width:0.5;" width="237" x="136.5" y="501.2719"/><text fill="#000000" font-family="Noto Sans CJK JP" font-size="14" lengthAdjust="spacing" textLength="84" x="213" y="522.5118">&#12525;&#12464;&#12452;&#12531;&#30011;&#38754;</text><text fill="#000000" font-family="Noto Sans CJK JP" font-size="14" lengthAdjust="spacing" textLength="224" x="144.5" y="542.7838">&#12525;&#12464;&#12452;&#12531;&#21517;&#12289;&#12497;&#12473;&#12527;&#12540;&#12489;&#12434;&#20837;&#21147;&#12377;&#12427;</text><rect fill="#FFE4E1" height="50.5438" rx="12.5" ry="12.5" style="stroke:#181818;stroke-width:0.5;" width="349" x="146.5" y="370.2719"/><text fill="#000000" font-family="Noto Sans CJK JP" font-size="14" lengthAdjust="spacing" textLength="112" x="265" y="391.5118">&#12518;&#12540;&#12470;&#12540;&#30331;&#37682;&#30011;&#38754;</text><text fill="#000000" font-family="Noto Sans CJK JP" font-size="14" lengthAdjust="spacing" textLength="336" x="154.5" y="411.7838">&#12525;&#12464;&#12452;&#12531;&#21517;&#12289;&#12513;&#12540;&#12523;&#12450;&#12489;&#12524;&#12473;&#12289;&#12497;&#12473;&#12527;&#12540;&#12489;&#12434;&#20837;&#21147;&#12377;&#12427;</text><rect fill="#FFE4E1" height="50.5438" rx="12.5" ry="12.5" style="stroke:#181818;stroke-width:0.5;" width="181" x="550.5" y="370.2719"/><text fill="#000000" font-family="Noto Sans CJK JP" font-size="14" lengthAdjust="spacing" textLength="126" x="578" y="391.5118">&#12497;&#12473;&#12527;&#12540;&#12489;&#22793;&#26356;&#30011;&#38754;</text><text fill="#000000" font-family="Noto Sans CJK JP" font-size="14" lengthAdjust="spacing" textLength="168" x="558.5" y="411.7838">&#12513;&#12540;&#12523;&#12450;&#12489;&#12524;&#12473;&#12434;&#20837;&#21147;&#12377;&#12427;</text><rect fill="#FFFFE0" height="50.5438" rx="12.5" ry="12.5" style="stroke:#181818;stroke-width:0.5;" width="349" x="516.5" y="501.2719"/><text fill="#000000" font-family="Noto Sans CJK JP" font-size="14" lengthAdjust="spacing" textLength="154" x="614" y="522.5118">&#12497;&#12473;&#12527;&#12540;&#12489;&#22793;&#26356;&#30906;&#35469;&#30011;&#38754;</text><text fill="#000000" font-family="Noto Sans CJK JP" font-size="14" lengthAdjust="spacing" textLength="336" x="524.5" y="542.7838">&#12497;&#12473;&#12527;&#12540;&#12489;&#12434;&#22793;&#26356;&#12375;&#12383;&#12392;&#12356;&#12358;&#12513;&#12483;&#12475;&#12540;&#12472;&#12364;&#34920;&#31034;&#12373;&#12428;&#12427;</text><ellipse cx="16" cy="209.7719" fill="#222222" rx="10" ry="10" style="stroke:#222222;stroke-width:1.0;"/><rect fill="#ADD8E6" height="50.5438" rx="12.5" ry="12.5" style="stroke:#181818;stroke-width:0.5;" width="265" x="61.5" y="184.2719"/><text fill="#000000" font-family="Noto Sans CJK JP" font-size="14" lengthAdjust="spacing" textLength="70" x="159" y="205.5118">&#12488;&#12483;&#12503;&#30011;&#38754;</text><text fill="#000000" font-family="Noto Sans CJK JP" font-size="14" lengthAdjust="spacing" textLength="252" x="69.5" y="225.7838">&#12518;&#12540;&#12470;&#12540;&#30331;&#37682;&#12539;&#12525;&#12464;&#12452;&#12531;&#12434;&#36984;&#25246;&#12377;&#12427;&#30011;&#38754;</text><rect fill="#ADD8E6" height="70.8157" rx="12.5" ry="12.5" style="stroke:#181818;stroke-width:0.5;" width="237" x="610.5" y="174.2719"/><text fill="#000000" font-family="Noto Sans CJK JP" font-size="14" lengthAdjust="spacing" textLength="196" x="631" y="195.5118">&#12525;&#12464;&#12452;&#12531;&#12518;&#12540;&#12470;&#12540;&#29992;&#12488;&#12483;&#12503;&#30011;&#38754;</text><text fill="#000000" font-family="Noto Sans CJK JP" font-size="14" lengthAdjust="spacing" textLength="182" x="639.5" y="215.7838">&#12518;&#12540;&#12470;&#12540;&#12364;&#12525;&#12464;&#12452;&#12531;&#12375;&#12383;&#30011;&#38754;</text><text fill="#000000" font-family="Noto Sans CJK JP" font-size="14" lengthAdjust="spacing" textLength="224" x="618.5" y="236.0557">&#12525;&#12464;&#12450;&#12454;&#12488;&#12539;&#12497;&#12473;&#12527;&#12540;&#12489;&#22793;&#26356;&#12391;&#12365;&#12427;</text><g id="elem_GMN20"><path d="M28,56.2719 L28,103.9199 A0,0 0 0 0 28,103.9199 L190,103.9199 L194,184.1119 L198,103.9199 L360,103.9199 A0,0 0 0 0 360,103.9199 L360,66.2719 L350,56.2719 L28,56.2719 A0,0 0 0 0 28,56.2719 " fill="#FEFFDD" style="stroke:#181818;stroke-width:0.5;"/><path d="M350,56.2719 L350,66.2719 L360,66.2719 L350,56.2719 " fill="#FEFFDD" style="stroke:#181818;stroke-width:0.5;"/><text fill="#000000" font-family="Noto Sans CJK JP" font-size="13" lengthAdjust="spacing" textLength="143" x="34" y="76.3519">&#12304;&#12504;&#12483;&#12480;&#12540;&#12398;&#20849;&#36890;&#25805;&#20316;&#12305;</text><text fill="#000000" font-family="Noto Sans CJK JP" font-size="13" lengthAdjust="spacing" textLength="299" x="46" y="95.1759">&#24038;&#19978;&#12398;&#12450;&#12503;&#12522;&#21517;&#12434;&#12463;&#12522;&#12483;&#12463;&#12377;&#12427;&#12392;&#12488;&#12483;&#12503;&#30011;&#38754;&#12395;&#25147;&#12427;</text></g><g id="elem_GMN23"><path d="M595,47.2719 L595,113.744 A0,0 0 0 0 595,113.744 L725,113.744 L729,173.9219 L733,113.744 L863,113.744 A0,0 0 0 0 863,113.744 L863,57.2719 L853,47.2719 L595,47.2719 A0,0 0 0 0 595,47.2719 " fill="#FEFFDD" style="stroke:#181818;stroke-width:0.5;"/><path d="M853,47.2719 L853,57.2719 L863,57.2719 L853,47.2719 " fill="#FEFFDD" style="stroke:#181818;stroke-width:0.5;"/><text fill="#000000" font-family="Noto Sans CJK JP" font-size="13" lengthAdjust="spacing" textLength="143" x="601" y="67.3519">&#12304;&#12504;&#12483;&#12480;&#12540;&#12398;&#20849;&#36890;&#25805;&#20316;&#12305;</text><text fill="#000000" font-family="Noto Sans CJK JP" font-size="13" lengthAdjust="spacing" textLength="221" x="601" y="86.1759">&#21491;&#19978;&#12398;&#12450;&#12459;&#12454;&#12531;&#12488;&#21517;&#12434;&#12463;&#12522;&#12483;&#12463;&#12377;&#12427;&#12392;</text><text fill="#000000" font-family="Noto Sans CJK JP" font-size="13" lengthAdjust="spacing" textLength="247" x="601" y="105">&#12525;&#12464;&#12450;&#12454;&#12488;&#12539;&#12497;&#12473;&#12527;&#12540;&#12489;&#22793;&#26356;&#12434;&#36984;&#25246;&#12391;&#12365;&#12427;</text></g><!--link *start* to notLogin--><g id="link_*start*_notLogin"><path d="M26.08,209.7719 C37.78,209.7719 43.48,209.7719 55.17,209.7719 " fill="none" id="*start*-to-notLogin" style="stroke:#181818;stroke-width:1.0;"/><polygon fill="#181818" points="61.17,209.7719,52.17,205.7719,56.17,209.7719,52.17,213.7719,61.17,209.7719" style="stroke:#181818;stroke-width:1.0;"/></g><!--reverse link notLogin to top--><g id="link_notLogin_top"><path d="M332.59,209.7719 C419.55,209.7719 526.26,209.7719 610.28,209.7719 " fill="none" id="notLogin-backto-top" style="stroke:#181818;stroke-width:1.0;"/><polygon fill="#181818" points="326.59,209.7719,335.59,213.7719,331.59,209.7719,335.59,205.7719,326.59,209.7719" style="stroke:#181818;stroke-width:1.0;"/><text fill="#000000" font-family="Noto Sans CJK JP" font-size="13" lengthAdjust="spacing" textLength="247" x="345" y="183.8519">&#12450;&#12459;&#12454;&#12531;&#12488;&#21517;&#12434;&#12463;&#12522;&#12483;&#12463;&#8594;&#12525;&#12464;&#12450;&#12454;&#12488;&#36984;&#25246;</text><text fill="#000000" font-family="Noto Sans CJK JP" font-size="13" lengthAdjust="spacing" textLength="156" x="392" y="202.6759">&#12518;&#12540;&#12470;&#12540;&#12364;&#12525;&#12464;&#12450;&#12454;&#12488;&#12377;&#12427;</text></g><!--link userRegistration to login--><g id="link_userRegistration_login"><path d="M308.43,421.3419 C296.76,444.1519 282.2026,472.6003 270.4826,495.5103 " fill="none" id="userRegistration-to-login" style="stroke:#181818;stroke-width:1.0;"/><polygon fill="#181818" points="267.75,500.8519,275.41,494.6612,270.0272,496.4006,268.2878,491.0177,267.75,500.8519" style="stroke:#181818;stroke-width:1.0;"/><text fill="#000000" font-family="Noto Sans CJK JP" font-size="13" lengthAdjust="spacing" textLength="91" x="292" y="467.3519">&#12518;&#12540;&#12470;&#12540;&#30331;&#37682;&#24460;</text></g><!--link login to login--><g id="link_login_login"><path d="M373.75,515.5419 C394.26,517.0619 408.5,520.8019 408.5,526.7719 C408.5,532.7419 400.2436,536.0385 379.7336,537.5585 " fill="none" id="login-to-login" style="stroke:#181818;stroke-width:1.0;"/><polygon fill="#181818" points="373.75,538.0019,383.021,541.3258,378.7363,537.6324,382.4298,533.3477,373.75,538.0019" style="stroke:#181818;stroke-width:1.0;"/><text fill="#000000" font-family="Noto Sans CJK JP" font-size="13" lengthAdjust="spacing" textLength="78" x="414.5" y="532.8519">&#12525;&#12464;&#12452;&#12531;&#22833;&#25943;</text></g><!--link passwordChange to passwordConfirm--><g id="link_passwordChange_passwordConfirm"><path d="M650.52,421.3419 C659.36,444.1519 670.2916,472.3475 679.1716,495.2575 " fill="none" id="passwordChange-to-passwordConfirm" style="stroke:#181818;stroke-width:1.0;"/><polygon fill="#181818" points="681.34,500.8519,681.817,491.0146,679.533,496.1899,674.3577,493.9059,681.34,500.8519" style="stroke:#181818;stroke-width:1.0;"/></g><!--link notLogin to login--><g id="link_notLogin_login"><path d="M170.18,235.5319 C155.15,252.9419 137.11,277.6319 129,303.2719 C113.19,353.2719 106.7,373.8019 129,421.2719 C145.31,455.9919 174.3728,479.9806 203.0128,497.8906 " fill="none" id="notLogin-to-login" style="stroke:#181818;stroke-width:1.0;"/><polygon fill="#181818" points="208.1,501.0719,202.5901,492.9085,203.8607,498.4209,198.3484,499.6915,208.1,501.0719" style="stroke:#181818;stroke-width:1.0;"/></g><!--link notLogin to userRegistration--><g id="link_notLogin_userRegistration"><path d="M211.13,235.5919 C235.43,270.8019 276.2615,329.9541 300.5315,365.1141 " fill="none" id="notLogin-to-userRegistration" style="stroke:#181818;stroke-width:1.0;"/><polygon fill="#181818" points="303.94,370.0519,302.1192,360.3728,301.0996,365.937,295.5354,364.9174,303.94,370.0519" style="stroke:#181818;stroke-width:1.0;"/></g><!--link top to passwordChange--><g id="link_top_passwordChange"><path d="M610.28,227.3919 C583.26,236.9919 557.64,251.9619 541,275.2719 C516.4,309.7219 554.1875,343.4915 591.2075,367.0415 " fill="none" id="top-to-passwordChange" style="stroke:#181818;stroke-width:1.0;"/><polygon fill="#181818" points="596.27,370.2619,590.8233,362.0562,592.0513,367.5782,586.5293,368.8062,596.27,370.2619" style="stroke:#181818;stroke-width:1.0;"/><text fill="#000000" font-family="Noto Sans CJK JP" font-size="13" lengthAdjust="spacing" textLength="260" x="542" y="291.3519">&#12450;&#12459;&#12454;&#12531;&#12488;&#21517;&#12463;&#12522;&#12483;&#12463;&#8594;&#12497;&#12473;&#12527;&#12540;&#12489;&#22793;&#26356;&#36984;&#25246;</text></g><!--link login to top--><g id="link_login_top"><path d="M373.58,513.0119 C500.74,497.2319 692.06,466.7419 749,421.2719 C839.39,349.0819 831.72,327.7919 807,275.2719 C801.69,263.9819 797.7437,258.0454 788.4237,249.5054 " fill="none" id="login-to-top" style="stroke:#181818;stroke-width:1.0;"/><polygon fill="#181818" points="784,245.4519,787.9332,254.4813,787.6864,248.8298,793.3379,248.583,784,245.4519" style="stroke:#181818;stroke-width:1.0;"/><text fill="#000000" font-family="Noto Sans CJK JP" font-size="13" lengthAdjust="spacing" textLength="78" x="824" y="401.8519">&#12525;&#12464;&#12452;&#12531;&#25104;&#21151;</text></g><rect fill="#DDDDDD" height="70.8157" id="_legend" rx="7.5" ry="7.5" style="stroke:#000000;stroke-width:1.0;" width="302" x="297" y="585.2719"/><text fill="#000000" font-family="Noto Sans CJK JP" font-size="14" lengthAdjust="spacing" textLength="12" x="302" y="606.5118">1.</text><text fill="#000000" font-family="Noto Sans CJK JP" font-size="14" lengthAdjust="spacing" textLength="190" x="318" y="606.5118">LightBlue&#65288;&#38738;&#65289;&#65306;&#12488;&#12483;&#12503;&#30011;&#38754;</text><text fill="#000000" font-family="Noto Sans CJK JP" font-size="14" lengthAdjust="spacing" textLength="12" x="302" y="626.7838">2.</text><text fill="#000000" font-family="Noto Sans CJK JP" font-size="14" lengthAdjust="spacing" textLength="276" x="318" y="626.7838">MistyRose&#65288;&#12500;&#12531;&#12463;&#65289;&#65306;&#12450;&#12459;&#12454;&#12531;&#12488;&#25805;&#20316;&#30011;&#38754;</text><text fill="#000000" font-family="Noto Sans CJK JP" font-size="14" lengthAdjust="spacing" textLength="12" x="302" y="647.0557">3.</text><text fill="#000000" font-family="Noto Sans CJK JP" font-size="14" lengthAdjust="spacing" textLength="202" x="318" y="647.0557">LightYellow&#65288;&#40644;&#33394;&#65289;&#65306;&#30906;&#35469;&#30011;&#38754;</text><!--SRC=[ZLLBJnDH5DxFhxY1dKaNRWrX0OaBH69mPTJ5s4xBXEbCCtCRGen9PowGjfG85OA0I6ZAmw8YO0HfzSTuc9Qk-0lUHpkTJWTe5zDsxZdV-Svt7jUQLlMKRCf955FYSbh3ZmqTJyX91GrC6DX0psNTGgDZJz3Oim5fIeqfI4ccy2orjgAcciAgeKkIX5MiAGYS2ZXL8D_0AG5P1r91x9Tp1Cu-a3CWsSPgjRbTQjhdZOEgktL6FLy-U8qYffgOmf5Xf1jut4Ye517HZuLbJ6bGDo24uWddLpe2Gk5guFoYpyP6jLau1IB2_W2dp28vnQPzKSz_1di3d4NXE81aouk0XeO2kCF3tK5zQFvmguTtym6xqELhhuEzuxCKHoMkI9RJNW7dDv1ZvajoRZbNt_e9zW7OIvGvvuoDrArqsLb4K-9-zT2ZeEpkCWKhWaE3L1Y8S_nleHZW8WIxFPisPQwe9BLr2WJAVk4AxG9P1B974VegL-VlFS9mFUHer4Zh-25wUrl5UlHcBva86Ji0IsLnv_VS_9R8Y-DhxGRfpgt-OUdgpwTWcmHJkpFqBWzwnCSZ1-GhOz8NfRIbc9DAGhMmAREHkuSTV_JuH6YFQEq6wI7k_YrmDs7HRUlBf7nINriFp6T8eNmoX2KTac9AjgmPmuoDJibwGkbN_h3GfSlhofAFG8-whHbZamds8TXpO2zmdeIlBohB1Mtywzt3HlaIx3Lm2Zqa3JskcadAKaHhqGham4GCU4Zl9CcRKq_axbV1mj7rogRS3oRmm-SyCEGX2ebHbpgLPlZTTQvdbztyZiJ9AlpSY7VMCsIMWNpawoZ3jyHtT_wacTaKDOBCYkX0ztp_wY9FJxtxe7SHYGvWPUZURs0VrRDLjceKFSP9T7EXN_VJaDptPnq6Tov4ZuVKxuxkt36jPSsOCeqKkXszMrLqAjjK8t9qEc7IpKLxGJFCa8sEnjazEAAbbL3py7b0JscZp4uQLgXJkpq5z0j5qumPreEQac1itnWO6qaa3NgHRshPvdRnffQxgMq624g3NYXg1MILtxJ7BTimTcq_Nt26NvsxpfqAD_-mSlq4CUa_]--></g></svg>