<?xml version="1.0" encoding="us-ascii" standalone="no"?><svg xmlns="http://www.w3.org/2000/svg" xmlns:xlink="http://www.w3.org/1999/xlink" contentStyleType="text/css" height="676px" preserveAspectRatio="none" style="width:996px;height:676px;background:#FFFFFF;" version="1.1" viewBox="0 0 996 676" width="996px" zoomAndPan="magnify"><defs/><g><text fill="#000000" font-family="Noto Sans CJK JP" font-size="14" font-weight="bold" lengthAdjust="spacing" textLength="227" x="377.5" y="26.2399">&#12458;&#12475;&#12525;&#12450;&#12503;&#12522; &#12450;&#12459;&#12454;&#12531;&#12488;&#30011;&#38754;&#36983;&#31227;&#22259;</text><!--cluster account1--><g id="cluster_account1"><path d="M228.5,311.2719 L965.5,311.2719 A12.5,12.5 0 0 1 978,323.7719 L978,356.8157 L216,356.8157 L216,323.7719 A12.5,12.5 0 0 1 228.5,311.2719 " fill="#F1F1F1" style="stroke:#F1F1F1;stroke-width:1.0;"/><rect fill="none" height="257" rx="12.5" ry="12.5" style="stroke:#181818;stroke-width:0.5;" width="762" x="216" y="311.2719"/><line style="stroke:#181818;stroke-width:0.5;" x1="216" x2="978" y1="356.8157" y2="356.8157"/><text fill="#000000" font-family="Noto Sans CJK JP" font-size="14" lengthAdjust="spacing" textLength="154" x="520" y="331.5118">&#12450;&#12459;&#12454;&#12531;&#12488;&#21033;&#29992;&#12513;&#12491;&#12517;&#12540;</text><text fill="#000000" font-family="Noto Sans CJK JP" font-size="14" lengthAdjust="spacing" textLength="350" x="423.5" y="351.7838">&#12518;&#12540;&#12470;&#12540;&#30331;&#37682;&#12539;&#12525;&#12464;&#12452;&#12531;&#12539;&#12525;&#12464;&#12450;&#12454;&#12488;&#12539;&#12497;&#12473;&#12527;&#12540;&#12489;&#22793;&#26356;</text></g><rect fill="#FFE4E1" height="50.5438" rx="12.5" ry="12.5" style="stroke:#181818;stroke-width:0.5;" width="237" x="232.5" y="501.2719"/><text fill="#000000" font-family="Noto Sans CJK JP" font-size="14" lengthAdjust="spacing" textLength="84" x="309" y="522.5118">&#12525;&#12464;&#12452;&#12531;&#30011;&#38754;</text><text fill="#000000" font-family="Noto Sans CJK JP" font-size="14" lengthAdjust="spacing" textLength="224" x="240.5" y="542.7838">&#12525;&#12464;&#12452;&#12531;&#21517;&#12289;&#12497;&#12473;&#12527;&#12540;&#12489;&#12434;&#20837;&#21147;&#12377;&#12427;</text><rect fill="#FFE4E1" height="50.5438" rx="12.5" ry="12.5" style="stroke:#181818;stroke-width:0.5;" width="349" x="242.5" y="370.2719"/><text fill="#000000" font-family="Noto Sans CJK JP" font-size="14" lengthAdjust="spacing" textLength="112" x="361" y="391.5118">&#12518;&#12540;&#12470;&#12540;&#30331;&#37682;&#30011;&#38754;</text><text fill="#000000" font-family="Noto Sans CJK JP" font-size="14" lengthAdjust="spacing" textLength="336" x="250.5" y="411.7838">&#12525;&#12464;&#12452;&#12531;&#21517;&#12289;&#12513;&#12540;&#12523;&#12450;&#12489;&#12524;&#12473;&#12289;&#12497;&#12473;&#12527;&#12540;&#12489;&#12434;&#20837;&#21147;&#12377;&#12427;</text><rect fill="#FFE4E1" height="50.5438" rx="12.5" ry="12.5" style="stroke:#181818;stroke-width:0.5;" width="181" x="646.5" y="370.2719"/><text fill="#000000" font-family="Noto Sans CJK JP" font-size="14" lengthAdjust="spacing" textLength="126" x="674" y="391.5118">&#12497;&#12473;&#12527;&#12540;&#12489;&#22793;&#26356;&#30011;&#38754;</text><text fill="#000000" font-family="Noto Sans CJK JP" font-size="14" lengthAdjust="spacing" textLength="168" x="654.5" y="411.7838">&#12513;&#12540;&#12523;&#12450;&#12489;&#12524;&#12473;&#12434;&#20837;&#21147;&#12377;&#12427;</text><rect fill="#FFFFE0" height="50.5438" rx="12.5" ry="12.5" style="stroke:#181818;stroke-width:0.5;" width="349" x="612.5" y="501.2719"/><text fill="#000000" font-family="Noto Sans CJK JP" font-size="14" lengthAdjust="spacing" textLength="154" x="710" y="522.5118">&#12497;&#12473;&#12527;&#12540;&#12489;&#22793;&#26356;&#30906;&#35469;&#30011;&#38754;</text><text fill="#000000" font-family="Noto Sans CJK JP" font-size="14" lengthAdjust="spacing" textLength="336" x="620.5" y="542.7838">&#12497;&#12473;&#12527;&#12540;&#12489;&#12434;&#22793;&#26356;&#12375;&#12383;&#12392;&#12356;&#12358;&#12513;&#12483;&#12475;&#12540;&#12472;&#12364;&#34920;&#31034;&#12373;&#12428;&#12427;</text><ellipse cx="16" cy="209.7719" fill="#222222" rx="10" ry="10" style="stroke:#222222;stroke-width:1.0;"/><rect fill="#ADD8E6" height="50.5438" rx="12.5" ry="12.5" style="stroke:#181818;stroke-width:0.5;" width="391" x="61.5" y="184.2719"/><text fill="#000000" font-family="Noto Sans CJK JP" font-size="14" lengthAdjust="spacing" textLength="112" x="201" y="205.5118">&#12518;&#12540;&#12470;&#12540;&#36984;&#25246;&#30011;&#38754;</text><text fill="#000000" font-family="Noto Sans CJK JP" font-size="14" lengthAdjust="spacing" textLength="378" x="69.5" y="225.7838">&#12525;&#12464;&#12452;&#12531;&#12289;&#12518;&#12540;&#12470;&#12540;&#30331;&#37682;&#12289;&#12466;&#12473;&#12488;&#12398;&#12356;&#12378;&#12428;&#12363;&#12434;&#36984;&#25246;&#12377;&#12427;&#30011;&#38754;</text><rect fill="#ADD8E6" height="70.8157" rx="12.5" ry="12.5" style="stroke:#181818;stroke-width:0.5;" width="237" x="736.5" y="174.2719"/><text fill="#000000" font-family="Noto Sans CJK JP" font-size="14" lengthAdjust="spacing" textLength="196" x="757" y="195.5118">&#12525;&#12464;&#12452;&#12531;&#12518;&#12540;&#12470;&#12540;&#29992;&#12488;&#12483;&#12503;&#30011;&#38754;</text><text fill="#000000" font-family="Noto Sans CJK JP" font-size="14" lengthAdjust="spacing" textLength="182" x="765.5" y="215.7838">&#12518;&#12540;&#12470;&#12540;&#12364;&#12525;&#12464;&#12452;&#12531;&#12375;&#12383;&#30011;&#38754;</text><text fill="#000000" font-family="Noto Sans CJK JP" font-size="14" lengthAdjust="spacing" textLength="224" x="744.5" y="236.0557">&#12525;&#12464;&#12450;&#12454;&#12488;&#12539;&#12497;&#12473;&#12527;&#12540;&#12489;&#22793;&#26356;&#12391;&#12365;&#12427;</text><g id="elem_GMN20"><path d="M91,56.2719 L91,103.9199 A0,0 0 0 0 91,103.9199 L253,103.9199 L257,184.1119 L261,103.9199 L423,103.9199 A0,0 0 0 0 423,103.9199 L423,66.2719 L413,56.2719 L91,56.2719 A0,0 0 0 0 91,56.2719 " fill="#FEFFDD" style="stroke:#181818;stroke-width:0.5;"/><path d="M413,56.2719 L413,66.2719 L423,66.2719 L413,56.2719 " fill="#FEFFDD" style="stroke:#181818;stroke-width:0.5;"/><text fill="#000000" font-family="Noto Sans CJK JP" font-size="13" lengthAdjust="spacing" textLength="143" x="97" y="76.3519">&#12304;&#12504;&#12483;&#12480;&#12540;&#12398;&#20849;&#36890;&#25805;&#20316;&#12305;</text><text fill="#000000" font-family="Noto Sans CJK JP" font-size="13" lengthAdjust="spacing" textLength="299" x="109" y="95.1759">&#24038;&#19978;&#12398;&#12450;&#12503;&#12522;&#21517;&#12434;&#12463;&#12522;&#12483;&#12463;&#12377;&#12427;&#12392;&#12488;&#12483;&#12503;&#30011;&#38754;&#12395;&#25147;&#12427;</text></g><g id="elem_GMN23"><path d="M721,47.2719 L721,113.744 A0,0 0 0 0 721,113.744 L851,113.744 L855,173.9219 L859,113.744 L989,113.744 A0,0 0 0 0 989,113.744 L989,57.2719 L979,47.2719 L721,47.2719 A0,0 0 0 0 721,47.2719 " fill="#FEFFDD" style="stroke:#181818;stroke-width:0.5;"/><path d="M979,47.2719 L979,57.2719 L989,57.2719 L979,47.2719 " fill="#FEFFDD" style="stroke:#181818;stroke-width:0.5;"/><text fill="#000000" font-family="Noto Sans CJK JP" font-size="13" lengthAdjust="spacing" textLength="143" x="727" y="67.3519">&#12304;&#12504;&#12483;&#12480;&#12540;&#12398;&#20849;&#36890;&#25805;&#20316;&#12305;</text><text fill="#000000" font-family="Noto Sans CJK JP" font-size="13" lengthAdjust="spacing" textLength="221" x="727" y="86.1759">&#21491;&#19978;&#12398;&#12450;&#12459;&#12454;&#12531;&#12488;&#21517;&#12434;&#12463;&#12522;&#12483;&#12463;&#12377;&#12427;&#12392;</text><text fill="#000000" font-family="Noto Sans CJK JP" font-size="13" lengthAdjust="spacing" textLength="247" x="727" y="105">&#12525;&#12464;&#12450;&#12454;&#12488;&#12539;&#12497;&#12473;&#12527;&#12540;&#12489;&#22793;&#26356;&#12434;&#36984;&#25246;&#12391;&#12365;&#12427;</text></g><!--link *start* to notLogin--><g id="link_*start*_notLogin"><path d="M26.36,209.7719 C38.07,209.7719 43.78,209.7719 55.49,209.7719 " fill="none" id="*start*-to-notLogin" style="stroke:#181818;stroke-width:1.0;"/><polygon fill="#181818" points="61.49,209.7719,52.49,205.7719,56.49,209.7719,52.49,213.7719,61.49,209.7719" style="stroke:#181818;stroke-width:1.0;"/></g><!--reverse link notLogin to top--><g id="link_notLogin_top"><path d="M458.81,209.7719 C552.48,209.7719 655.56,209.7719 736.46,209.7719 " fill="none" id="notLogin-backto-top" style="stroke:#181818;stroke-width:1.0;"/><polygon fill="#181818" points="452.81,209.7719,461.81,213.7719,457.81,209.7719,461.81,205.7719,452.81,209.7719" style="stroke:#181818;stroke-width:1.0;"/><text fill="#000000" font-family="Noto Sans CJK JP" font-size="13" lengthAdjust="spacing" textLength="247" x="471" y="183.8519">&#12450;&#12459;&#12454;&#12531;&#12488;&#21517;&#12434;&#12463;&#12522;&#12483;&#12463;&#8594;&#12525;&#12464;&#12450;&#12454;&#12488;&#36984;&#25246;</text><text fill="#000000" font-family="Noto Sans CJK JP" font-size="13" lengthAdjust="spacing" textLength="156" x="518" y="202.6759">&#12518;&#12540;&#12470;&#12540;&#12364;&#12525;&#12464;&#12450;&#12454;&#12488;&#12377;&#12427;</text></g><!--link userRegistration to login--><g id="link_userRegistration_login"><path d="M404.43,421.3419 C392.76,444.1519 378.2026,472.6003 366.4826,495.5103 " fill="none" id="userRegistration-to-login" style="stroke:#181818;stroke-width:1.0;"/><polygon fill="#181818" points="363.75,500.8519,371.41,494.6612,366.0272,496.4006,364.2878,491.0177,363.75,500.8519" style="stroke:#181818;stroke-width:1.0;"/><text fill="#000000" font-family="Noto Sans CJK JP" font-size="13" lengthAdjust="spacing" textLength="91" x="388" y="467.3519">&#12518;&#12540;&#12470;&#12540;&#30331;&#37682;&#24460;</text></g><!--link login to login--><g id="link_login_login"><path d="M469.75,515.5419 C490.26,517.0619 504.5,520.8019 504.5,526.7719 C504.5,532.7419 496.2436,536.0385 475.7336,537.5585 " fill="none" id="login-to-login" style="stroke:#181818;stroke-width:1.0;"/><polygon fill="#181818" points="469.75,538.0019,479.021,541.3258,474.7363,537.6324,478.4298,533.3477,469.75,538.0019" style="stroke:#181818;stroke-width:1.0;"/><text fill="#000000" font-family="Noto Sans CJK JP" font-size="13" lengthAdjust="spacing" textLength="78" x="510.5" y="532.8519">&#12525;&#12464;&#12452;&#12531;&#22833;&#25943;</text></g><!--link passwordChange to passwordConfirm--><g id="link_passwordChange_passwordConfirm"><path d="M746.52,421.3419 C755.36,444.1519 766.2916,472.3475 775.1716,495.2575 " fill="none" id="passwordChange-to-passwordConfirm" style="stroke:#181818;stroke-width:1.0;"/><polygon fill="#181818" points="777.34,500.8519,777.817,491.0146,775.533,496.1899,770.3577,493.9059,777.34,500.8519" style="stroke:#181818;stroke-width:1.0;"/></g><!--link notLogin to login--><g id="link_notLogin_login"><path d="M244.57,235.4219 C225.9,276.1219 195.76,359.0419 225,421.2719 C241.31,455.9919 270.3728,479.9806 299.0128,497.8906 " fill="none" id="notLogin-to-login" style="stroke:#181818;stroke-width:1.0;"/><polygon fill="#181818" points="304.1,501.0719,298.5901,492.9085,299.8607,498.4209,294.3484,499.6915,304.1,501.0719" style="stroke:#181818;stroke-width:1.0;"/></g><!--link notLogin to userRegistration--><g id="link_notLogin_userRegistration"><path d="M278.58,235.5919 C309.2,270.8019 360.9925,330.3647 391.5725,365.5247 " fill="none" id="notLogin-to-userRegistration" style="stroke:#181818;stroke-width:1.0;"/><polygon fill="#181818" points="395.51,370.0519,392.6219,360.636,392.2287,366.2792,386.5856,365.8861,395.51,370.0519" style="stroke:#181818;stroke-width:1.0;"/></g><!--link top to passwordChange--><g id="link_top_passwordChange"><path d="M736.33,232.1119 C691.21,242.8419 647.4,257.4019 634,275.2719 C608.28,309.5619 647.3934,343.442 685.6534,367.042 " fill="none" id="top-to-passwordChange" style="stroke:#181818;stroke-width:1.0;"/><polygon fill="#181818" points="690.76,370.1919,685.2,362.0626,686.5045,367.567,681.0001,368.8714,690.76,370.1919" style="stroke:#181818;stroke-width:1.0;"/><text fill="#000000" font-family="Noto Sans CJK JP" font-size="13" lengthAdjust="spacing" textLength="260" x="635" y="291.3519">&#12450;&#12459;&#12454;&#12531;&#12488;&#21517;&#12463;&#12522;&#12483;&#12463;&#8594;&#12497;&#12473;&#12527;&#12540;&#12489;&#22793;&#26356;&#36984;&#25246;</text></g><!--link login to top--><g id="link_login_top"><path d="M469.75,513.2219 C597.06,497.6219 788.52,467.3119 845,421.2719 C890.69,384.0319 917.83,332.0019 900,275.2719 C896.72,264.8519 894.4683,259.6072 888.2883,250.4972 " fill="none" id="login-to-top" style="stroke:#181818;stroke-width:1.0;"/><polygon fill="#181818" points="884.92,245.5319,886.6623,255.2254,887.727,249.6697,893.2827,250.7343,884.92,245.5319" style="stroke:#181818;stroke-width:1.0;"/><text fill="#000000" font-family="Noto Sans CJK JP" font-size="13" lengthAdjust="spacing" textLength="78" x="906" y="401.8519">&#12525;&#12464;&#12452;&#12531;&#25104;&#21151;</text></g><rect fill="#DDDDDD" height="70.8157" id="_legend" rx="7.5" ry="7.5" style="stroke:#000000;stroke-width:1.0;" width="302" x="340" y="585.2719"/><text fill="#000000" font-family="Noto Sans CJK JP" font-size="14" lengthAdjust="spacing" textLength="12" x="345" y="606.5118">1.</text><text fill="#000000" font-family="Noto Sans CJK JP" font-size="14" lengthAdjust="spacing" textLength="190" x="361" y="606.5118">LightBlue&#65288;&#38738;&#65289;&#65306;&#12488;&#12483;&#12503;&#30011;&#38754;</text><text fill="#000000" font-family="Noto Sans CJK JP" font-size="14" lengthAdjust="spacing" textLength="12" x="345" y="626.7838">2.</text><text fill="#000000" font-family="Noto Sans CJK JP" font-size="14" lengthAdjust="spacing" textLength="276" x="361" y="626.7838">MistyRose&#65288;&#12500;&#12531;&#12463;&#65289;&#65306;&#12450;&#12459;&#12454;&#12531;&#12488;&#25805;&#20316;&#30011;&#38754;</text><text fill="#000000" font-family="Noto Sans CJK JP" font-size="14" lengthAdjust="spacing" textLength="12" x="345" y="647.0557">3.</text><text fill="#000000" font-family="Noto Sans CJK JP" font-size="14" lengthAdjust="spacing" textLength="202" x="361" y="647.0557">LightYellow&#65288;&#40644;&#33394;&#65289;&#65306;&#30906;&#35469;&#30011;&#38754;</text><!--SRC=[ZLLDJnDH5DtFhtY1dKaNRWrX0OaBHM9mPTJ5s4xBXEcyPcOQGen9tmoGjfG85OA0I6ZAXqL1m0ZIwe_nCYrTyHTy7_sOcGxGBgPDvzrppptttlFCALLFoOQSH34bBgSrwp7MhN4vgQ21SMnXz4BMJJJwv2bwydn0cbHZ2bAIAMk6dZQZXfgoLAnBacIfbgOWi2jWLy7v3dO9d3LmAeZziW_1tWFd39niOwNQt2eroNbZl-fkdj78Lm_Ue8YX9YQjo33IiJM64of5HFHZMh95QO13WsjW_wBF9hcevxy8bDSwugb-W5rcw1dYFTbOhpOBf-nF-nJitpGta2CWiq0sm2u0MG2xAD20h8Ez8307a6nsMA2X8HRcEBGMyNfus4_CazsRUkKW4CUfTWy0AVXYoHgGxPwYIbmrYaCLNUOb7BDO9-UMS_NDdq3sWInIvfopXLEtqcNl8feIzogC7WLRuovHi2BOD4c5WTZ7_-QB0Iv2iDkhQLFcYafIMwT0eknNhj0EE0lWx5A4062hTKxLBt2rJs6u7d8qYjEwzH2zkwrZeKF4H61pv8EbihXpksv-KzJ5yRNsWFXhgtzSlFhpEJWcmTBkJBt3anxo5Sg1yuqnwOjIsbIC2IMXcfOXixMyXnr_zCH4w8nexG7f8Ux-BV0mSS9_rbD9-QI-kXROuP16UMG8Apgan9HicjFOY8rEodf2wLV-iDIbo-lAeeT0Zxgj7MER2UI06ySyv-bmYwEoND31lzuvQ9GlWQmoJmcIn7fSDPAKfSZMeXMeWOaOY93UIr9dJpiY-_yADevQCDjoBvZ03z_pm9A7A2HMNUfsck7x-rpFBhdvROcJLVXx7EzQE6IMmFd4xIZ3NUB8dJjfPZP4Zo2pB2RGFT-xkiWpRsxV6Rr692Q0jS7lRq0Ewzaginf5Zt4IVYxqwtuQallXhClWJaFiy93wzUZk7TCoQyQKQQHGT-pSl69IcLEDoD6fX46TYyw2XeqGHqTZxAuSqT9AwF7mVK3FwA3CJ60pDAWzdWBwfQ9fU9hDeAOa6DktsB9m4ac3dSmtjMnpgtXJoztKDW84fS5EAdeAd1L6n3vkdGrZruxp96VurTdhtAa8youhrqyGa_u3]--></g></svg>