<?xml version="1.0" encoding="us-ascii" standalone="no"?><svg xmlns="http://www.w3.org/2000/svg" xmlns:xlink="http://www.w3.org/1999/xlink" contentStyleType="text/css" height="270px" preserveAspectRatio="none" style="width:736px;height:270px;background:#FFFFFF;" version="1.1" viewBox="0 0 736 270" width="736px" zoomAndPan="magnify"><defs/><g><!--cluster ??????--><g id="cluster_&#12458;&#12475;&#12525;&#12450;&#12503;&#12522;"><rect fill="none" height="163" rx="2.5" ry="2.5" style="stroke:#181818;stroke-width:1.0;" width="723" x="7" y="101.5"/><text fill="#000000" font-family="Noto Sans CJK JP" font-size="14" font-weight="bold" lengthAdjust="spacing" textLength="84" x="326.5" y="119.7399">&#12458;&#12475;&#12525;&#12450;&#12503;&#12522;</text></g><!--cluster ???????--><g id="cluster_&#12450;&#12459;&#12454;&#12531;&#12488;&#27231;&#33021;"><path d="M33.5,148.5 L132.5,148.5 A3.75,3.75 0 0 1 135,151 L142,174.7719 L703.5,174.7719 A2.5,2.5 0 0 1 706,177.2719 L706,238 A2.5,2.5 0 0 1 703.5,240.5 L33.5,240.5 A2.5,2.5 0 0 1 31,238 L31,151 A2.5,2.5 0 0 1 33.5,148.5 " fill="none" style="stroke:#000000;stroke-width:1.5;"/><line style="stroke:#000000;stroke-width:1.5;" x1="31" x2="142" y1="174.7719" y2="174.7719"/><text fill="#000000" font-family="Noto Sans CJK JP" font-size="14" font-weight="bold" lengthAdjust="spacing" textLength="98" x="35" y="166.7399">&#12450;&#12459;&#12454;&#12531;&#12488;&#27231;&#33021;</text></g><g id="elem_&#12518;&#12540;&#12470;&#12540;&#30331;&#37682;"><ellipse cx="615.7886" cy="205.8425" fill="#F1F1F1" rx="73.2886" ry="17.8425" style="stroke:#181818;stroke-width:0.5;"/><text fill="#000000" font-family="Noto Sans CJK JP" font-size="14" lengthAdjust="spacing" textLength="84" x="570.7886" y="211.2125">&#12518;&#12540;&#12470;&#12540;&#30331;&#37682;</text></g><g id="elem_&#12525;&#12464;&#12452;&#12531;"><ellipse cx="455.2322" cy="206.1769" fill="#F1F1F1" rx="52.2322" ry="17.6769" style="stroke:#181818;stroke-width:0.5;"/><text fill="#000000" font-family="Noto Sans CJK JP" font-size="14" lengthAdjust="spacing" textLength="56" x="424.2322" y="211.5469">&#12525;&#12464;&#12452;&#12531;</text></g><g id="elem_&#12525;&#12464;&#12450;&#12454;&#12488;"><ellipse cx="304.759" cy="205.7735" fill="#F1F1F1" rx="62.759" ry="17.7735" style="stroke:#181818;stroke-width:0.5;"/><text fill="#000000" font-family="Noto Sans CJK JP" font-size="14" lengthAdjust="spacing" textLength="70" x="266.759" y="211.1435">&#12525;&#12464;&#12450;&#12454;&#12488;</text></g><g id="elem_&#12497;&#12473;&#12527;&#12540;&#12489;&#22793;&#26356;"><ellipse cx="127.1629" cy="205.9326" fill="#F1F1F1" rx="80.1629" ry="18.4326" style="stroke:#181818;stroke-width:0.5;"/><text fill="#000000" font-family="Noto Sans CJK JP" font-size="14" lengthAdjust="spacing" textLength="98" x="75.1629" y="211.3025">&#12497;&#12473;&#12527;&#12540;&#12489;&#22793;&#26356;</text></g><!--entity loggedInUser--><g id="elem_loggedInUser"><ellipse cx="214" cy="14" fill="#F1F1F1" rx="8" ry="8" style="stroke:#181818;stroke-width:0.5;"/><path d="M214,22 L214,49 M201,30 L227,30 M214,49 L201,64 M214,49 L227,64 " fill="none" style="stroke:#181818;stroke-width:0.5;"/><text fill="#000000" font-family="Noto Sans CJK JP" font-size="14" lengthAdjust="spacing" textLength="112" x="158" y="81.7399">&#12525;&#12464;&#12452;&#12531;&#12518;&#12540;&#12470;&#12540;</text></g><!--entity unloggedUser--><g id="elem_unloggedUser"><ellipse cx="455" cy="14" fill="#F1F1F1" rx="8" ry="8" style="stroke:#181818;stroke-width:0.5;"/><path d="M455,22 L455,49 M442,30 L468,30 M455,49 L442,64 M455,49 L468,64 " fill="none" style="stroke:#181818;stroke-width:0.5;"/><text fill="#000000" font-family="Noto Sans CJK JP" font-size="14" lengthAdjust="spacing" textLength="126" x="392" y="81.7399">&#26410;&#12525;&#12464;&#12452;&#12531;&#12518;&#12540;&#12470;&#12540;</text></g><!--entity guest--><g id="elem_guest"><ellipse cx="616" cy="14" fill="#F1F1F1" rx="8" ry="8" style="stroke:#181818;stroke-width:0.5;"/><path d="M616,22 L616,49 M603,30 L629,30 M616,49 L603,64 M616,49 L629,64 " fill="none" style="stroke:#181818;stroke-width:0.5;"/><text fill="#000000" font-family="Noto Sans CJK JP" font-size="14" lengthAdjust="spacing" textLength="98" x="567" y="81.7399">&#26410;&#30331;&#37682;&#12518;&#12540;&#12470;&#12540;</text></g><!--link guest to ??????--><g id="link_guest_&#12518;&#12540;&#12470;&#12540;&#30331;&#37682;"><path d="M616,85.68 C616,118.32 616,157.25 616,181.61 " fill="none" id="guest-to-&#12518;&#12540;&#12470;&#12540;&#30331;&#37682;" style="stroke:#181818;stroke-width:1.0;"/><polygon fill="#181818" points="616,187.61,620,178.61,616,182.61,612,178.61,616,187.61" style="stroke:#181818;stroke-width:1.0;"/></g><!--link unloggedUser to ????--><g id="link_unloggedUser_&#12525;&#12464;&#12452;&#12531;"><path d="M455,85.68 C455,118.68 455,158.26 455,182.42 " fill="none" id="unloggedUser-to-&#12525;&#12464;&#12452;&#12531;" style="stroke:#181818;stroke-width:1.0;"/><polygon fill="#181818" points="455,188.42,459,179.42,455,183.42,451,179.42,455,188.42" style="stroke:#181818;stroke-width:1.0;"/></g><!--link loggedInUser to ?????--><g id="link_loggedInUser_&#12525;&#12464;&#12450;&#12454;&#12488;"><path d="M236.49,85.68 C255.34,118.5 278.3323,158.5568 292.2623,182.8168 " fill="none" id="loggedInUser-to-&#12525;&#12464;&#12450;&#12454;&#12488;" style="stroke:#181818;stroke-width:1.0;"/><polygon fill="#181818" points="295.25,188.02,294.2373,178.2233,292.7603,183.684,287.2996,182.2069,295.25,188.02" style="stroke:#181818;stroke-width:1.0;"/></g><!--link loggedInUser to ???????--><g id="link_loggedInUser_&#12497;&#12473;&#12527;&#12540;&#12489;&#22793;&#26356;"><path d="M192.49,85.68 C174.58,118.32 152.7952,157.9892 139.4352,182.3492 " fill="none" id="loggedInUser-to-&#12497;&#12473;&#12527;&#12540;&#12489;&#22793;&#26356;" style="stroke:#181818;stroke-width:1.0;"/><polygon fill="#181818" points="136.55,187.61,144.385,181.6423,138.9543,183.226,137.3706,177.7954,136.55,187.61" style="stroke:#181818;stroke-width:1.0;"/></g><!--SRC=[RKu_ImCn5D_pAPutsQ5-11T1i48HfBE4N0obTybnIQRI9MzfmSL9n44uYc1551L1gf_cOTLlqTXJKJmUlE7ttmxwkk0bpo6LXzndRjjer-MvXAHhd85zhYriTNQXivSmjjRN8lEf167otEW3BfmfxKRX6IkbS5ohB1efp2ZC2QyfL8GdXBC4XWoWu6B0rKfGKRYYS45uJpXUN9w_uqkjMIUCw3E5n_ZVJkSVHtUj6evfjnIcqV87g5Onuo_icC8JuSrd0avUfvF5sKEBZU8nfhoq3jhjpUOEhpEZb4nxLfRVgj-LDRkZ__C_2veaZOEM]--></g></svg>