<?xml version="1.0" encoding="us-ascii" standalone="no"?><svg xmlns="http://www.w3.org/2000/svg" xmlns:xlink="http://www.w3.org/1999/xlink" contentStyleType="text/css" height="372px" preserveAspectRatio="none" style="width:272px;height:372px;background:#FFFFFF;" version="1.1" viewBox="0 0 272 372" width="272px" zoomAndPan="magnify"><defs/><g><!--class ?????????--><g id="elem_&#12518;&#12540;&#12470;&#12540;&#12450;&#12459;&#12454;&#12531;&#12488;"><rect codeLine="2" fill="#F1F1F1" height="129.0876" id="&#12518;&#12540;&#12470;&#12540;&#12450;&#12459;&#12454;&#12531;&#12488;" rx="2.5" ry="2.5" style="stroke:#181818;stroke-width:0.5;" width="210" x="7" y="236"/><ellipse cx="45.4" cy="252" fill="#ADD1B2" rx="11" ry="11" style="stroke:#181818;stroke-width:1.0;"/><path d="M49.5094,258 L41.7906,258 L41.7906,245.6094 L49.5094,245.6094 L49.5094,247.7656 L44.2438,247.7656 L44.2438,250.4375 L49.0094,250.4375 L49.0094,252.5938 L44.2438,252.5938 L44.2438,255.8438 L49.5094,255.8438 L49.5094,258 Z " fill="#000000"/><text fill="#000000" font-family="Noto Sans CJK JP" font-size="14" lengthAdjust="spacing" textLength="126" x="64.6" y="258.104">&#12518;&#12540;&#12470;&#12540;&#12450;&#12459;&#12454;&#12531;&#12488;</text><line style="stroke:#181818;stroke-width:0.5;" x1="8" x2="216" y1="268" y2="268"/><ellipse cx="18" cy="283.636" fill="none" rx="3" ry="3" style="stroke:#038048;stroke-width:1.0;"/><text fill="#000000" font-family="Noto Sans CJK JP" font-size="14" lengthAdjust="spacing" textLength="99" x="27" y="288.2399">&#12518;&#12540;&#12470;&#12540;ID: INT</text><ellipse cx="18" cy="303.9079" fill="none" rx="3" ry="3" style="stroke:#038048;stroke-width:1.0;"/><text fill="#000000" font-family="Noto Sans CJK JP" font-size="14" lengthAdjust="spacing" textLength="156" x="27" y="308.5118">&#12518;&#12540;&#12470;&#12540;&#21517;: VARCHAR50</text><ellipse cx="18" cy="324.1798" fill="none" rx="3" ry="3" style="stroke:#038048;stroke-width:1.0;"/><text fill="#000000" font-family="Noto Sans CJK JP" font-size="14" lengthAdjust="spacing" textLength="184" x="27" y="328.7838">&#12513;&#12540;&#12523;&#12450;&#12489;&#12524;&#12473;: VARCHAR50</text><ellipse cx="18" cy="344.4517" fill="none" rx="3" ry="3" style="stroke:#038048;stroke-width:1.0;"/><text fill="#000000" font-family="Noto Sans CJK JP" font-size="14" lengthAdjust="spacing" textLength="156" x="27" y="349.0557">&#12497;&#12473;&#12527;&#12540;&#12489;: VARCHAR30</text><line style="stroke:#181818;stroke-width:0.5;" x1="8" x2="216" y1="357.0876" y2="357.0876"/></g><!--class ???--><g id="elem_&#12466;&#12540;&#12512;"><rect codeLine="9" fill="#F1F1F1" height="149.3596" id="&#12466;&#12540;&#12512;" rx="2.5" ry="2.5" style="stroke:#181818;stroke-width:0.5;" width="170" x="27" y="7"/><ellipse cx="86.75" cy="23" fill="#ADD1B2" rx="11" ry="11" style="stroke:#181818;stroke-width:1.0;"/><path d="M90.8594,29 L83.1406,29 L83.1406,16.6094 L90.8594,16.6094 L90.8594,18.7656 L85.5938,18.7656 L85.5938,21.4375 L90.3594,21.4375 L90.3594,23.5938 L85.5938,23.5938 L85.5938,26.8438 L90.8594,26.8438 L90.8594,29 Z " fill="#000000"/><text fill="#000000" font-family="Noto Sans CJK JP" font-size="14" lengthAdjust="spacing" textLength="42" x="107.25" y="29.104">&#12466;&#12540;&#12512;</text><line style="stroke:#181818;stroke-width:0.5;" x1="28" x2="196" y1="39" y2="39"/><ellipse cx="38" cy="54.636" fill="none" rx="3" ry="3" style="stroke:#038048;stroke-width:1.0;"/><text fill="#000000" font-family="Noto Sans CJK JP" font-size="14" lengthAdjust="spacing" textLength="85" x="47" y="59.2399">&#12466;&#12540;&#12512;ID: INT</text><ellipse cx="38" cy="74.9079" fill="none" rx="3" ry="3" style="stroke:#038048;stroke-width:1.0;"/><text fill="#000000" font-family="Noto Sans CJK JP" font-size="14" lengthAdjust="spacing" textLength="144" x="47" y="79.5118">&#12503;&#12524;&#12452;&#12516;&#12540;1 : INT &#171;FK&#187;</text><ellipse cx="38" cy="95.1798" fill="none" rx="3" ry="3" style="stroke:#038048;stroke-width:1.0;"/><text fill="#000000" font-family="Noto Sans CJK JP" font-size="14" lengthAdjust="spacing" textLength="144" x="47" y="99.7838">&#12503;&#12524;&#12452;&#12516;&#12540;2 : INT &#171;FK&#187;</text><ellipse cx="38" cy="115.4517" fill="none" rx="3" ry="3" style="stroke:#038048;stroke-width:1.0;"/><text fill="#000000" font-family="Noto Sans CJK JP" font-size="14" lengthAdjust="spacing" textLength="131" x="47" y="120.0557">&#12479;&#12540;&#12531; : VARCHAR15</text><ellipse cx="38" cy="135.7236" fill="none" rx="3" ry="3" style="stroke:#038048;stroke-width:1.0;"/><text fill="#000000" font-family="Noto Sans CJK JP" font-size="14" lengthAdjust="spacing" textLength="73" x="47" y="140.3276">&#30436;&#38754; : JSON</text><line style="stroke:#181818;stroke-width:0.5;" x1="28" x2="196" y1="148.3596" y2="148.3596"/></g><!--link ??? to ?????????--><g id="link_&#12466;&#12540;&#12512;_&#12518;&#12540;&#12470;&#12540;&#12450;&#12459;&#12454;&#12531;&#12488;"><path codeLine="17" d="M112,164.27 C112,190.07 112,192.8 112,217.72 " fill="none" id="&#12466;&#12540;&#12512;-&#12518;&#12540;&#12470;&#12540;&#12450;&#12459;&#12454;&#12531;&#12488;" style="stroke:#181818;stroke-width:1.0;"/><line style="stroke:#181818;stroke-width:1.0;" x1="108" x2="116" y1="160.27" y2="160.27"/><line style="stroke:#181818;stroke-width:1.0;" x1="108" x2="116" y1="163.27" y2="163.27"/><line style="stroke:#181818;stroke-width:1.0;" x1="112" x2="112" y1="164.27" y2="156.27"/><line style="stroke:#181818;stroke-width:1.0;" x1="112" x2="118" y1="227.72" y2="235.72"/><line style="stroke:#181818;stroke-width:1.0;" x1="112" x2="106" y1="227.72" y2="235.72"/><line style="stroke:#181818;stroke-width:1.0;" x1="112" x2="112" y1="227.72" y2="235.72"/><ellipse cx="112" cy="221.72" fill="none" rx="4" ry="4" style="stroke:#181818;stroke-width:1.0;"/><text fill="#000000" font-family="Noto Sans CJK JP" font-size="13" lengthAdjust="spacing" textLength="151" x="113" y="202.08">&#12503;&#12524;&#12452;&#12516;&#12540;1, &#12503;&#12524;&#12452;&#12516;&#12540;2</text></g><!--SRC=[AyxEp2j8B4hCLKX9JKiipIbnoyyhyKlCJLLGyiiloLS8JimhLd3sybRm2b3YIiqhoIofL51wtBpiSVEUnqtRmEIYnqsh7pS1HJO_RkvGKgZcKb3GHbRXwMAbuEaNWYxyT4AlbKAOOv2pXsEGgG54TY58jdaroCpcpiVDQnutxSHGCn4e-BXvFLXb9rpMs82hbWlXmAPDOFa5CEV0-2XkcGwsOSdZPY3QOwW0bb6miN7pjhF3ei08Kq7JVh2fcnNWpZ0q1KaydxtavTn5G56lO7y_1P33a5rKKwEhcrzD81IjGFAe3jHHG7UH4W00]--></g></svg>