<?xml version="1.0" encoding="us-ascii" standalone="no"?><svg xmlns="http://www.w3.org/2000/svg" xmlns:xlink="http://www.w3.org/1999/xlink" contentStyleType="text/css" height="473px" preserveAspectRatio="none" style="width:256px;height:473px;background:#FFFFFF;" version="1.1" viewBox="0 0 256 473" width="256px" zoomAndPan="magnify"><defs/><g><!--class ?????????--><g id="elem_&#12518;&#12540;&#12470;&#12540;&#12450;&#12459;&#12454;&#12531;&#12488;"><rect codeLine="2" fill="#F1F1F1" height="149.3596" id="&#12518;&#12540;&#12470;&#12540;&#12450;&#12459;&#12454;&#12531;&#12488;" rx="2.5" ry="2.5" style="stroke:#181818;stroke-width:0.5;" width="221" x="17.5" y="7"/><ellipse cx="60.85" cy="23" fill="#ADD1B2" rx="11" ry="11" style="stroke:#181818;stroke-width:1.0;"/><path d="M64.9594,29 L57.2406,29 L57.2406,16.6094 L64.9594,16.6094 L64.9594,18.7656 L59.6938,18.7656 L59.6938,21.4375 L64.4594,21.4375 L64.4594,23.5938 L59.6938,23.5938 L59.6938,26.8438 L64.9594,26.8438 L64.9594,29 Z " fill="#000000"/><text fill="#000000" font-family="Noto Sans CJK JP" font-size="14" lengthAdjust="spacing" textLength="126" x="81.15" y="29.104">&#12518;&#12540;&#12470;&#12540;&#12450;&#12459;&#12454;&#12531;&#12488;</text><line style="stroke:#181818;stroke-width:0.5;" x1="18.5" x2="237.5" y1="39" y2="39"/><ellipse cx="28.5" cy="54.636" fill="none" rx="3" ry="3" style="stroke:#038048;stroke-width:1.0;"/><text fill="#000000" font-family="Noto Sans CJK JP" font-size="14" lengthAdjust="spacing" textLength="148" x="37.5" y="59.2399">&#12450;&#12459;&#12454;&#12531;&#12488;ID: INT &#171;PK&#187;</text><ellipse cx="28.5" cy="74.9079" fill="none" rx="3" ry="3" style="stroke:#038048;stroke-width:1.0;"/><text fill="#000000" font-family="Noto Sans CJK JP" font-size="14" lengthAdjust="spacing" textLength="167" x="37.5" y="79.5118">&#12518;&#12540;&#12470;&#12540;&#21517;: VARCHAR 255</text><ellipse cx="28.5" cy="95.1798" fill="none" rx="3" ry="3" style="stroke:#038048;stroke-width:1.0;"/><text fill="#000000" font-family="Noto Sans CJK JP" font-size="14" lengthAdjust="spacing" textLength="195" x="37.5" y="99.7838">&#12513;&#12540;&#12523;&#12450;&#12489;&#12524;&#12473;: VARCHAR 255</text><ellipse cx="28.5" cy="115.4517" fill="none" rx="3" ry="3" style="stroke:#038048;stroke-width:1.0;"/><text fill="#000000" font-family="Noto Sans CJK JP" font-size="14" lengthAdjust="spacing" textLength="167" x="37.5" y="120.0557">&#12497;&#12473;&#12527;&#12540;&#12489;: VARCHAR 255</text><ellipse cx="28.5" cy="135.7236" fill="none" rx="3" ry="3" style="stroke:#038048;stroke-width:1.0;"/><text fill="#000000" font-family="Noto Sans CJK JP" font-size="14" lengthAdjust="spacing" textLength="131" x="37.5" y="140.3276">&#12524;&#12505;&#12523;: VARCHAR 15</text><line style="stroke:#181818;stroke-width:0.5;" x1="18.5" x2="237.5" y1="148.3596" y2="148.3596"/></g><!--class ???????????????--><g id="elem_&#12525;&#12464;&#12452;&#12531;&#12518;&#12540;&#12470;&#12540;&#12398;&#12525;&#12540;&#12459;&#12523;&#23550;&#25126;"><rect codeLine="10" fill="#F1F1F1" height="230.4472" id="&#12525;&#12464;&#12452;&#12531;&#12518;&#12540;&#12470;&#12540;&#12398;&#12525;&#12540;&#12459;&#12523;&#23550;&#25126;" rx="2.5" ry="2.5" style="stroke:#181818;stroke-width:0.5;" width="242" x="7" y="236"/><ellipse cx="22" cy="252" fill="#ADD1B2" rx="11" ry="11" style="stroke:#181818;stroke-width:1.0;"/><path d="M26.1094,258 L18.3906,258 L18.3906,245.6094 L26.1094,245.6094 L26.1094,247.7656 L20.8438,247.7656 L20.8438,250.4375 L25.6094,250.4375 L25.6094,252.5938 L20.8438,252.5938 L20.8438,255.8438 L26.1094,255.8438 L26.1094,258 Z " fill="#000000"/><text fill="#000000" font-family="Noto Sans CJK JP" font-size="14" lengthAdjust="spacing" textLength="210" x="36" y="258.104">&#12525;&#12464;&#12452;&#12531;&#12518;&#12540;&#12470;&#12540;&#12398;&#12525;&#12540;&#12459;&#12523;&#23550;&#25126;</text><line style="stroke:#181818;stroke-width:0.5;" x1="8" x2="248" y1="268" y2="268"/><ellipse cx="18" cy="283.636" fill="none" rx="3" ry="3" style="stroke:#038048;stroke-width:1.0;"/><text fill="#000000" font-family="Noto Sans CJK JP" font-size="14" lengthAdjust="spacing" textLength="120" x="27" y="288.2399">&#12466;&#12540;&#12512;ID: INT &#171;PK&#187;</text><ellipse cx="18" cy="303.9079" fill="none" rx="3" ry="3" style="stroke:#038048;stroke-width:1.0;"/><text fill="#000000" font-family="Noto Sans CJK JP" font-size="14" lengthAdjust="spacing" textLength="150" x="27" y="308.5118">&#12450;&#12459;&#12454;&#12531;&#12488;ID : INT &#171;FK&#187;</text><ellipse cx="18" cy="324.1798" fill="none" rx="3" ry="3" style="stroke:#038048;stroke-width:1.0;"/><text fill="#000000" font-family="Noto Sans CJK JP" font-size="14" lengthAdjust="spacing" textLength="132" x="27" y="328.7838">&#20316;&#25104;&#26085;&#26178; : DATETIME</text><ellipse cx="18" cy="344.4517" fill="none" rx="3" ry="3" style="stroke:#038048;stroke-width:1.0;"/><text fill="#000000" font-family="Noto Sans CJK JP" font-size="14" lengthAdjust="spacing" textLength="132" x="27" y="349.0557">&#26356;&#26032;&#26085;&#26178; : DATETIME</text><ellipse cx="18" cy="364.7236" fill="none" rx="3" ry="3" style="stroke:#038048;stroke-width:1.0;"/><text fill="#000000" font-family="Noto Sans CJK JP" font-size="14" lengthAdjust="spacing" textLength="212" x="27" y="369.3276">&#40658;&#12398;&#12503;&#12524;&#12452;&#12516;&#12540;&#21517; : VARCHAR 255</text><ellipse cx="18" cy="384.9955" fill="none" rx="3" ry="3" style="stroke:#038048;stroke-width:1.0;"/><text fill="#000000" font-family="Noto Sans CJK JP" font-size="14" lengthAdjust="spacing" textLength="212" x="27" y="389.5995">&#30333;&#12398;&#12503;&#12524;&#12452;&#12516;&#12540;&#21517; : VARCHAR 255</text><ellipse cx="18" cy="405.2674" fill="none" rx="3" ry="3" style="stroke:#038048;stroke-width:1.0;"/><text fill="#000000" font-family="Noto Sans CJK JP" font-size="14" lengthAdjust="spacing" textLength="134" x="27" y="409.8714">&#12479;&#12540;&#12531; : VARCHAR 15</text><ellipse cx="18" cy="425.5393" fill="none" rx="3" ry="3" style="stroke:#038048;stroke-width:1.0;"/><text fill="#000000" font-family="Noto Sans CJK JP" font-size="14" lengthAdjust="spacing" textLength="73" x="27" y="430.1433">&#30436;&#38754; : JSON</text><ellipse cx="18" cy="445.8112" fill="none" rx="3" ry="3" style="stroke:#038048;stroke-width:1.0;"/><text fill="#000000" font-family="Noto Sans CJK JP" font-size="14" lengthAdjust="spacing" textLength="120" x="27" y="450.4152">&#32080;&#26524; : VARCHAR 15</text><line style="stroke:#181818;stroke-width:0.5;" x1="8" x2="248" y1="458.4472" y2="458.4472"/></g><!--link ????????? to ???????????????--><g id="link_&#12518;&#12540;&#12470;&#12540;&#12450;&#12459;&#12454;&#12531;&#12488;_&#12525;&#12464;&#12452;&#12531;&#12518;&#12540;&#12470;&#12540;&#12398;&#12525;&#12540;&#12459;&#12523;&#23550;&#25126;"><path codeLine="22" d="M128,164.3 C128,188.89 128,190.89 128,217.81 " fill="none" id="&#12518;&#12540;&#12470;&#12540;&#12450;&#12459;&#12454;&#12531;&#12488;-&#12525;&#12464;&#12452;&#12531;&#12518;&#12540;&#12470;&#12540;&#12398;&#12525;&#12540;&#12459;&#12523;&#23550;&#25126;" style="stroke:#181818;stroke-width:1.0;"/><line style="stroke:#181818;stroke-width:1.0;" x1="124" x2="132" y1="160.3" y2="160.3"/><line style="stroke:#181818;stroke-width:1.0;" x1="124" x2="132" y1="163.3" y2="163.3"/><line style="stroke:#181818;stroke-width:1.0;" x1="128" x2="128" y1="164.3" y2="156.3"/><line style="stroke:#181818;stroke-width:1.0;" x1="128" x2="134" y1="227.81" y2="235.81"/><line style="stroke:#181818;stroke-width:1.0;" x1="128" x2="122" y1="227.81" y2="235.81"/><line style="stroke:#181818;stroke-width:1.0;" x1="128" x2="128" y1="227.81" y2="235.81"/><ellipse cx="128" cy="221.81" fill="none" rx="4" ry="4" style="stroke:#181818;stroke-width:1.0;"/><text fill="#000000" font-family="Noto Sans CJK JP" font-size="13" lengthAdjust="spacing" textLength="78" x="129" y="202.08">&#12450;&#12459;&#12454;&#12531;&#12488;ID</text></g><!--SRC=[AyxEp2j8B4hCLKX9JKiipIbnoyyhyKlCJLLGyiiloLS8JimhLd3sybRm2b3YIiqhoIofL51wtBpiSVEUnqtRmEIYnqsh7pS1HJO_RkvGKgZcKb3GHXFrTB5IyFGBKR2n2V2simChG3BYwOHUAuKmno1d3ySW1IDJKuZyGf1yysgGISsTZvlNF6xQYKNLHA3mu-RrOBMTMEJNF6wU2JG58MDeobNBXUIJjO-RDZnkMW9s9vAl6jU1f43SrK3jJzVlUzQn3EwtJM3h5c3n5Rgt5M0gtA0gdkoTywnZmhFfIv_DR09AkZY6k8Pu-hg2f9xDtl9isWQiKYztJmAxQ3eu782ENG89DWKC7p-VkPT8bO-RzeEziLa19N10PinUydBk8g2mLx2_dm9OPEk4P_FcAA278lw4K5EZgvjVJN8OMobWX28N0000]--></g></svg>