<?xml version="1.0" encoding="us-ascii" standalone="no"?><svg xmlns="http://www.w3.org/2000/svg" xmlns:xlink="http://www.w3.org/1999/xlink" contentStyleType="text/css" height="392px" preserveAspectRatio="none" style="width:256px;height:392px;background:#FFFFFF;" version="1.1" viewBox="0 0 256 392" width="256px" zoomAndPan="magnify"><defs/><g><!--class ?????????--><g id="elem_&#12518;&#12540;&#12470;&#12540;&#12450;&#12459;&#12454;&#12531;&#12488;"><rect codeLine="2" fill="#F1F1F1" height="129.0876" id="&#12518;&#12540;&#12470;&#12540;&#12450;&#12459;&#12454;&#12531;&#12488;" rx="2.5" ry="2.5" style="stroke:#181818;stroke-width:0.5;" width="218" x="19" y="7"/><ellipse cx="61" cy="23" fill="#ADD1B2" rx="11" ry="11" style="stroke:#181818;stroke-width:1.0;"/><path d="M65.1094,29 L57.3906,29 L57.3906,16.6094 L65.1094,16.6094 L65.1094,18.7656 L59.8438,18.7656 L59.8438,21.4375 L64.6094,21.4375 L64.6094,23.5938 L59.8438,23.5938 L59.8438,26.8438 L65.1094,26.8438 L65.1094,29 Z " fill="#000000"/><text fill="#000000" font-family="Noto Sans CJK JP" font-size="14" lengthAdjust="spacing" textLength="126" x="81" y="29.104">&#12518;&#12540;&#12470;&#12540;&#12450;&#12459;&#12454;&#12531;&#12488;</text><line style="stroke:#181818;stroke-width:0.5;" x1="20" x2="236" y1="39" y2="39"/><ellipse cx="30" cy="54.636" fill="none" rx="3" ry="3" style="stroke:#038048;stroke-width:1.0;"/><text fill="#000000" font-family="Noto Sans CJK JP" font-size="14" lengthAdjust="spacing" textLength="99" x="39" y="59.2399">&#12518;&#12540;&#12470;&#12540;ID: INT</text><ellipse cx="30" cy="74.9079" fill="none" rx="3" ry="3" style="stroke:#038048;stroke-width:1.0;"/><text fill="#000000" font-family="Noto Sans CJK JP" font-size="14" lengthAdjust="spacing" textLength="164" x="39" y="79.5118">&#12518;&#12540;&#12470;&#12540;&#21517;: VARCHAR255</text><ellipse cx="30" cy="95.1798" fill="none" rx="3" ry="3" style="stroke:#038048;stroke-width:1.0;"/><text fill="#000000" font-family="Noto Sans CJK JP" font-size="14" lengthAdjust="spacing" textLength="192" x="39" y="99.7838">&#12513;&#12540;&#12523;&#12450;&#12489;&#12524;&#12473;: VARCHAR255</text><ellipse cx="30" cy="115.4517" fill="none" rx="3" ry="3" style="stroke:#038048;stroke-width:1.0;"/><text fill="#000000" font-family="Noto Sans CJK JP" font-size="14" lengthAdjust="spacing" textLength="164" x="39" y="120.0557">&#12497;&#12473;&#12527;&#12540;&#12489;: VARCHAR255</text><line style="stroke:#181818;stroke-width:0.5;" x1="20" x2="236" y1="128.0876" y2="128.0876"/></g><!--class ???????????????--><g id="elem_&#12525;&#12464;&#12452;&#12531;&#12518;&#12540;&#12470;&#12540;&#12398;&#12525;&#12540;&#12459;&#12523;&#23550;&#25126;"><rect codeLine="9" fill="#F1F1F1" height="189.9034" id="&#12525;&#12464;&#12452;&#12531;&#12518;&#12540;&#12470;&#12540;&#12398;&#12525;&#12540;&#12459;&#12523;&#23550;&#25126;" rx="2.5" ry="2.5" style="stroke:#181818;stroke-width:0.5;" width="242" x="7" y="196"/><ellipse cx="22" cy="212" fill="#ADD1B2" rx="11" ry="11" style="stroke:#181818;stroke-width:1.0;"/><path d="M26.1094,218 L18.3906,218 L18.3906,205.6094 L26.1094,205.6094 L26.1094,207.7656 L20.8438,207.7656 L20.8438,210.4375 L25.6094,210.4375 L25.6094,212.5938 L20.8438,212.5938 L20.8438,215.8438 L26.1094,215.8438 L26.1094,218 Z " fill="#000000"/><text fill="#000000" font-family="Noto Sans CJK JP" font-size="14" lengthAdjust="spacing" textLength="210" x="36" y="218.104">&#12525;&#12464;&#12452;&#12531;&#12518;&#12540;&#12470;&#12540;&#12398;&#12525;&#12540;&#12459;&#12523;&#23550;&#25126;</text><line style="stroke:#181818;stroke-width:0.5;" x1="8" x2="248" y1="228" y2="228"/><ellipse cx="18" cy="243.636" fill="none" rx="3" ry="3" style="stroke:#038048;stroke-width:1.0;"/><text fill="#000000" font-family="Noto Sans CJK JP" font-size="14" lengthAdjust="spacing" textLength="85" x="27" y="248.2399">&#12466;&#12540;&#12512;ID: INT</text><ellipse cx="18" cy="263.9079" fill="none" rx="3" ry="3" style="stroke:#038048;stroke-width:1.0;"/><text fill="#000000" font-family="Noto Sans CJK JP" font-size="14" lengthAdjust="spacing" textLength="150" x="27" y="268.5118">&#12450;&#12459;&#12454;&#12531;&#12488;ID : INT &#171;FK&#187;</text><ellipse cx="18" cy="284.1798" fill="none" rx="3" ry="3" style="stroke:#038048;stroke-width:1.0;"/><text fill="#000000" font-family="Noto Sans CJK JP" font-size="14" lengthAdjust="spacing" textLength="209" x="27" y="288.7838">&#40658;&#12398;&#12503;&#12524;&#12452;&#12516;&#12540;&#21517; : VARCHAR255</text><ellipse cx="18" cy="304.4517" fill="none" rx="3" ry="3" style="stroke:#038048;stroke-width:1.0;"/><text fill="#000000" font-family="Noto Sans CJK JP" font-size="14" lengthAdjust="spacing" textLength="209" x="27" y="309.0557">&#30333;&#12398;&#12503;&#12524;&#12452;&#12516;&#12540;&#21517; : VARCHAR255</text><ellipse cx="18" cy="324.7236" fill="none" rx="3" ry="3" style="stroke:#038048;stroke-width:1.0;"/><text fill="#000000" font-family="Noto Sans CJK JP" font-size="14" lengthAdjust="spacing" textLength="131" x="27" y="329.3276">&#12479;&#12540;&#12531; : VARCHAR15</text><ellipse cx="18" cy="344.9955" fill="none" rx="3" ry="3" style="stroke:#038048;stroke-width:1.0;"/><text fill="#000000" font-family="Noto Sans CJK JP" font-size="14" lengthAdjust="spacing" textLength="73" x="27" y="349.5995">&#30436;&#38754; : JSON</text><ellipse cx="18" cy="365.2674" fill="none" rx="3" ry="3" style="stroke:#038048;stroke-width:1.0;"/><text fill="#000000" font-family="Noto Sans CJK JP" font-size="14" lengthAdjust="spacing" textLength="117" x="27" y="369.8714">&#21213;&#25943; : VARCHAR15</text><line style="stroke:#181818;stroke-width:0.5;" x1="8" x2="248" y1="377.9034" y2="377.9034"/></g><!--link ????????? to ???????????????--><g id="link_&#12518;&#12540;&#12470;&#12540;&#12450;&#12459;&#12454;&#12531;&#12488;_&#12525;&#12464;&#12452;&#12531;&#12518;&#12540;&#12470;&#12540;&#12398;&#12525;&#12540;&#12459;&#12523;&#23550;&#25126;"><path codeLine="19" d="M128,144.29 C128,162.96 128,157.79 128,177.93 " fill="none" id="&#12518;&#12540;&#12470;&#12540;&#12450;&#12459;&#12454;&#12531;&#12488;-&#12525;&#12464;&#12452;&#12531;&#12518;&#12540;&#12470;&#12540;&#12398;&#12525;&#12540;&#12459;&#12523;&#23550;&#25126;" style="stroke:#181818;stroke-width:1.0;"/><line style="stroke:#181818;stroke-width:1.0;" x1="124" x2="132" y1="140.29" y2="140.29"/><line style="stroke:#181818;stroke-width:1.0;" x1="124" x2="132" y1="143.29" y2="143.29"/><line style="stroke:#181818;stroke-width:1.0;" x1="128" x2="128" y1="144.29" y2="136.29"/><line style="stroke:#181818;stroke-width:1.0;" x1="128" x2="134" y1="187.93" y2="195.93"/><line style="stroke:#181818;stroke-width:1.0;" x1="128" x2="122" y1="187.93" y2="195.93"/><line style="stroke:#181818;stroke-width:1.0;" x1="128" x2="128" y1="187.93" y2="195.93"/><ellipse cx="128" cy="181.93" fill="none" rx="4" ry="4" style="stroke:#181818;stroke-width:1.0;"/></g><!--SRC=[AyxEp2j8B4hCLKX9JKiipIbnoyyhyKlCJLLGyiiloLS8JimhLd3sybRm2b3YIiqhoIofL51wtBpiSVEUnqtRmEIYnqsh7pS1HJO_RkvGKgZcKb3GHbRXwMAbuEaNWYxyT4AlbKAOOv2pXsEGaQafH7eXIBfvDSZGvix7pMiUD-t4L3GHAFguUJrOQIUAT2qNaXlNFcxQyBXf2TXTIEvjN0UI0d5N0srwkdxViuvbC5StRG8RkW3PoQZ-ytHH04ifsDYuUTlPWLIyt3q9REXqi7k1zYs1-4u1tUNFP-ubJk7ZflrWTsn6o1X2J9YzvENSHK1Hhs1_FmMGoDFkkS-cJaTH1mm4_35KKwEhcrzDQX1n0G00]--></g></svg>