<?xml version="1.0" encoding="us-ascii" standalone="no"?><svg xmlns="http://www.w3.org/2000/svg" xmlns:xlink="http://www.w3.org/1999/xlink" contentStyleType="text/css" height="473px" preserveAspectRatio="none" style="width:256px;height:473px;background:#FFFFFF;" version="1.1" viewBox="0 0 256 473" width="256px" zoomAndPan="magnify"><defs/><g><!--class User--><g id="elem_User"><rect codeLine="2" fill="#F1F1F1" height="149.3596" id="User" rx="2.5" ry="2.5" style="stroke:#181818;stroke-width:0.5;" width="221" x="17.5" y="7"/><ellipse cx="67.75" cy="23" fill="#ADD1B2" rx="11" ry="11" style="stroke:#181818;stroke-width:1.0;"/><path d="M71.8594,29 L64.1406,29 L64.1406,16.6094 L71.8594,16.6094 L71.8594,18.7656 L66.5938,18.7656 L66.5938,21.4375 L71.3594,21.4375 L71.3594,23.5938 L66.5938,23.5938 L66.5938,26.8438 L71.8594,26.8438 L71.8594,29 Z " fill="#000000"/><text fill="#000000" font-family="Noto Sans CJK JP" font-size="14" lengthAdjust="spacing" textLength="112" x="88.25" y="29.104">&#12518;&#12540;&#12470;&#12540;&#12510;&#12473;&#12479;&#12540;</text><line style="stroke:#181818;stroke-width:0.5;" x1="18.5" x2="237.5" y1="39" y2="39"/><ellipse cx="28.5" cy="54.636" fill="none" rx="3" ry="3" style="stroke:#038048;stroke-width:1.0;"/><text fill="#000000" font-family="Noto Sans CJK JP" font-size="14" lengthAdjust="spacing" textLength="105" x="37.5" y="59.2399">&#12518;&#12540;&#12470;&#12540;ID &#171;PK&#187;</text><ellipse cx="28.5" cy="74.9079" fill="none" rx="3" ry="3" style="stroke:#038048;stroke-width:1.0;"/><text fill="#000000" font-family="Noto Sans CJK JP" font-size="14" lengthAdjust="spacing" textLength="139" x="37.5" y="79.5118">&#12525;&#12464;&#12452;&#12531;&#21517; &#171;UNIQUE&#187;</text><ellipse cx="28.5" cy="95.1798" fill="none" rx="3" ry="3" style="stroke:#038048;stroke-width:1.0;"/><text fill="#000000" font-family="Noto Sans CJK JP" font-size="14" lengthAdjust="spacing" textLength="98" x="37.5" y="99.7838">&#12513;&#12540;&#12523;&#12450;&#12489;&#12524;&#12473;</text><ellipse cx="28.5" cy="115.4517" fill="none" rx="3" ry="3" style="stroke:#038048;stroke-width:1.0;"/><text fill="#000000" font-family="Noto Sans CJK JP" font-size="14" lengthAdjust="spacing" textLength="70" x="37.5" y="120.0557">&#12497;&#12473;&#12527;&#12540;&#12489;</text><ellipse cx="28.5" cy="135.7236" fill="none" rx="3" ry="3" style="stroke:#038048;stroke-width:1.0;"/><text fill="#000000" font-family="Noto Sans CJK JP" font-size="14" lengthAdjust="spacing" textLength="195" x="37.5" y="140.3276">&#12524;&#12505;&#12523; &#171;&#21021;&#24515;&#32773;/&#20013;&#32026;&#32773;/&#19978;&#32026;&#32773;&#187;</text><line style="stroke:#181818;stroke-width:0.5;" x1="18.5" x2="237.5" y1="148.3596" y2="148.3596"/></g><!--class AuthenticatedLocalGame--><g id="elem_AuthenticatedLocalGame"><rect codeLine="10" fill="#F1F1F1" height="230.4472" id="AuthenticatedLocalGame" rx="2.5" ry="2.5" style="stroke:#181818;stroke-width:0.5;" width="242" x="7" y="236"/><ellipse cx="22" cy="252" fill="#ADD1B2" rx="11" ry="11" style="stroke:#181818;stroke-width:1.0;"/><path d="M26.1094,258 L18.3906,258 L18.3906,245.6094 L26.1094,245.6094 L26.1094,247.7656 L20.8438,247.7656 L20.8438,250.4375 L25.6094,250.4375 L25.6094,252.5938 L20.8438,252.5938 L20.8438,255.8438 L26.1094,255.8438 L26.1094,258 Z " fill="#000000"/><text fill="#000000" font-family="Noto Sans CJK JP" font-size="14" lengthAdjust="spacing" textLength="210" x="36" y="258.104">&#12525;&#12464;&#12452;&#12531;&#12518;&#12540;&#12470;&#12540;&#12398;&#12525;&#12540;&#12459;&#12523;&#23550;&#25126;</text><line style="stroke:#181818;stroke-width:0.5;" x1="8" x2="248" y1="268" y2="268"/><ellipse cx="18" cy="283.636" fill="none" rx="3" ry="3" style="stroke:#038048;stroke-width:1.0;"/><text fill="#000000" font-family="Noto Sans CJK JP" font-size="14" lengthAdjust="spacing" textLength="91" x="27" y="288.2399">&#12466;&#12540;&#12512;ID &#171;PK&#187;</text><ellipse cx="18" cy="303.9079" fill="none" rx="3" ry="3" style="stroke:#038048;stroke-width:1.0;"/><text fill="#000000" font-family="Noto Sans CJK JP" font-size="14" lengthAdjust="spacing" textLength="104" x="27" y="308.5118">&#12518;&#12540;&#12470;&#12540;ID &#171;FK&#187;</text><ellipse cx="18" cy="324.1798" fill="none" rx="3" ry="3" style="stroke:#038048;stroke-width:1.0;"/><text fill="#000000" font-family="Noto Sans CJK JP" font-size="14" lengthAdjust="spacing" textLength="56" x="27" y="328.7838">&#20316;&#25104;&#26085;&#26178;</text><ellipse cx="18" cy="344.4517" fill="none" rx="3" ry="3" style="stroke:#038048;stroke-width:1.0;"/><text fill="#000000" font-family="Noto Sans CJK JP" font-size="14" lengthAdjust="spacing" textLength="56" x="27" y="349.0557">&#26356;&#26032;&#26085;&#26178;</text><ellipse cx="18" cy="364.7236" fill="none" rx="3" ry="3" style="stroke:#038048;stroke-width:1.0;"/><text fill="#000000" font-family="Noto Sans CJK JP" font-size="14" lengthAdjust="spacing" textLength="112" x="27" y="369.3276">&#40658;&#12398;&#12503;&#12524;&#12452;&#12516;&#12540;&#21517;</text><ellipse cx="18" cy="384.9955" fill="none" rx="3" ry="3" style="stroke:#038048;stroke-width:1.0;"/><text fill="#000000" font-family="Noto Sans CJK JP" font-size="14" lengthAdjust="spacing" textLength="112" x="27" y="389.5995">&#30333;&#12398;&#12503;&#12524;&#12452;&#12516;&#12540;&#21517;</text><ellipse cx="18" cy="405.2674" fill="none" rx="3" ry="3" style="stroke:#038048;stroke-width:1.0;"/><text fill="#000000" font-family="Noto Sans CJK JP" font-size="14" lengthAdjust="spacing" textLength="42" x="27" y="409.8714">&#12479;&#12540;&#12531;</text><ellipse cx="18" cy="425.5393" fill="none" rx="3" ry="3" style="stroke:#038048;stroke-width:1.0;"/><text fill="#000000" font-family="Noto Sans CJK JP" font-size="14" lengthAdjust="spacing" textLength="28" x="27" y="430.1433">&#30436;&#38754;</text><ellipse cx="18" cy="445.8112" fill="none" rx="3" ry="3" style="stroke:#038048;stroke-width:1.0;"/><text fill="#000000" font-family="Noto Sans CJK JP" font-size="14" lengthAdjust="spacing" textLength="186" x="27" y="450.4152">&#32080;&#26524; &#171;&#23550;&#23616;&#20013;/&#40658;/&#30333;/&#24341;&#12365;&#20998;&#12369;&#187;</text><line style="stroke:#181818;stroke-width:0.5;" x1="8" x2="248" y1="458.4472" y2="458.4472"/></g><!--link User to AuthenticatedLocalGame--><g id="link_User_AuthenticatedLocalGame"><path codeLine="22" d="M128,164.3 C128,188.89 128,190.89 128,217.81 " fill="none" id="User-AuthenticatedLocalGame" style="stroke:#181818;stroke-width:1.0;"/><line style="stroke:#181818;stroke-width:1.0;" x1="124" x2="132" y1="160.3" y2="160.3"/><line style="stroke:#181818;stroke-width:1.0;" x1="124" x2="132" y1="163.3" y2="163.3"/><line style="stroke:#181818;stroke-width:1.0;" x1="128" x2="128" y1="164.3" y2="156.3"/><line style="stroke:#181818;stroke-width:1.0;" x1="128" x2="134" y1="227.81" y2="235.81"/><line style="stroke:#181818;stroke-width:1.0;" x1="128" x2="122" y1="227.81" y2="235.81"/><line style="stroke:#181818;stroke-width:1.0;" x1="128" x2="128" y1="227.81" y2="235.81"/><ellipse cx="128" cy="221.81" fill="none" rx="4" ry="4" style="stroke:#181818;stroke-width:1.0;"/><text fill="#000000" font-family="Noto Sans CJK JP" font-size="13" lengthAdjust="spacing" textLength="65" x="129" y="202.08">&#12518;&#12540;&#12470;&#12540;ID</text></g><!--SRC=[TP5RIm915CVVzrCCleRiUuWGbQ666E4767IZI7V3NHz20vsXM0D1WnBpGedvegQLHP6N3pFkcj-YkHHUG1Y6S_P_zd_Exun-UgAUmJYCWOXo11DHmwEfHW365E08Q8O63g6gWssV7_Y23abHZHFZ73W8RX8y8EY3tRX6q1T1Onex0DH1I5VY82a1iB5Ovjq1BbVGxtOBeKDGZw06mMzMFaULKC1x4DhzLn-vRukWEi5PWjkqWH0Ah1NkSZahFhK9Bj5Qwc6PLMkCVzANykIpC-tVY-XQHDJwGbe0c0-m19DvPX9BMzJKweviiycfjXB6CVix30qbig-5ONIFBKbmebS-qSCAv0gzvq-O32kscRUBJtO9iTmkz-sxtZoVVT_mEOgSd8v8pu2kYMdJqd2j9jw04l72ScDMhVFeFM_NAcm_tP7ragQxaMa7cJh9rk2MP7AMUKKo1R4W_dYfbDEf9TSXRu9bCkaN]--></g></svg>