<?xml version="1.0" encoding="us-ascii" standalone="no"?><svg xmlns="http://www.w3.org/2000/svg" xmlns:xlink="http://www.w3.org/1999/xlink" contentStyleType="text/css" height="360px" preserveAspectRatio="none" style="width:1326px;height:360px;background:#FFFFFF;" version="1.1" viewBox="0 0 1326 360" width="1326px" zoomAndPan="magnify"><defs/><g><!--cluster ?????? --><g id="cluster_&#12458;&#12475;&#12525;&#12450;&#12503;&#12522; "><path d="M8.5,246.5 L96.5,246.5 A3.75,3.75 0 0 1 99,249 L106,272.7719 L1316.5,272.7719 A2.5,2.5 0 0 1 1319,275.2719 L1319,351 A2.5,2.5 0 0 1 1316.5,353.5 L8.5,353.5 A2.5,2.5 0 0 1 6,351 L6,249 A2.5,2.5 0 0 1 8.5,246.5 " fill="none" style="stroke:#000000;stroke-width:1.5;"/><line style="stroke:#000000;stroke-width:1.5;" x1="6" x2="106" y1="272.7719" y2="272.7719"/><text fill="#000000" font-family="Noto Sans CJK JP" font-size="14" font-weight="bold" lengthAdjust="spacing" textLength="84" x="10" y="264.7399">&#12458;&#12475;&#12525;&#12450;&#12503;&#12522;</text></g><g id="elem_&#12518;&#12540;&#12470;&#12540;&#30331;&#37682;"><ellipse cx="1089.7886" cy="311.3425" fill="#F1F1F1" rx="73.2886" ry="17.8425" style="stroke:#181818;stroke-width:0.5;"/><text fill="#000000" font-family="Noto Sans CJK JP" font-size="14" lengthAdjust="spacing" textLength="84" x="1044.7886" y="316.7125">&#12518;&#12540;&#12470;&#12540;&#30331;&#37682;</text></g><g id="elem_&#12525;&#12464;&#12452;&#12531;"><ellipse cx="1251.2322" cy="311.6769" fill="#F1F1F1" rx="52.2322" ry="17.6769" style="stroke:#181818;stroke-width:0.5;"/><text fill="#000000" font-family="Noto Sans CJK JP" font-size="14" lengthAdjust="spacing" textLength="56" x="1220.2322" y="317.0469">&#12525;&#12464;&#12452;&#12531;</text></g><g id="elem_&#12525;&#12464;&#12450;&#12454;&#12488;"><ellipse cx="84.759" cy="311.2735" fill="#F1F1F1" rx="62.759" ry="17.7735" style="stroke:#181818;stroke-width:0.5;"/><text fill="#000000" font-family="Noto Sans CJK JP" font-size="14" lengthAdjust="spacing" textLength="70" x="46.759" y="316.6435">&#12525;&#12464;&#12450;&#12454;&#12488;</text></g><g id="elem_&#12497;&#12473;&#12527;&#12540;&#12489;&#22793;&#26356;"><ellipse cx="263.1629" cy="311.4326" fill="#F1F1F1" rx="80.1629" ry="18.4326" style="stroke:#181818;stroke-width:0.5;"/><text fill="#000000" font-family="Noto Sans CJK JP" font-size="14" lengthAdjust="spacing" textLength="98" x="211.1629" y="316.8025">&#12497;&#12473;&#12527;&#12540;&#12489;&#22793;&#26356;</text></g><g id="elem_&#12522;&#12514;&#12540;&#12488;&#23550;&#25126;"><ellipse cx="451.7886" cy="311.3425" fill="#F1F1F1" rx="73.2886" ry="17.8425" style="stroke:#181818;stroke-width:0.5;"/><text fill="#000000" font-family="Noto Sans CJK JP" font-size="14" lengthAdjust="spacing" textLength="84" x="406.7886" y="316.7125">&#12522;&#12514;&#12540;&#12488;&#23550;&#25126;</text></g><g id="elem_&#12525;&#12540;&#12459;&#12523;&#23550;&#25126;"><ellipse cx="907.7886" cy="311.3425" fill="#F1F1F1" rx="73.2886" ry="17.8425" style="stroke:#181818;stroke-width:0.5;"/><text fill="#000000" font-family="Noto Sans CJK JP" font-size="14" lengthAdjust="spacing" textLength="84" x="862.7886" y="316.7125">&#12525;&#12540;&#12459;&#12523;&#23550;&#25126;</text></g><g id="elem_&#12522;&#12514;&#12540;&#12488;&#23550;&#25126;&#12395;&#33267;&#12427;&#12414;&#12391;&#12398;&#20966;&#29702;"><ellipse cx="679.9789" cy="311.6958" fill="#F1F1F1" rx="118.9789" ry="26.1958" style="stroke:#181818;stroke-width:0.5;"/><text fill="#000000" font-family="Noto Sans CJK JP" font-size="14" lengthAdjust="spacing" textLength="196" x="578.9789" y="317.0657">&#12522;&#12514;&#12540;&#12488;&#23550;&#25126;&#12395;&#33267;&#12427;&#12414;&#12391;&#12398;&#20966;&#29702;</text></g><!--entity ????????--><g id="elem_&#12525;&#12464;&#12452;&#12531;&#12518;&#12540;&#12470;&#12540;"><ellipse cx="452" cy="14" fill="#F1F1F1" rx="8" ry="8" style="stroke:#181818;stroke-width:0.5;"/><path d="M452,22 L452,49 M439,30 L465,30 M452,49 L439,64 M452,49 L465,64 " fill="none" style="stroke:#181818;stroke-width:0.5;"/><text fill="#000000" font-family="Noto Sans CJK JP" font-size="14" lengthAdjust="spacing" textLength="112" x="396" y="81.7399">&#12525;&#12464;&#12452;&#12531;&#12518;&#12540;&#12470;&#12540;</text></g><!--entity ???--><g id="elem_&#12466;&#12473;&#12488;"><ellipse cx="1090" cy="14" fill="#F1F1F1" rx="8" ry="8" style="stroke:#181818;stroke-width:0.5;"/><path d="M1090,22 L1090,49 M1077,30 L1103,30 M1090,49 L1077,64 M1090,49 L1103,64 " fill="none" style="stroke:#181818;stroke-width:0.5;"/><text fill="#000000" font-family="Noto Sans CJK JP" font-size="14" lengthAdjust="spacing" textLength="42" x="1069" y="81.7399">&#12466;&#12473;&#12488;</text></g><!--entity ????--><g id="elem_&#12518;&#12540;&#12470;&#12540;"><ellipse cx="908" cy="154" fill="#F1F1F1" rx="8" ry="8" style="stroke:#181818;stroke-width:0.5;"/><path d="M908,162 L908,189 M895,170 L921,170 M908,189 L895,204 M908,189 L921,204 " fill="none" style="stroke:#181818;stroke-width:0.5;"/><text fill="#000000" font-family="Noto Sans CJK JP" font-size="14" lengthAdjust="spacing" textLength="56" x="880" y="221.7399">&#12518;&#12540;&#12470;&#12540;</text></g><!--link ??? to ????--><g id="link_&#12466;&#12473;&#12488;_&#12518;&#12540;&#12470;&#12540;"><path d="M1068.77,62.6 C1035.95,87.49 987.212,124.4331 950.582,152.2131 " fill="none" id="&#12466;&#12473;&#12488;-to-&#12518;&#12540;&#12470;&#12540;" style="stroke:#181818;stroke-width:1.0;"/><polygon fill="none" points="936.24,163.09,954.2076,156.9938,946.9564,147.4324,936.24,163.09" style="stroke:#181818;stroke-width:1.0;"/></g><!--link ???????? to ????--><g id="link_&#12525;&#12464;&#12452;&#12531;&#12518;&#12540;&#12470;&#12540;_&#12518;&#12540;&#12470;&#12540;"><path d="M508.37,63.56 C606.78,93.34 789.2315,148.5567 862.7615,170.8067 " fill="none" id="&#12525;&#12464;&#12452;&#12531;&#12518;&#12540;&#12470;&#12540;-to-&#12518;&#12540;&#12470;&#12540;" style="stroke:#181818;stroke-width:1.0;"/><polygon fill="none" points="879.99,176.02,864.4993,165.0639,861.0237,176.5495,879.99,176.02" style="stroke:#181818;stroke-width:1.0;"/></g><!--link ??? to ??????--><g id="link_&#12466;&#12473;&#12488;_&#12518;&#12540;&#12470;&#12540;&#30331;&#37682;"><path d="M1090,85.74 C1090,144.2 1090,245.74 1090,287.39 " fill="none" id="&#12466;&#12473;&#12488;-to-&#12518;&#12540;&#12470;&#12540;&#30331;&#37682;" style="stroke:#181818;stroke-width:1.0;"/><polygon fill="#181818" points="1090,293.39,1094,284.39,1090,288.39,1086,284.39,1090,293.39" style="stroke:#181818;stroke-width:1.0;"/></g><!--link ??? to ????--><g id="link_&#12466;&#12473;&#12488;_&#12525;&#12464;&#12452;&#12531;"><path d="M1111.05,81.01 C1146.17,138.6 1212.2665,246.9772 1237.9665,289.1272 " fill="none" id="&#12466;&#12473;&#12488;-to-&#12525;&#12464;&#12452;&#12531;" style="stroke:#181818;stroke-width:1.0;"/><polygon fill="#181818" points="1241.09,294.25,1239.8199,284.4834,1238.4871,289.981,1232.9895,288.6481,1241.09,294.25" style="stroke:#181818;stroke-width:1.0;"/></g><!--link ???????? to ?????--><g id="link_&#12525;&#12464;&#12452;&#12531;&#12518;&#12540;&#12470;&#12540;_&#12525;&#12464;&#12450;&#12454;&#12488;"><path d="M395.88,80.69 C336.8,117.44 241.89,178.68 165,238.5 C142.14,256.29 121.975,274.7818 106.195,289.8818 " fill="none" id="&#12525;&#12464;&#12452;&#12531;&#12518;&#12540;&#12470;&#12540;-to-&#12525;&#12464;&#12450;&#12454;&#12488;" style="stroke:#181818;stroke-width:1.0;"/><polygon fill="#181818" points="101.86,294.03,111.128,290.6977,105.4725,290.5732,105.5971,284.9177,101.86,294.03" style="stroke:#181818;stroke-width:1.0;"/></g><!--link ???????? to ???????--><g id="link_&#12525;&#12464;&#12452;&#12531;&#12518;&#12540;&#12470;&#12540;_&#12497;&#12473;&#12527;&#12540;&#12489;&#22793;&#26356;"><path d="M423.91,85.74 C382.16,144.06 308.9323,246.3411 278.9623,288.2111 " fill="none" id="&#12525;&#12464;&#12452;&#12531;&#12518;&#12540;&#12470;&#12540;-to-&#12497;&#12473;&#12527;&#12540;&#12489;&#22793;&#26356;" style="stroke:#181818;stroke-width:1.0;"/><polygon fill="#181818" points="275.47,293.09,283.961,288.0998,278.3802,289.0242,277.4558,283.4434,275.47,293.09" style="stroke:#181818;stroke-width:1.0;"/></g><!--link ???????? to ??????--><g id="link_&#12525;&#12464;&#12452;&#12531;&#12518;&#12540;&#12470;&#12540;_&#12522;&#12514;&#12540;&#12488;&#23550;&#25126;"><path d="M452,85.74 C452,144.2 452,245.74 452,287.39 " fill="none" id="&#12525;&#12464;&#12452;&#12531;&#12518;&#12540;&#12470;&#12540;-to-&#12522;&#12514;&#12540;&#12488;&#23550;&#25126;" style="stroke:#181818;stroke-width:1.0;"/><polygon fill="#181818" points="452,293.39,456,284.39,452,288.39,448,284.39,452,293.39" style="stroke:#181818;stroke-width:1.0;"/></g><!--link ???? to ??????--><g id="link_&#12518;&#12540;&#12470;&#12540;_&#12525;&#12540;&#12459;&#12523;&#23550;&#25126;"><path d="M908,225.73 C908,248.44 908,269.87 908,287.26 " fill="none" id="&#12518;&#12540;&#12470;&#12540;-to-&#12525;&#12540;&#12459;&#12523;&#23550;&#25126;" style="stroke:#181818;stroke-width:1.0;"/><polygon fill="#181818" points="908,293.26,912,284.26,908,288.26,904,284.26,908,293.26" style="stroke:#181818;stroke-width:1.0;"/></g><!--link ???????? to ??????????????--><g id="link_&#12525;&#12464;&#12452;&#12531;&#12518;&#12540;&#12470;&#12540;_&#12522;&#12514;&#12540;&#12488;&#23550;&#25126;&#12395;&#33267;&#12427;&#12414;&#12391;&#12398;&#20966;&#29702;"><path d="M485.89,85.74 C533.52,140.9 614.9678,235.2095 654.6778,281.1795 " fill="none" id="&#12525;&#12464;&#12452;&#12531;&#12518;&#12540;&#12470;&#12540;-to-&#12522;&#12514;&#12540;&#12488;&#23550;&#25126;&#12395;&#33267;&#12427;&#12414;&#12391;&#12398;&#20966;&#29702;" style="stroke:#181818;stroke-width:1.0;"/><polygon fill="#181818" points="658.6,285.72,655.7437,276.2944,655.3315,281.9362,649.6897,281.524,658.6,285.72" style="stroke:#181818;stroke-width:1.0;"/></g><!--SRC=[AyxEp2j8B4hCLKX9JKiipIbnoyyhyKlCJLLGyiiloLS8JimhLd3sybRm2b3YIamkoIzIUDoyzd7JXiTDInutRtxSlEnnyvx7JTk094owQTFZffsFcplWof6KSC5b5NHrQ-nG9N4PZ4KfLq5YSdPYEj2LZvjMFMxQ3TQww77pzCVDgnIK5AfHxB5Jq43M_7pcxfSzcpGnbI1iryJd5YIrYnut0QKw22kV2BPfFKYykVFfaivdixSGrhJgSVCYi8wEf-ltFUjO1jA1pIKWaTMFcrSZL95cxkF6rI_QDpzkwdxSkEznu_B7ZUkUjYzxFg5DawiM0000]--></g></svg>