<?xml version="1.0" encoding="us-ascii" standalone="no"?><svg xmlns="http://www.w3.org/2000/svg" xmlns:xlink="http://www.w3.org/1999/xlink" contentStyleType="text/css" height="360px" preserveAspectRatio="none" style="width:1326px;height:360px;background:#FFFFFF;" version="1.1" viewBox="0 0 1326 360" width="1326px" zoomAndPan="magnify"><defs/><g><!--cluster ?????? --><g id="cluster_&#12458;&#12475;&#12525;&#12450;&#12503;&#12522; "><path d="M8.5,246.5 L96.5,246.5 A3.75,3.75 0 0 1 99,249 L106,272.7719 L1316.5,272.7719 A2.5,2.5 0 0 1 1319,275.2719 L1319,351 A2.5,2.5 0 0 1 1316.5,353.5 L8.5,353.5 A2.5,2.5 0 0 1 6,351 L6,249 A2.5,2.5 0 0 1 8.5,246.5 " fill="none" style="stroke:#000000;stroke-width:1.5;"/><line style="stroke:#000000;stroke-width:1.5;" x1="6" x2="106" y1="272.7719" y2="272.7719"/><text fill="#000000" font-family="Noto Sans CJK JP" font-size="14" font-weight="bold" lengthAdjust="spacing" textLength="84" x="10" y="264.7399">&#12458;&#12475;&#12525;&#12450;&#12503;&#12522;</text></g><g id="elem_&#12518;&#12540;&#12470;&#12540;&#30331;&#37682;"><ellipse cx="1089.7886" cy="311.3425" fill="#F1F1F1" rx="73.2886" ry="17.8425" style="stroke:#181818;stroke-width:0.5;"/><text fill="#000000" font-family="Noto Sans CJK JP" font-size="14" lengthAdjust="spacing" textLength="84" x="1044.7886" y="316.7125">&#12518;&#12540;&#12470;&#12540;&#30331;&#37682;</text></g><g id="elem_&#12525;&#12464;&#12452;&#12531;"><ellipse cx="1251.2322" cy="311.6769" fill="#F1F1F1" rx="52.2322" ry="17.6769" style="stroke:#181818;stroke-width:0.5;"/><text fill="#000000" font-family="Noto Sans CJK JP" font-size="14" lengthAdjust="spacing" textLength="56" x="1220.2322" y="317.0469">&#12525;&#12464;&#12452;&#12531;</text></g><g id="elem_&#12525;&#12464;&#12450;&#12454;&#12488;"><ellipse cx="84.759" cy="311.2735" fill="#F1F1F1" rx="62.759" ry="17.7735" style="stroke:#181818;stroke-width:0.5;"/><text fill="#000000" font-family="Noto Sans CJK JP" font-size="14" lengthAdjust="spacing" textLength="70" x="46.759" y="316.6435">&#12525;&#12464;&#12450;&#12454;&#12488;</text></g><g id="elem_&#12497;&#12473;&#12527;&#12540;&#12489;&#22793;&#26356;"><ellipse cx="719.1629" cy="311.4326" fill="#F1F1F1" rx="80.1629" ry="18.4326" style="stroke:#181818;stroke-width:0.5;"/><text fill="#000000" font-family="Noto Sans CJK JP" font-size="14" lengthAdjust="spacing" textLength="98" x="667.1629" y="316.8025">&#12497;&#12473;&#12527;&#12540;&#12489;&#22793;&#26356;</text></g><g id="elem_&#12522;&#12514;&#12540;&#12488;&#23550;&#25126;"><ellipse cx="256.7886" cy="311.3425" fill="#F1F1F1" rx="73.2886" ry="17.8425" style="stroke:#181818;stroke-width:0.5;"/><text fill="#000000" font-family="Noto Sans CJK JP" font-size="14" lengthAdjust="spacing" textLength="84" x="211.7886" y="316.7125">&#12522;&#12514;&#12540;&#12488;&#23550;&#25126;</text></g><g id="elem_&#12525;&#12540;&#12459;&#12523;&#23550;&#25126;"><ellipse cx="907.7886" cy="311.3425" fill="#F1F1F1" rx="73.2886" ry="17.8425" style="stroke:#181818;stroke-width:0.5;"/><text fill="#000000" font-family="Noto Sans CJK JP" font-size="14" lengthAdjust="spacing" textLength="84" x="862.7886" y="316.7125">&#12525;&#12540;&#12459;&#12523;&#23550;&#25126;</text></g><g id="elem_&#12522;&#12514;&#12540;&#12488;&#23550;&#25126;&#12395;&#33267;&#12427;&#12414;&#12391;&#12398;&#20966;&#29702;"><ellipse cx="484.9789" cy="311.6958" fill="#F1F1F1" rx="118.9789" ry="26.1958" style="stroke:#181818;stroke-width:0.5;"/><text fill="#000000" font-family="Noto Sans CJK JP" font-size="14" lengthAdjust="spacing" textLength="196" x="383.9789" y="317.0657">&#12522;&#12514;&#12540;&#12488;&#23550;&#25126;&#12395;&#33267;&#12427;&#12414;&#12391;&#12398;&#20966;&#29702;</text></g><!--entity ????????--><g id="elem_&#12525;&#12464;&#12452;&#12531;&#12518;&#12540;&#12470;&#12540;"><ellipse cx="332" cy="14" fill="#F1F1F1" rx="8" ry="8" style="stroke:#181818;stroke-width:0.5;"/><path d="M332,22 L332,49 M319,30 L345,30 M332,49 L319,64 M332,49 L345,64 " fill="none" style="stroke:#181818;stroke-width:0.5;"/><text fill="#000000" font-family="Noto Sans CJK JP" font-size="14" lengthAdjust="spacing" textLength="112" x="276" y="81.7399">&#12525;&#12464;&#12452;&#12531;&#12518;&#12540;&#12470;&#12540;</text></g><!--entity ???--><g id="elem_&#12466;&#12473;&#12488;"><ellipse cx="1090" cy="14" fill="#F1F1F1" rx="8" ry="8" style="stroke:#181818;stroke-width:0.5;"/><path d="M1090,22 L1090,49 M1077,30 L1103,30 M1090,49 L1077,64 M1090,49 L1103,64 " fill="none" style="stroke:#181818;stroke-width:0.5;"/><text fill="#000000" font-family="Noto Sans CJK JP" font-size="14" lengthAdjust="spacing" textLength="42" x="1069" y="81.7399">&#12466;&#12473;&#12488;</text></g><!--entity ????--><g id="elem_&#12518;&#12540;&#12470;&#12540;"><ellipse cx="814" cy="154" fill="#F1F1F1" rx="8" ry="8" style="stroke:#181818;stroke-width:0.5;"/><path d="M814,162 L814,189 M801,170 L827,170 M814,189 L801,204 M814,189 L827,204 " fill="none" style="stroke:#181818;stroke-width:0.5;"/><text fill="#000000" font-family="Noto Sans CJK JP" font-size="14" lengthAdjust="spacing" textLength="56" x="786" y="221.7399">&#12518;&#12540;&#12470;&#12540;</text></g><!--link ??? to ????--><g id="link_&#12466;&#12473;&#12488;_&#12518;&#12540;&#12470;&#12540;"><path d="M1068.8,57.1 C1019.57,81.71 913.5997,134.7002 858.2197,162.3902 " fill="none" id="&#12466;&#12473;&#12488;-to-&#12518;&#12540;&#12470;&#12540;" style="stroke:#181818;stroke-width:1.0;"/><polygon fill="none" points="842.12,170.44,860.903,167.7567,855.5364,157.0236,842.12,170.44" style="stroke:#181818;stroke-width:1.0;"/></g><!--link ???????? to ????--><g id="link_&#12525;&#12464;&#12452;&#12531;&#12518;&#12540;&#12470;&#12540;_&#12518;&#12540;&#12470;&#12540;"><path d="M388.23,62.6 C491.67,92.21 691.2656,149.3544 768.5756,171.4944 " fill="none" id="&#12525;&#12464;&#12452;&#12531;&#12518;&#12540;&#12470;&#12540;-to-&#12518;&#12540;&#12470;&#12540;" style="stroke:#181818;stroke-width:1.0;"/><polygon fill="none" points="785.88,176.45,770.2275,165.7262,766.9237,177.2625,785.88,176.45" style="stroke:#181818;stroke-width:1.0;"/></g><!--link ??? to ??????--><g id="link_&#12466;&#12473;&#12488;_&#12518;&#12540;&#12470;&#12540;&#30331;&#37682;"><path d="M1090,85.74 C1090,144.2 1090,245.74 1090,287.39 " fill="none" id="&#12466;&#12473;&#12488;-to-&#12518;&#12540;&#12470;&#12540;&#30331;&#37682;" style="stroke:#181818;stroke-width:1.0;"/><polygon fill="#181818" points="1090,293.39,1094,284.39,1090,288.39,1086,284.39,1090,293.39" style="stroke:#181818;stroke-width:1.0;"/></g><!--link ??? to ????--><g id="link_&#12466;&#12473;&#12488;_&#12525;&#12464;&#12452;&#12531;"><path d="M1111.05,81.01 C1146.17,138.6 1212.2665,246.9772 1237.9665,289.1272 " fill="none" id="&#12466;&#12473;&#12488;-to-&#12525;&#12464;&#12452;&#12531;" style="stroke:#181818;stroke-width:1.0;"/><polygon fill="#181818" points="1241.09,294.25,1239.8199,284.4834,1238.4871,289.981,1232.9895,288.6481,1241.09,294.25" style="stroke:#181818;stroke-width:1.0;"/></g><!--link ???????? to ?????--><g id="link_&#12525;&#12464;&#12452;&#12531;&#12518;&#12540;&#12470;&#12540;_&#12525;&#12464;&#12450;&#12454;&#12488;"><path d="M295.29,85.74 C240.32,144.49 143.0794,248.4188 104.5294,289.6188 " fill="none" id="&#12525;&#12464;&#12452;&#12531;&#12518;&#12540;&#12470;&#12540;-to-&#12525;&#12464;&#12450;&#12454;&#12488;" style="stroke:#181818;stroke-width:1.0;"/><polygon fill="#181818" points="100.43,294,109.4999,290.1611,103.8462,290.349,103.6583,284.6953,100.43,294" style="stroke:#181818;stroke-width:1.0;"/></g><!--link ???? to ???????--><g id="link_&#12518;&#12540;&#12470;&#12540;_&#12497;&#12473;&#12527;&#12540;&#12489;&#22793;&#26356;"><path d="M785.75,223.37 C768.03,246.5 749.6602,270.4881 735.8702,288.4781 " fill="none" id="&#12518;&#12540;&#12470;&#12540;-to-&#12497;&#12473;&#12527;&#12540;&#12489;&#22793;&#26356;" style="stroke:#181818;stroke-width:1.0;"/><polygon fill="#181818" points="732.22,293.24,740.8699,288.5306,735.2618,289.2717,734.5207,283.6636,732.22,293.24" style="stroke:#181818;stroke-width:1.0;"/></g><!--link ???????? to ??????--><g id="link_&#12525;&#12464;&#12452;&#12531;&#12518;&#12540;&#12470;&#12540;_&#12522;&#12514;&#12540;&#12488;&#23550;&#25126;"><path d="M320.85,85.74 C304.24,144.2 275.3294,245.9683 263.4994,287.6183 " fill="none" id="&#12525;&#12464;&#12452;&#12531;&#12518;&#12540;&#12470;&#12540;-to-&#12522;&#12514;&#12540;&#12488;&#23550;&#25126;" style="stroke:#181818;stroke-width:1.0;"/><polygon fill="#181818" points="261.86,293.39,268.1668,285.8254,263.2261,288.5803,260.4712,283.6395,261.86,293.39" style="stroke:#181818;stroke-width:1.0;"/></g><!--link ???? to ??????--><g id="link_&#12518;&#12540;&#12470;&#12540;_&#12525;&#12540;&#12459;&#12523;&#23550;&#25126;"><path d="M842.2,223.7 C859.83,246.96 878.0661,271.008 891.6161,288.888 " fill="none" id="&#12518;&#12540;&#12470;&#12540;-to-&#12525;&#12540;&#12459;&#12523;&#23550;&#25126;" style="stroke:#181818;stroke-width:1.0;"/><polygon fill="#181818" points="895.24,293.67,892.9921,284.0811,892.2201,289.685,886.6161,288.913,895.24,293.67" style="stroke:#181818;stroke-width:1.0;"/></g><!--link ???????? to ??????????????--><g id="link_&#12525;&#12464;&#12452;&#12531;&#12518;&#12540;&#12470;&#12540;_&#12522;&#12514;&#12540;&#12488;&#23550;&#25126;&#12395;&#33267;&#12427;&#12414;&#12391;&#12398;&#20966;&#29702;"><path d="M354.74,85.74 C386.62,140.75 440.6918,234.0386 467.4218,280.1686 " fill="none" id="&#12525;&#12464;&#12452;&#12531;&#12518;&#12540;&#12470;&#12540;-to-&#12522;&#12514;&#12540;&#12488;&#23550;&#25126;&#12395;&#33267;&#12427;&#12414;&#12391;&#12398;&#20966;&#29702;" style="stroke:#181818;stroke-width:1.0;"/><polygon fill="#181818" points="470.43,285.36,469.3787,275.5674,467.9232,281.0338,462.4568,279.5783,470.43,285.36" style="stroke:#181818;stroke-width:1.0;"/></g><!--SRC=[AyxEp2j8B4hCLKX9JKiipIbnoyyhyKlCJLLGyiiloLS8JimhLd3sybRm2b3YIamkoIzIUDoyzd7JXiTDInutRtxSlEnnyvx7JTk094owQTFZffsFcplWof6KSC5b5NHrQ-nG9N4PZ4KfLq5YSdPYEj2LZvjMFMxQ3TQww77pzCVDgnIK5AfHxB5Jq43M_7pcxfSzcpGnbI1iryJd5YIrYnut0QKwGCenbKm4cxuU9DxS-NH9vxFPMmYRk-fnyoAmZewdw_SzwrY6tUYrO97LZvjN8rIHPkxZnjKlsZS_Rkf-tBZlSUFonuthdhOlUpwXJPEh5W00]--></g></svg>