<?xml version="1.0" encoding="us-ascii" standalone="no"?><svg xmlns="http://www.w3.org/2000/svg" xmlns:xlink="http://www.w3.org/1999/xlink" contentStyleType="text/css" height="325px" preserveAspectRatio="none" style="width:1444px;height:325px;background:#FFFFFF;" version="1.1" viewBox="0 0 1444 325" width="1444px" zoomAndPan="magnify"><defs/><g><!--cluster ??????--><g id="cluster_&#12458;&#12475;&#12525;&#12450;&#12503;&#12522;"><rect fill="none" height="168" rx="2.5" ry="2.5" style="stroke:#181818;stroke-width:1.0;" width="1423" x="7" y="101.5"/><text fill="#000000" font-family="Noto Sans CJK JP" font-size="14" font-weight="bold" lengthAdjust="spacing" textLength="84" x="676.5" y="119.7399">&#12458;&#12475;&#12525;&#12450;&#12503;&#12522;</text></g><!--cluster ?????--><g id="cluster_&#12466;&#12540;&#12512;&#31649;&#29702;"><path d="M33.5,148.5 L104.5,148.5 A3.75,3.75 0 0 1 107,151 L114,174.7719 L1403.5,174.7719 A2.5,2.5 0 0 1 1406,177.2719 L1406,243 A2.5,2.5 0 0 1 1403.5,245.5 L33.5,245.5 A2.5,2.5 0 0 1 31,243 L31,151 A2.5,2.5 0 0 1 33.5,148.5 " fill="none" style="stroke:#000000;stroke-width:1.5;"/><line style="stroke:#000000;stroke-width:1.5;" x1="31" x2="114" y1="174.7719" y2="174.7719"/><text fill="#000000" font-family="Noto Sans CJK JP" font-size="14" font-weight="bold" lengthAdjust="spacing" textLength="70" x="35" y="166.7399">&#12466;&#12540;&#12512;&#31649;&#29702;</text></g><g id="elem_&#26032;&#35215;&#12466;&#12540;&#12512;&#20316;&#25104;"><ellipse cx="887.1629" cy="208.4326" fill="#F1F1F1" rx="80.1629" ry="18.4326" style="stroke:#181818;stroke-width:0.5;"/><text fill="#000000" font-family="Noto Sans CJK JP" font-size="14" lengthAdjust="spacing" textLength="98" x="835.1629" y="213.8025">&#26032;&#35215;&#12466;&#12540;&#12512;&#20316;&#25104;</text></g><g id="elem_&#12525;&#12540;&#12459;&#12523;&#23550;&#25126;"><ellipse cx="697.7886" cy="208.3425" fill="#F1F1F1" rx="73.2886" ry="17.8425" style="stroke:#181818;stroke-width:0.5;"/><text fill="#000000" font-family="Noto Sans CJK JP" font-size="14" lengthAdjust="spacing" textLength="84" x="652.7886" y="213.7125">&#12525;&#12540;&#12459;&#12523;&#23550;&#25126;</text></g><g id="elem_&#23550;&#23616;&#23653;&#27508;&#12522;&#12473;&#12488;&#38322;&#35239;"><ellipse cx="499.213" cy="208.4426" fill="#F1F1F1" rx="90.213" ry="20.4426" style="stroke:#181818;stroke-width:0.5;"/><text fill="#000000" font-family="Noto Sans CJK JP" font-size="14" lengthAdjust="spacing" textLength="126" x="433.213" y="213.8126">&#23550;&#23616;&#23653;&#27508;&#12522;&#12473;&#12488;&#38322;&#35239;</text></g><g id="elem_&#23550;&#23616;&#21066;&#38500;"><ellipse cx="99.2322" cy="208.6769" fill="#F1F1F1" rx="52.2322" ry="17.6769" style="stroke:#181818;stroke-width:0.5;"/><text fill="#000000" font-family="Noto Sans CJK JP" font-size="14" lengthAdjust="spacing" textLength="56" x="68.2322" y="214.0469">&#23550;&#23616;&#21066;&#38500;</text></g><g id="elem_&#12522;&#12514;&#12540;&#12488;&#23550;&#25126;#&#26908;&#35342;&#20013;"><ellipse cx="279.778" cy="208.5556" fill="#F1F1F1" rx="93.278" ry="21.0556" style="stroke:#181818;stroke-width:0.5;"/><text fill="#000000" font-family="Noto Sans CJK JP" font-size="14" lengthAdjust="spacing" textLength="134" x="209.778" y="213.9256">&#12522;&#12514;&#12540;&#12488;&#23550;&#25126;#&#26908;&#35342;&#20013;</text></g><g id="elem_CPU&#23550;&#25126;#&#26908;&#35342;&#20013;"><ellipse cx="1084.9131" cy="208.4826" fill="#F1F1F1" rx="82.9131" ry="18.9826" style="stroke:#181818;stroke-width:0.5;"/><text fill="#000000" font-family="Noto Sans CJK JP" font-size="14" lengthAdjust="spacing" textLength="106" x="1028.9131" y="213.8526">CPU&#23550;&#25126;#&#26908;&#35342;&#20013;</text></g><g id="elem_&#12525;&#12540;&#12459;&#12523;&#23550;&#25126;#&#26908;&#35342;&#20013;"><ellipse cx="1296.778" cy="208.5556" fill="#F1F1F1" rx="93.278" ry="21.0556" style="stroke:#181818;stroke-width:0.5;"/><text fill="#000000" font-family="Noto Sans CJK JP" font-size="14" lengthAdjust="spacing" textLength="134" x="1226.778" y="213.9256">&#12525;&#12540;&#12459;&#12523;&#23550;&#25126;#&#26908;&#35342;&#20013;</text></g><!--entity loggedInUser--><g id="elem_loggedInUser"><ellipse cx="499" cy="14" fill="#F1F1F1" rx="8" ry="8" style="stroke:#181818;stroke-width:0.5;"/><path d="M499,22 L499,49 M486,30 L512,30 M499,49 L486,64 M499,49 L512,64 " fill="none" style="stroke:#181818;stroke-width:0.5;"/><text fill="#000000" font-family="Noto Sans CJK JP" font-size="14" lengthAdjust="spacing" textLength="112" x="443" y="81.7399">&#12525;&#12464;&#12452;&#12531;&#12518;&#12540;&#12470;&#12540;</text></g><!--entity unloggedUser--><g id="elem_unloggedUser"><ellipse cx="1223" cy="14" fill="#F1F1F1" rx="8" ry="8" style="stroke:#181818;stroke-width:0.5;"/><path d="M1223,22 L1223,49 M1210,30 L1236,30 M1223,49 L1210,64 M1223,49 L1236,64 " fill="none" style="stroke:#181818;stroke-width:0.5;"/><text fill="#000000" font-family="Noto Sans CJK JP" font-size="14" lengthAdjust="spacing" textLength="126" x="1160" y="81.7399">&#26410;&#12525;&#12464;&#12452;&#12531;&#12518;&#12540;&#12470;&#12540;</text></g><!--entity guest--><g id="elem_guest"><ellipse cx="1370" cy="14" fill="#F1F1F1" rx="8" ry="8" style="stroke:#181818;stroke-width:0.5;"/><path d="M1370,22 L1370,49 M1357,30 L1383,30 M1370,49 L1357,64 M1370,49 L1383,64 " fill="none" style="stroke:#181818;stroke-width:0.5;"/><text fill="#000000" font-family="Noto Sans CJK JP" font-size="14" lengthAdjust="spacing" textLength="98" x="1321" y="81.7399">&#26410;&#30331;&#37682;&#12518;&#12540;&#12470;&#12540;</text></g><g id="elem_GMN21"><path d="M165.5,289.5 L165.5,318.324 A0,0 0 0 0 165.5,318.324 L394.5,318.324 A0,0 0 0 0 394.5,318.324 L394.5,299.5 L384.5,289.5 L284,289.5 L280,229.79 L276,289.5 L165.5,289.5 A0,0 0 0 0 165.5,289.5 " fill="#FEFFDD" style="stroke:#181818;stroke-width:0.5;"/><path d="M384.5,289.5 L384.5,299.5 L394.5,299.5 L384.5,289.5 " fill="#FEFFDD" style="stroke:#181818;stroke-width:0.5;"/><text fill="#000000" font-family="Noto Sans CJK JP" font-size="13" lengthAdjust="spacing" textLength="208" x="171.5" y="309.58">&#12371;&#12398;&#27231;&#33021;&#12399;&#29694;&#22312;&#23455;&#35013;&#12434;&#26908;&#35342;&#20013;&#12391;&#12377;&#12290;</text></g><g id="elem_GMN24"><path d="M1208.5,289.5 L1208.5,318.324 A0,0 0 0 0 1208.5,318.324 L1437.5,318.324 A0,0 0 0 0 1437.5,318.324 L1437.5,299.5 L1427.5,289.5 L1323.22,289.5 L1302.64,229.79 L1315.22,289.5 L1208.5,289.5 A0,0 0 0 0 1208.5,289.5 " fill="#FEFFDD" style="stroke:#181818;stroke-width:0.5;"/><path d="M1427.5,289.5 L1427.5,299.5 L1437.5,299.5 L1427.5,289.5 " fill="#FEFFDD" style="stroke:#181818;stroke-width:0.5;"/><text fill="#000000" font-family="Noto Sans CJK JP" font-size="13" lengthAdjust="spacing" textLength="208" x="1214.5" y="309.58">&#12371;&#12398;&#27231;&#33021;&#12399;&#29694;&#22312;&#23455;&#35013;&#12434;&#26908;&#35342;&#20013;&#12391;&#12377;&#12290;</text></g><g id="elem_GMN27"><path d="M944.5,289.5 L944.5,318.324 A0,0 0 0 0 944.5,318.324 L1173.5,318.324 A0,0 0 0 0 1173.5,318.324 L1173.5,299.5 L1163.5,289.5 L1066.82,289.5 L1079.99,227.53 L1058.82,289.5 L944.5,289.5 A0,0 0 0 0 944.5,289.5 " fill="#FEFFDD" style="stroke:#181818;stroke-width:0.5;"/><path d="M1163.5,289.5 L1163.5,299.5 L1173.5,299.5 L1163.5,289.5 " fill="#FEFFDD" style="stroke:#181818;stroke-width:0.5;"/><text fill="#000000" font-family="Noto Sans CJK JP" font-size="13" lengthAdjust="spacing" textLength="208" x="950.5" y="309.58">&#12371;&#12398;&#27231;&#33021;&#12399;&#29694;&#22312;&#23455;&#35013;&#12434;&#26908;&#35342;&#20013;&#12391;&#12377;&#12290;</text></g><!--link loggedInUser to ???????--><g id="link_loggedInUser_&#26032;&#35215;&#12466;&#12540;&#12512;&#20316;&#25104;"><path d="M555.1,51 C627.8,57.61 749.9,71.59 789,93.5 C830.21,116.59 859.0988,158.8478 874.2688,184.6478 " fill="none" id="loggedInUser-to-&#26032;&#35215;&#12466;&#12540;&#12512;&#20316;&#25104;" style="stroke:#181818;stroke-width:1.0;"/><polygon fill="#181818" points="877.31,189.82,876.1964,180.0343,874.7757,185.5099,869.3001,184.0892,877.31,189.82" style="stroke:#181818;stroke-width:1.0;"/></g><!--link loggedInUser to ??????--><g id="link_loggedInUser_&#12525;&#12540;&#12459;&#12523;&#23550;&#25126;"><path d="M555.12,64.87 C572.73,72.17 591.58,81.68 607,93.5 C643.18,121.22 670.3518,161.1939 685.1518,185.5239 " fill="none" id="loggedInUser-to-&#12525;&#12540;&#12459;&#12523;&#23550;&#25126;" style="stroke:#181818;stroke-width:1.0;"/><polygon fill="#181818" points="688.27,190.65,687.0101,180.8821,685.6715,186.3783,680.1753,185.0397,688.27,190.65" style="stroke:#181818;stroke-width:1.0;"/></g><!--link loggedInUser to ?????????--><g id="link_loggedInUser_&#23550;&#23616;&#23653;&#27508;&#12522;&#12473;&#12488;&#38322;&#35239;"><path d="M499,85.89 C499,118.1 499,156.31 499,181.6 " fill="none" id="loggedInUser-to-&#23550;&#23616;&#23653;&#27508;&#12522;&#12473;&#12488;&#38322;&#35239;" style="stroke:#181818;stroke-width:1.0;"/><polygon fill="#181818" points="499,187.6,503,178.6,499,182.6,495,178.6,499,187.6" style="stroke:#181818;stroke-width:1.0;"/></g><!--link loggedInUser to ????--><g id="link_loggedInUser_&#23550;&#23616;&#21066;&#38500;"><path d="M442.92,48.79 C360.84,53.07 212.97,64.64 169,93.5 C133.47,116.82 114.9211,159.3761 106.1111,184.9961 " fill="none" id="loggedInUser-to-&#23550;&#23616;&#21066;&#38500;" style="stroke:#181818;stroke-width:1.0;"/><polygon fill="#181818" points="104.16,190.67,110.8693,183.4599,105.7859,185.9417,103.304,180.8584,104.16,190.67" style="stroke:#181818;stroke-width:1.0;"/></g><!--link loggedInUser to ??????#???--><g id="link_loggedInUser_&#12522;&#12514;&#12540;&#12488;&#23550;&#25126;#&#26908;&#35342;&#20013;"><path d="M442.99,66.02 C425.58,73.33 406.81,82.57 391,93.5 C351.91,120.51 318.9932,158.0088 299.1332,182.7788 " fill="none" id="loggedInUser-to-&#12522;&#12514;&#12540;&#12488;&#23550;&#25126;#&#26908;&#35342;&#20013;" style="stroke:#181818;stroke-width:1.0;"/><polygon fill="#181818" points="295.38,187.46,304.1306,182.9404,298.5077,183.559,297.8891,177.9361,295.38,187.46" style="stroke:#181818;stroke-width:1.0;"/></g><!--link unloggedUser to ??????#???--><g id="link_unloggedUser_&#12525;&#12540;&#12459;&#12523;&#23550;&#25126;#&#26908;&#35342;&#20013;"><path d="M1241.1,85.89 C1255.91,118.1 1273.725,156.858 1285.345,182.148 " fill="none" id="unloggedUser-to-&#12525;&#12540;&#12459;&#12523;&#23550;&#25126;#&#26908;&#35342;&#20013;" style="stroke:#181818;stroke-width:1.0;"/><polygon fill="#181818" points="1287.85,187.6,1287.7271,177.7519,1285.7625,183.0566,1280.4577,181.092,1287.85,187.6" style="stroke:#181818;stroke-width:1.0;"/></g><!--link guest to ??????#???--><g id="link_guest_&#12525;&#12540;&#12459;&#12523;&#23550;&#25126;#&#26908;&#35342;&#20013;"><path d="M1352.14,85.89 C1337.54,118.1 1319.9665,156.8449 1308.5065,182.1349 " fill="none" id="guest-to-&#12525;&#12540;&#12459;&#12523;&#23550;&#25126;#&#26908;&#35342;&#20013;" style="stroke:#181818;stroke-width:1.0;"/><polygon fill="#181818" points="1306.03,187.6,1313.3881,181.0534,1308.0937,183.0458,1306.1013,177.7514,1306.03,187.6" style="stroke:#181818;stroke-width:1.0;"/></g><!--SRC=[hP9FIm916CRlyoacErG7-mXTWg024Q9pJEkuYEwCkBEd27I7QlDGKc04GcPbfgXP7OhIFipRhkktQ5CHmpz5nCnbvldDyxplpEZH28kJ1D5mY8Q94HChd8a0qIZs1RZWU8Cm7I-lhUEre0-XcGXJOaQ8OeLh6cTRH14yeI_63OGIL164gJ7l89XbC5z1Li4iW3m3MVRX7OHnd2XHedQ11v1l8FFjscKxizzJCPvtilTkyNYWVZHpZfLPw6bVTjwkMG5PiUijnohs1MzXDv9suyQfFdbHOBw0j3hP1xTu-vquJ7VEhmTkPP25RepLSvjrhdDkwUZZkTf7beER4vJHKeQHNM-W65TL6bfbcpfDOBz_QM9le-2uHaUfgLrFnFjNC2vqsdqOh7TYMf73l6fGNVm6H7COKgVTUUiybZe75fWdxdlJJkSHuuBYRIu4rp0F__naNPUQStVXoYQawktZbfqhsRKBzshFCnsWNXAapY5f8if2-2jaJDAqclypQS8V-tl09m00]--></g></svg>