<?xml version="1.0" encoding="us-ascii" standalone="no"?><svg xmlns="http://www.w3.org/2000/svg" xmlns:xlink="http://www.w3.org/1999/xlink" contentStyleType="text/css" height="706px" preserveAspectRatio="none" style="width:985px;height:706px;background:#FFFFFF;" version="1.1" viewBox="0 0 985 706" width="985px" zoomAndPan="magnify"><defs/><g><!--cluster ??????--><g id="cluster_&#12458;&#12475;&#12525;&#12450;&#12503;&#12522;"><rect fill="none" height="646" rx="2.5" ry="2.5" style="stroke:#181818;stroke-width:1.0;" width="658" x="321" y="7"/><text fill="#000000" font-family="Noto Sans CJK JP" font-size="14" font-weight="bold" lengthAdjust="spacing" textLength="84" x="608" y="25.2399">&#12458;&#12475;&#12525;&#12450;&#12503;&#12522;</text></g><!--cluster ?????--><g id="cluster_&#12466;&#12540;&#12512;&#31649;&#29702;"><path d="M364.5,54 L435.5,54 A3.75,3.75 0 0 1 438,56.5 L445,80.2719 L952.5,80.2719 A2.5,2.5 0 0 1 955,82.7719 L955,368.5 A2.5,2.5 0 0 1 952.5,371 L364.5,371 A2.5,2.5 0 0 1 362,368.5 L362,56.5 A2.5,2.5 0 0 1 364.5,54 " fill="none" style="stroke:#000000;stroke-width:1.5;"/><line style="stroke:#000000;stroke-width:1.5;" x1="362" x2="445" y1="80.2719" y2="80.2719"/><text fill="#000000" font-family="Noto Sans CJK JP" font-size="14" font-weight="bold" lengthAdjust="spacing" textLength="70" x="366" y="72.2399">&#12466;&#12540;&#12512;&#31649;&#29702;</text></g><!--cluster ??????--><g id="cluster_&#12466;&#12540;&#12512;&#12503;&#12524;&#12452;"><path d="M347.5,395 L432.5,395 A3.75,3.75 0 0 1 435,397.5 L442,421.2719 L910.5,421.2719 A2.5,2.5 0 0 1 913,423.7719 L913,626.5 A2.5,2.5 0 0 1 910.5,629 L347.5,629 A2.5,2.5 0 0 1 345,626.5 L345,397.5 A2.5,2.5 0 0 1 347.5,395 " fill="none" style="stroke:#000000;stroke-width:1.5;"/><line style="stroke:#000000;stroke-width:1.5;" x1="345" x2="442" y1="421.2719" y2="421.2719"/><text fill="#000000" font-family="Noto Sans CJK JP" font-size="14" font-weight="bold" lengthAdjust="spacing" textLength="84" x="349" y="413.2399">&#12466;&#12540;&#12512;&#12503;&#12524;&#12452;</text></g><g id="elem_createNewGame"><ellipse cx="468.213" cy="113.9426" fill="#F1F1F1" rx="90.213" ry="20.4426" style="stroke:#181818;stroke-width:0.5;"/><text fill="#000000" font-family="Noto Sans CJK JP" font-size="14" lengthAdjust="spacing" textLength="126" x="402.213" y="119.3126">&#26032;&#12375;&#12356;&#23550;&#23616;&#12434;&#22987;&#12417;&#12427;</text></g><g id="elem_GameHistory"><ellipse cx="468.213" cy="333.9426" fill="#F1F1F1" rx="90.213" ry="20.4426" style="stroke:#181818;stroke-width:0.5;"/><text fill="#000000" font-family="Noto Sans CJK JP" font-size="14" lengthAdjust="spacing" textLength="126" x="402.213" y="339.3126">&#23550;&#23616;&#23653;&#27508;&#12434;&#38322;&#35239;&#12377;&#12427;</text></g><g id="elem_deleteGame"><ellipse cx="468.1629" cy="187.9326" fill="#F1F1F1" rx="80.1629" ry="18.4326" style="stroke:#181818;stroke-width:0.5;"/><text fill="#000000" font-family="Noto Sans CJK JP" font-size="14" lengthAdjust="spacing" textLength="98" x="416.1629" y="193.3025">&#23550;&#23616;&#12434;&#21066;&#38500;&#12377;&#12427;</text></g><g id="elem_restartGame"><ellipse cx="468.1629" cy="259.9326" fill="#F1F1F1" rx="80.1629" ry="18.4326" style="stroke:#181818;stroke-width:0.5;"/><text fill="#000000" font-family="Noto Sans CJK JP" font-size="14" lengthAdjust="spacing" textLength="98" x="416.1629" y="265.3025">&#23550;&#23616;&#12434;&#20877;&#38283;&#12377;&#12427;</text></g><g id="elem_PlayerName"><ellipse cx="817.0643" cy="125.0803" fill="#F1F1F1" rx="122.0643" ry="32.0803" style="stroke:#181818;stroke-width:0.5;"/><text fill="#000000" font-family="Noto Sans CJK JP" font-size="14" lengthAdjust="spacing" textLength="154" x="737.0643" y="120.3143">&#40658;&#12289;&#30333;&#12398;&#12503;&#12524;&#12452;&#12516;&#12540;&#21517;&#12434;</text><text fill="#000000" font-family="Noto Sans CJK JP" font-size="14" lengthAdjust="spacing" textLength="56" x="786.0643" y="140.5862">&#20837;&#21147;&#12377;&#12427;</text></g><g id="elem_playLocalGame"><ellipse cx="468.015" cy="517.803" fill="#F1F1F1" rx="107.015" ry="23.803" style="stroke:#181818;stroke-width:0.5;"/><text fill="#000000" font-family="Noto Sans CJK JP" font-size="14" lengthAdjust="spacing" textLength="168" x="381.015" y="523.173">&#12525;&#12540;&#12459;&#12523;&#23550;&#25126;&#12434;&#12503;&#12524;&#12452;&#12377;&#12427;</text></g><g id="elem_placePiece"><ellipse cx="817.2322" cy="523.1769" fill="#F1F1F1" rx="52.2322" ry="17.6769" style="stroke:#181818;stroke-width:0.5;"/><text fill="#000000" font-family="Noto Sans CJK JP" font-size="14" lengthAdjust="spacing" textLength="56" x="786.2322" y="528.5469">&#39378;&#12434;&#25171;&#12388;</text></g><g id="elem_passTurn"><ellipse cx="816.759" cy="451.7735" fill="#F1F1F1" rx="62.759" ry="17.7735" style="stroke:#181818;stroke-width:0.5;"/><text fill="#000000" font-family="Noto Sans CJK JP" font-size="14" lengthAdjust="spacing" textLength="70" x="778.759" y="457.1435">&#12497;&#12473;&#12434;&#12377;&#12427;</text></g><g id="elem_endGame"><ellipse cx="817.1629" cy="593.9326" fill="#F1F1F1" rx="80.1629" ry="18.4326" style="stroke:#181818;stroke-width:0.5;"/><text fill="#000000" font-family="Noto Sans CJK JP" font-size="14" lengthAdjust="spacing" textLength="98" x="765.1629" y="599.3025">&#21213;&#25943;&#21028;&#23450;&#12434;&#34892;&#12358;</text></g><!--entity guestuser--><g id="elem_guestuser"><ellipse cx="140" cy="82.5" fill="#F1F1F1" rx="8" ry="8" style="stroke:#181818;stroke-width:0.5;"/><path d="M140,90.5 L140,117.5 M127,98.5 L153,98.5 M140,117.5 L127,132.5 M140,117.5 L153,132.5 " fill="none" style="stroke:#181818;stroke-width:0.5;"/><text fill="#000000" font-family="Noto Sans CJK JP" font-size="14" lengthAdjust="spacing" textLength="98" x="91" y="150.2399">&#12466;&#12473;&#12488;&#12518;&#12540;&#12470;&#12540;</text></g><!--entity loggedInUser--><g id="elem_loggedInUser"><ellipse cx="140" cy="212.5" fill="#F1F1F1" rx="8" ry="8" style="stroke:#181818;stroke-width:0.5;"/><path d="M140,220.5 L140,247.5 M127,228.5 L153,228.5 M140,247.5 L127,262.5 M140,247.5 L153,262.5 " fill="none" style="stroke:#181818;stroke-width:0.5;"/><text fill="#000000" font-family="Noto Sans CJK JP" font-size="14" lengthAdjust="spacing" textLength="112" x="84" y="280.2399">&#12525;&#12464;&#12452;&#12531;&#12518;&#12540;&#12470;&#12540;</text></g><!--entity blackPlayer--><g id="elem_blackPlayer"><ellipse cx="140" cy="414.5" fill="#F1F1F1" rx="8" ry="8" style="stroke:#181818;stroke-width:0.5;"/><path d="M140,422.5 L140,449.5 M127,430.5 L153,430.5 M140,449.5 L127,464.5 M140,449.5 L153,464.5 " fill="none" style="stroke:#181818;stroke-width:0.5;"/><text fill="#000000" font-family="Noto Sans CJK JP" font-size="14" lengthAdjust="spacing" textLength="98" x="91" y="482.2399">&#40658;&#12398;&#12503;&#12524;&#12452;&#12516;&#12540;</text></g><!--entity whitePlayer--><g id="elem_whitePlayer"><ellipse cx="140" cy="630.5" fill="#F1F1F1" rx="8" ry="8" style="stroke:#181818;stroke-width:0.5;"/><path d="M140,638.5 L140,665.5 M127,646.5 L153,646.5 M140,665.5 L127,680.5 M140,665.5 L153,680.5 " fill="none" style="stroke:#181818;stroke-width:0.5;"/><text fill="#000000" font-family="Noto Sans CJK JP" font-size="14" lengthAdjust="spacing" textLength="98" x="91" y="698.2399">&#30333;&#12398;&#12503;&#12524;&#12452;&#12516;&#12540;</text></g><g id="elem_GMN29"><path d="M6,521 L6,587.472 A0,0 0 0 0 6,587.472 L274,587.472 A0,0 0 0 0 274,587.472 L274,531 L264,521 L144,521 L140,486.25 L136,521 L6,521 A0,0 0 0 0 6,521 " fill="#FEFFDD" style="stroke:#181818;stroke-width:0.5;"/><path d="M264,521 L264,531 L274,531 L264,521 " fill="#FEFFDD" style="stroke:#181818;stroke-width:0.5;"/><text fill="#000000" font-family="Noto Sans CJK JP" font-size="13" lengthAdjust="spacing" textLength="169" x="12" y="541.08">&#40658;&#12289;&#30333;&#12398;&#12503;&#12524;&#12452;&#12516;&#12540;&#12398;&#19968;&#26041;&#12399;</text><text fill="#000000" font-family="Noto Sans CJK JP" font-size="13" lengthAdjust="spacing" textLength="247" x="12" y="559.904">&#12525;&#12464;&#12452;&#12531;&#12518;&#12540;&#12470;&#12540;&#12394;&#12356;&#12375;&#12466;&#12473;&#12488;&#12518;&#12540;&#12470;&#12540;&#12289;</text><text fill="#000000" font-family="Noto Sans CJK JP" font-size="13" lengthAdjust="spacing" textLength="221" x="12" y="578.728">&#12418;&#12358;&#19968;&#26041;&#12399;&#21516;&#12376;&#22580;&#12395;&#12356;&#12427;&#20182;&#12398;&#20154;&#12434;&#24819;&#23450;</text></g><!--link createNewGame to PlayerName--><g id="link_createNewGame_PlayerName"><path d="M557.46,116.8 C599.43,118.13 644.213,119.5498 689.623,120.9898 " fill="none" id="createNewGame-to-PlayerName" style="stroke:#181818;stroke-width:1.0;stroke-dasharray:7.0,7.0;"/><polygon fill="#181818" points="695.62,121.18,686.7513,116.8968,690.6225,121.0215,686.4977,124.8927,695.62,121.18" style="stroke:#181818;stroke-width:1.0;"/><text fill="#000000" font-family="Noto Sans CJK JP" font-size="13" lengthAdjust="spacing" textLength="58" x="606" y="115.08">&#171;include&#187;</text></g><!--link playLocalGame to placePiece--><g id="link_playLocalGame_placePiece"><path d="M575,519.53 C637.98,520.43 709.0206,521.4532 758.7806,522.1732 " fill="none" id="playLocalGame-to-placePiece" style="stroke:#181818;stroke-width:1.0;stroke-dasharray:7.0,7.0;"/><polygon fill="#181818" points="764.78,522.26,755.8388,518.1302,759.7805,522.1877,755.7231,526.1294,764.78,522.26" style="stroke:#181818;stroke-width:1.0;"/><text fill="#000000" font-family="Noto Sans CJK JP" font-size="13" lengthAdjust="spacing" textLength="58" x="606" y="517.08">&#171;include&#187;</text></g><!--link playLocalGame to passTurn--><g id="link_playLocalGame_passTurn"><path d="M550.36,502.53 C616.46,489.95 701.8157,473.7213 758.3257,462.9713 " fill="none" id="playLocalGame-to-passTurn" style="stroke:#181818;stroke-width:1.0;stroke-dasharray:7.0,7.0;"/><polygon fill="#181818" points="764.22,461.85,754.631,459.6024,759.3081,462.7844,756.1261,467.4615,764.22,461.85" style="stroke:#181818;stroke-width:1.0;"/><text fill="#000000" font-family="Noto Sans CJK JP" font-size="13" lengthAdjust="spacing" textLength="58" x="606" y="478.08">&#171;include&#187;</text></g><!--link playLocalGame to endGame--><g id="link_playLocalGame_endGame"><path d="M543.43,535.16 C563.41,539.72 585.02,544.59 605,549 C656.21,560.3 708.6387,571.4639 750.9587,580.3739 " fill="none" id="playLocalGame-to-endGame" style="stroke:#181818;stroke-width:1.0;stroke-dasharray:7.0,7.0;"/><polygon fill="#181818" points="756.83,581.61,748.8472,575.8416,751.9373,580.5799,747.199,583.67,756.83,581.61" style="stroke:#181818;stroke-width:1.0;"/><text fill="#000000" font-family="Noto Sans CJK JP" font-size="13" lengthAdjust="spacing" textLength="58" x="606" y="545.08">&#171;include&#187;</text></g><!--link guestuser to createNewGame--><g id="link_guestuser_createNewGame"><path d="M189.1,114 C238.61,114 310.88,114 371.75,114 " fill="none" id="guestuser-to-createNewGame" style="stroke:#181818;stroke-width:1.0;"/><polygon fill="#181818" points="377.75,114,368.75,110,372.75,114,368.75,118,377.75,114" style="stroke:#181818;stroke-width:1.0;"/></g><!--link loggedInUser to createNewGame--><g id="link_loggedInUser_createNewGame"><path d="M196.25,213.56 C241.83,188.6 300.91,156.64 313,152 C340.25,141.54 365.4891,134.5593 392.5591,128.4093 " fill="none" id="loggedInUser-to-createNewGame" style="stroke:#181818;stroke-width:1.0;"/><polygon fill="#181818" points="398.41,127.08,388.7475,125.1733,393.5342,128.1877,390.5198,132.9745,398.41,127.08" style="stroke:#181818;stroke-width:1.0;"/></g><!--link loggedInUser to GameHistory--><g id="link_loggedInUser_GameHistory"><path d="M196.17,261.47 C229.81,271.93 273.74,285.23 313,296 C343.01,304.23 370.6975,311.1922 398.7875,317.9722 " fill="none" id="loggedInUser-to-GameHistory" style="stroke:#181818;stroke-width:1.0;"/><polygon fill="#181818" points="404.62,319.38,396.8098,313.38,399.7596,318.2069,394.9327,321.1567,404.62,319.38" style="stroke:#181818;stroke-width:1.0;"/></g><!--link loggedInUser to deleteGame--><g id="link_loggedInUser_deleteGame"><path d="M196.3,234.5 C253.61,224.66 337.1667,210.3062 397.3967,199.9562 " fill="none" id="loggedInUser-to-deleteGame" style="stroke:#181818;stroke-width:1.0;"/><polygon fill="#181818" points="403.31,198.94,393.7626,196.522,398.3822,199.7868,395.1174,204.4064,403.31,198.94" style="stroke:#181818;stroke-width:1.0;"/></g><!--link loggedInUser to restartGame--><g id="link_loggedInUser_restartGame"><path d="M196.3,246.71 C249.44,249.32 324.2172,252.9959 383.7072,255.9159 " fill="none" id="loggedInUser-to-restartGame" style="stroke:#181818;stroke-width:1.0;"/><polygon fill="#181818" points="389.7,256.21,380.9069,251.7736,384.706,255.9649,380.5147,259.764,389.7,256.21" style="stroke:#181818;stroke-width:1.0;"/></g><!--link blackPlayer to playLocalGame--><g id="link_blackPlayer_playLocalGame"><path d="M189.1,456.62 C242.33,468.38 322.9411,486.1863 385.3011,499.9563 " fill="none" id="blackPlayer-to-playLocalGame" style="stroke:#181818;stroke-width:1.0;"/><polygon fill="#181818" points="391.16,501.25,383.2342,495.4035,386.2776,500.1719,381.5092,503.2153,391.16,501.25" style="stroke:#181818;stroke-width:1.0;"/></g><!--link whitePlayer to playLocalGame--><g id="link_whitePlayer_playLocalGame"><path d="M189.06,641.15 C214.35,630.15 245.88,616.4 274,604 C323.51,582.17 374.5633,559.4006 413.5833,541.9406 " fill="none" id="whitePlayer-to-playLocalGame" style="stroke:#181818;stroke-width:1.0;"/><polygon fill="#181818" points="419.06,539.49,409.2112,539.5148,414.4961,541.5322,412.4787,546.8171,419.06,539.49" style="stroke:#181818;stroke-width:1.0;"/></g><!--SRC=[ZPJTRX915CVlvoacNEb5-m2cuSR4Zse8YNhdpNGPjfikksHtIDEO9koi4bfiKca4qPYqXa82bhQqCRQeBtEwItaBPnPObeyQR_PYpk_yp_VQ6vgH9HR9u1HDavpE7fa6Iv0CnR64oKpyWXWsVhZw3AycOqYdQOR5ewMfwmodD8igJ3CDX8Z2J0i3xmA_0hS8RWFSNy1_Y2ycDbPpr6OvcreXwPu0FmDU1_TY5jPDLQMffyQh23_ebS7fW5i5ztlWLH_1QpfHDf8wsHBi4EtNVYz6DzSrHaSeafaJGzL5cS1Rm7j1Hjy2jrOClq4OPuKoKGEWAnDq3_kTe_v-OMZ5-9vVEGEd2ivRx_IFTvu7NlQQ9U0EyD9z6L2nA64qGJSVYtOENOQaTtxidrmAVb3ftZQQuDJ6Bf9yejcYZgseWvJUsHtKwX4qHNNAwAoq90jxWqefGbgY-SHY0JfaPJlppi9EUVjxGkEruRqxzdQ_H5I6dKkCuqqLXvUNun40Fy0hAvgXwBaKZSVHzi9cXd73VieHo4LeWziMrVZ5XiXaajuabQo8zDnKY3wfVj0i2zZVEG2dFcOKcjIeGiVY7-Hk2i683h7jbpdB63MmzDN_MFMATQ_pMN2tH-_1AGGSDL9XfAdOGTsJI3Drtu6FWluNF8eynswBfgBmgl3IKdncsr3qYXROvypHpPipHdPjpZQrNP5p38pJaufSu08hCan6yPh9c9d1PdhgjF-niEBbvcVUhro1Suhk-g-0qn9tAgzrqIzAI2FWN8mxLFBsnVG_UOUNuBIb9o_Tz2eorFMrt3FtGYm94jF1Ccdq5m00]--></g></svg>