<?xml version="1.0" encoding="us-ascii" standalone="no"?><svg xmlns="http://www.w3.org/2000/svg" xmlns:xlink="http://www.w3.org/1999/xlink" contentStyleType="text/css" height="659px" preserveAspectRatio="none" style="width:920px;height:659px;background:#FFFFFF;" version="1.1" viewBox="0 0 920 659" width="920px" zoomAndPan="magnify"><defs/><g><!--cluster ??????--><g id="cluster_&#12458;&#12475;&#12525;&#12450;&#12503;&#12522;"><rect fill="none" height="646" rx="2.5" ry="2.5" style="stroke:#181818;stroke-width:1.0;" width="658" x="256" y="7"/><text fill="#000000" font-family="Noto Sans CJK JP" font-size="14" font-weight="bold" lengthAdjust="spacing" textLength="84" x="543" y="25.2399">&#12458;&#12475;&#12525;&#12450;&#12503;&#12522;</text></g><!--cluster ?????--><g id="cluster_&#12466;&#12540;&#12512;&#31649;&#29702;"><path d="M299.5,54 L370.5,54 A3.75,3.75 0 0 1 373,56.5 L380,80.2719 L887.5,80.2719 A2.5,2.5 0 0 1 890,82.7719 L890,368.5 A2.5,2.5 0 0 1 887.5,371 L299.5,371 A2.5,2.5 0 0 1 297,368.5 L297,56.5 A2.5,2.5 0 0 1 299.5,54 " fill="none" style="stroke:#000000;stroke-width:1.5;"/><line style="stroke:#000000;stroke-width:1.5;" x1="297" x2="380" y1="80.2719" y2="80.2719"/><text fill="#000000" font-family="Noto Sans CJK JP" font-size="14" font-weight="bold" lengthAdjust="spacing" textLength="70" x="301" y="72.2399">&#12466;&#12540;&#12512;&#31649;&#29702;</text></g><!--cluster ??????--><g id="cluster_&#12466;&#12540;&#12512;&#12503;&#12524;&#12452;"><path d="M282.5,395 L367.5,395 A3.75,3.75 0 0 1 370,397.5 L377,421.2719 L845.5,421.2719 A2.5,2.5 0 0 1 848,423.7719 L848,626.5 A2.5,2.5 0 0 1 845.5,629 L282.5,629 A2.5,2.5 0 0 1 280,626.5 L280,397.5 A2.5,2.5 0 0 1 282.5,395 " fill="none" style="stroke:#000000;stroke-width:1.5;"/><line style="stroke:#000000;stroke-width:1.5;" x1="280" x2="377" y1="421.2719" y2="421.2719"/><text fill="#000000" font-family="Noto Sans CJK JP" font-size="14" font-weight="bold" lengthAdjust="spacing" textLength="84" x="284" y="413.2399">&#12466;&#12540;&#12512;&#12503;&#12524;&#12452;</text></g><g id="elem_createNewGame"><ellipse cx="403.213" cy="257.9426" fill="#F1F1F1" rx="90.213" ry="20.4426" style="stroke:#181818;stroke-width:0.5;"/><text fill="#000000" font-family="Noto Sans CJK JP" font-size="14" lengthAdjust="spacing" textLength="126" x="337.213" y="263.3126">&#26032;&#12375;&#12356;&#23550;&#23616;&#12434;&#22987;&#12417;&#12427;</text></g><g id="elem_GameHistory"><ellipse cx="403.213" cy="333.9426" fill="#F1F1F1" rx="90.213" ry="20.4426" style="stroke:#181818;stroke-width:0.5;"/><text fill="#000000" font-family="Noto Sans CJK JP" font-size="14" lengthAdjust="spacing" textLength="126" x="337.213" y="339.3126">&#23550;&#23616;&#23653;&#27508;&#12434;&#38322;&#35239;&#12377;&#12427;</text></g><g id="elem_deleteGame"><ellipse cx="403.1629" cy="111.9326" fill="#F1F1F1" rx="80.1629" ry="18.4326" style="stroke:#181818;stroke-width:0.5;"/><text fill="#000000" font-family="Noto Sans CJK JP" font-size="14" lengthAdjust="spacing" textLength="98" x="351.1629" y="117.3025">&#23550;&#23616;&#12434;&#21066;&#38500;&#12377;&#12427;</text></g><g id="elem_restartGame"><ellipse cx="403.1629" cy="183.9326" fill="#F1F1F1" rx="80.1629" ry="18.4326" style="stroke:#181818;stroke-width:0.5;"/><text fill="#000000" font-family="Noto Sans CJK JP" font-size="14" lengthAdjust="spacing" textLength="98" x="351.1629" y="189.3025">&#23550;&#23616;&#12434;&#20877;&#38283;&#12377;&#12427;</text></g><g id="elem_PlayerName"><ellipse cx="752.0643" cy="258.0803" fill="#F1F1F1" rx="122.0643" ry="32.0803" style="stroke:#181818;stroke-width:0.5;"/><text fill="#000000" font-family="Noto Sans CJK JP" font-size="14" lengthAdjust="spacing" textLength="154" x="672.0643" y="253.3143">&#40658;&#12289;&#30333;&#12398;&#12503;&#12524;&#12452;&#12516;&#12540;&#21517;&#12434;</text><text fill="#000000" font-family="Noto Sans CJK JP" font-size="14" lengthAdjust="spacing" textLength="56" x="721.0643" y="273.5862">&#20837;&#21147;&#12377;&#12427;</text></g><g id="elem_playLocalGame"><ellipse cx="403.015" cy="517.803" fill="#F1F1F1" rx="107.015" ry="23.803" style="stroke:#181818;stroke-width:0.5;"/><text fill="#000000" font-family="Noto Sans CJK JP" font-size="14" lengthAdjust="spacing" textLength="168" x="316.015" y="523.173">&#12525;&#12540;&#12459;&#12523;&#23550;&#25126;&#12434;&#12503;&#12524;&#12452;&#12377;&#12427;</text></g><g id="elem_placePiece"><ellipse cx="752.2322" cy="452.1769" fill="#F1F1F1" rx="52.2322" ry="17.6769" style="stroke:#181818;stroke-width:0.5;"/><text fill="#000000" font-family="Noto Sans CJK JP" font-size="14" lengthAdjust="spacing" textLength="56" x="721.2322" y="457.5469">&#39378;&#12434;&#25171;&#12388;</text></g><g id="elem_passTurn"><ellipse cx="751.759" cy="594.7735" fill="#F1F1F1" rx="62.759" ry="17.7735" style="stroke:#181818;stroke-width:0.5;"/><text fill="#000000" font-family="Noto Sans CJK JP" font-size="14" lengthAdjust="spacing" textLength="70" x="713.759" y="600.1435">&#12497;&#12473;&#12434;&#12377;&#12427;</text></g><g id="elem_endGame"><ellipse cx="752.1629" cy="522.9326" fill="#F1F1F1" rx="80.1629" ry="18.4326" style="stroke:#181818;stroke-width:0.5;"/><text fill="#000000" font-family="Noto Sans CJK JP" font-size="14" lengthAdjust="spacing" textLength="98" x="700.1629" y="528.3025">&#21213;&#25943;&#21028;&#23450;&#12434;&#34892;&#12358;</text></g><!--entity loggedInUser--><g id="elem_loggedInUser"><ellipse cx="107.5" cy="189.5" fill="#F1F1F1" rx="8" ry="8" style="stroke:#181818;stroke-width:0.5;"/><path d="M107.5,197.5 L107.5,224.5 M94.5,205.5 L120.5,205.5 M107.5,224.5 L94.5,239.5 M107.5,224.5 L120.5,239.5 " fill="none" style="stroke:#181818;stroke-width:0.5;"/><text fill="#000000" font-family="Noto Sans CJK JP" font-size="14" lengthAdjust="spacing" textLength="112" x="51.5" y="257.2399">&#12525;&#12464;&#12452;&#12531;&#12518;&#12540;&#12470;&#12540;</text></g><!--entity blackPlayer--><g id="elem_blackPlayer"><ellipse cx="107.5" cy="341.5" fill="#F1F1F1" rx="8" ry="8" style="stroke:#181818;stroke-width:0.5;"/><path d="M107.5,349.5 L107.5,376.5 M94.5,357.5 L120.5,357.5 M107.5,376.5 L94.5,391.5 M107.5,376.5 L120.5,391.5 " fill="none" style="stroke:#181818;stroke-width:0.5;"/><text fill="#000000" font-family="Noto Sans CJK JP" font-size="14" lengthAdjust="spacing" textLength="98" x="58.5" y="409.2399">&#40658;&#12398;&#12503;&#12524;&#12452;&#12516;&#12540;</text></g><!--entity whitePlayer--><g id="elem_whitePlayer"><ellipse cx="107.5" cy="557.5" fill="#F1F1F1" rx="8" ry="8" style="stroke:#181818;stroke-width:0.5;"/><path d="M107.5,565.5 L107.5,592.5 M94.5,573.5 L120.5,573.5 M107.5,592.5 L94.5,607.5 M107.5,592.5 L120.5,607.5 " fill="none" style="stroke:#181818;stroke-width:0.5;"/><text fill="#000000" font-family="Noto Sans CJK JP" font-size="14" lengthAdjust="spacing" textLength="98" x="58.5" y="625.2399">&#30333;&#12398;&#12503;&#12524;&#12452;&#12516;&#12540;</text></g><g id="elem_GMN27"><path d="M6,448 L6,514.472 A0,0 0 0 0 6,514.472 L209,514.472 A0,0 0 0 0 209,514.472 L209,458 L199,448 L111.5,448 L107.5,413.25 L103.5,448 L6,448 A0,0 0 0 0 6,448 " fill="#FEFFDD" style="stroke:#181818;stroke-width:0.5;"/><path d="M199,448 L199,458 L209,458 L199,448 " fill="#FEFFDD" style="stroke:#181818;stroke-width:0.5;"/><text fill="#000000" font-family="Noto Sans CJK JP" font-size="13" lengthAdjust="spacing" textLength="169" x="12" y="468.08">&#40658;&#12289;&#30333;&#12398;&#12503;&#12524;&#12452;&#12516;&#12540;&#12398;&#19968;&#26041;&#12399;</text><text fill="#000000" font-family="Noto Sans CJK JP" font-size="13" lengthAdjust="spacing" textLength="182" x="12" y="486.904">&#12525;&#12464;&#12452;&#12531;&#12518;&#12540;&#12470;&#12540;&#12289;&#12418;&#12358;&#19968;&#26041;&#12399;</text><text fill="#000000" font-family="Noto Sans CJK JP" font-size="13" lengthAdjust="spacing" textLength="156" x="12" y="505.728">&#21516;&#12376;&#22580;&#12395;&#12356;&#12427;&#20182;&#12398;&#20154;&#12434;&#24819;&#23450;</text></g><!--link createNewGame to PlayerName--><g id="link_createNewGame_PlayerName"><path d="M493.36,258 C534.93,258 579,258 623.9,258 " fill="none" id="createNewGame-to-PlayerName" style="stroke:#181818;stroke-width:1.0;stroke-dasharray:7.0,7.0;"/><polygon fill="#181818" points="629.9,258,620.9,254,624.9,258,620.9,262,629.9,258" style="stroke:#181818;stroke-width:1.0;"/><text fill="#000000" font-family="Noto Sans CJK JP" font-size="13" lengthAdjust="spacing" textLength="58" x="541" y="254.08">&#171;include&#187;</text></g><!--link playLocalGame to placePiece--><g id="link_playLocalGame_placePiece"><path d="M485.36,502.53 C554.27,489.42 644.5957,472.2411 700.3257,461.6411 " fill="none" id="playLocalGame-to-placePiece" style="stroke:#181818;stroke-width:1.0;stroke-dasharray:7.0,7.0;"/><polygon fill="#181818" points="706.22,460.52,696.6311,458.2721,701.3081,461.4543,698.1259,466.1312,706.22,460.52" style="stroke:#181818;stroke-width:1.0;"/><text fill="#000000" font-family="Noto Sans CJK JP" font-size="13" lengthAdjust="spacing" textLength="58" x="541" y="478.08">&#171;include&#187;</text></g><!--link playLocalGame to passTurn--><g id="link_playLocalGame_passTurn"><path d="M478.44,535.1 C498.42,539.66 520.03,544.55 540,549 C595.07,561.28 652.4553,573.753 695.2253,582.993 " fill="none" id="playLocalGame-to-passTurn" style="stroke:#181818;stroke-width:1.0;stroke-dasharray:7.0,7.0;"/><polygon fill="#181818" points="701.09,584.26,693.1376,578.4497,696.2028,583.2042,691.4483,586.2693,701.09,584.26" style="stroke:#181818;stroke-width:1.0;"/><text fill="#000000" font-family="Noto Sans CJK JP" font-size="13" lengthAdjust="spacing" textLength="58" x="541" y="545.08">&#171;include&#187;</text></g><!--link playLocalGame to endGame--><g id="link_playLocalGame_endGame"><path d="M510,519.53 C562.22,520.28 618.1006,521.0837 666.0806,521.7737 " fill="none" id="playLocalGame-to-endGame" style="stroke:#181818;stroke-width:1.0;stroke-dasharray:7.0,7.0;"/><polygon fill="#181818" points="672.08,521.86,663.1384,517.731,667.0805,521.7881,663.0234,525.7302,672.08,521.86" style="stroke:#181818;stroke-width:1.0;"/><text fill="#000000" font-family="Noto Sans CJK JP" font-size="13" lengthAdjust="spacing" textLength="58" x="541" y="517.08">&#171;include&#187;</text></g><!--link loggedInUser to createNewGame--><g id="link_loggedInUser_createNewGame"><path d="M163.71,227.96 C208.87,233.65 267.3471,241.03 317.8271,247.39 " fill="none" id="loggedInUser-to-createNewGame" style="stroke:#181818;stroke-width:1.0;"/><polygon fill="#181818" points="323.78,248.14,315.3506,243.0464,318.8192,247.515,314.3506,250.9836,323.78,248.14" style="stroke:#181818;stroke-width:1.0;"/></g><!--link loggedInUser to GameHistory--><g id="link_loggedInUser_GameHistory"><path d="M163.65,254.8 C188.7,269.05 219.13,284.88 248,296 C275.24,306.49 300.4685,313.4833 327.5485,319.6233 " fill="none" id="loggedInUser-to-GameHistory" style="stroke:#181818;stroke-width:1.0;"/><polygon fill="#181818" points="333.4,320.95,325.5073,315.0589,328.5238,319.8444,323.7383,322.8609,333.4,320.95" style="stroke:#181818;stroke-width:1.0;"/></g><!--link loggedInUser to deleteGame--><g id="link_loggedInUser_deleteGame"><path d="M163.69,188 C188.75,174.11 219.18,158.71 248,148 C277.08,137.19 304.6259,130.1326 332.8759,124.2526 " fill="none" id="loggedInUser-to-deleteGame" style="stroke:#181818;stroke-width:1.0;"/><polygon fill="#181818" points="338.75,123.03,329.1237,120.9479,333.8549,124.0489,330.7539,128.78,338.75,123.03" style="stroke:#181818;stroke-width:1.0;"/></g><!--link loggedInUser to restartGame--><g id="link_loggedInUser_restartGame"><path d="M163.71,214.04 C211.45,208.02 274.7571,200.0405 326.3171,193.5405 " fill="none" id="loggedInUser-to-restartGame" style="stroke:#181818;stroke-width:1.0;"/><polygon fill="#181818" points="332.27,192.79,322.8404,189.9471,327.3093,193.4154,323.841,197.8843,332.27,192.79" style="stroke:#181818;stroke-width:1.0;"/></g><!--link blackPlayer to playLocalGame--><g id="link_blackPlayer_playLocalGame"><path d="M156.64,396.78 C212.42,424.34 298.2008,466.7222 352.3008,493.4522 " fill="none" id="blackPlayer-to-playLocalGame" style="stroke:#181818;stroke-width:1.0;"/><polygon fill="#181818" points="357.68,496.11,351.383,488.5372,353.1973,493.8952,347.8393,495.7095,357.68,496.11" style="stroke:#181818;stroke-width:1.0;"/></g><!--link whitePlayer to playLocalGame--><g id="link_whitePlayer_playLocalGame"><path d="M156.64,577.36 C203.64,565.99 269.9182,549.9506 323.8282,536.9106 " fill="none" id="whitePlayer-to-playLocalGame" style="stroke:#181818;stroke-width:1.0;"/><polygon fill="#181818" points="329.66,535.5,319.9719,533.7281,324.8001,536.6755,321.8527,541.5038,329.66,535.5" style="stroke:#181818;stroke-width:1.0;"/></g><!--SRC=[ZPJBRjDG48RtVegZh63HFW2gia7YKb0K2TYnERLFKgkE7TadgYfKAROXQXigXLGa18JKeZIH6ffUXMW3lCpKJlCMpB5piPCKiV7Yp3UtVsPihQbwdfeqHnIMeGMDFp9qdg8vHX8fWnla1TKjyd3v6LbE9oIDPJZ1HrFDhdAYg2QJkMheaaHbRfW4t6DmJi5fWdi1RWlSN-3ym2-X5j6CR9OfJ_LN5ZD7_A1N1RiBRXtSxu5NSmYlQ5HUIsjq0zaGxJT-pqVNLrNEXgWawg5wLiFYmJa2fnTKz2rmEqgGDn8XUOnCim5mBWfqz_lTWtwb55e9kUVNJi6kW_tME_dZdHN1gNhjCZWsEENx8g5iCifPYgq_Hf52bv3qpWxzuqla1xNpsrORxCR8HP1FL0lxs8WwYD3REuD6Cu8gJ6ESJOSMP6btK2j7I9DPd9eyG4DMo5cqvohbLNOnnclTUtVexNo9H0cLIutonPeZYul9240UaAKbLPUrWiAIIMbphfZZl6CznGZ48dJ0xM0t_bOBAvcKDoabZvcU6pBL9jqFsbM4_Uqzi9iZHcPfbSbi5Fm3E5SYO2GEjQoN1LCV2bZ-wd-iUrjDh_iPkTk3zs2N0exfoZXJB7VGzoJJLDztuCEa_mKFCy-mcoYg53qKih2Gd5gu6NDqkMQCaNMQiSKMA79nWJ4-ZCYHpR5Aki4PMJ4uDtB4oCIkznyxYIytFuj-xGhi4-ckNmSwW-FWo2QeLy4HVlBsBy7ku9dYs6zwDH7i-beiYtk1avPGOYBAalu2]--></g></svg>